{"glyphs":{"0":{"ha":783,"x_min":69,"x_max":714,"o":"m 69 482 q 155 854 69 724 q 392 985 240 985 q 628 854 543 985 q 714 482 714 724 q 628 110 714 240 q 392 -21 543 -21 q 155 110 240 -21 q 69 482 69 240 m 578 482 q 569 632 578 561 q 538 756 560 703 q 481 840 517 808 q 392 871 444 871 q 303 840 339 871 q 245 756 267 808 q 215 632 224 703 q 206 482 206 561 q 215 332 206 403 q 245 208 224 261 q 303 124 267 156 q 392 93 339 93 q 481 124 444 93 q 538 208 517 156 q 569 332 560 261 q 578 482 578 403 z "},"1":{"ha":783,"x_min":129,"x_max":513,"o":"m 129 764 q 283 842 208 794 q 421 963 358 890 l 513 963 l 513 0 l 383 0 l 383 783 q 342 751 367 768 q 290 719 318 735 q 230 690 261 704 q 169 667 199 676 l 129 764 z "},"2":{"ha":783,"x_min":78,"x_max":681,"o":"m 649 717 q 628 620 649 667 q 575 528 608 574 q 500 440 542 483 q 417 354 458 396 q 362 299 393 331 q 303 232 331 267 q 256 165 275 197 q 238 110 238 133 l 681 110 l 681 0 l 97 0 q 96 17 96 8 q 96 32 96 25 q 117 153 96 97 q 174 260 139 210 q 251 354 208 310 q 336 440 294 399 q 402 506 371 474 q 458 572 433 539 q 497 639 482 604 q 511 713 511 674 q 498 783 511 754 q 463 832 485 813 q 410 860 440 851 q 347 869 381 869 q 274 858 307 869 q 214 833 240 847 q 169 802 188 818 q 142 778 151 786 l 78 869 q 115 903 90 883 q 175 942 140 924 q 253 972 210 960 q 346 985 296 985 q 573 915 497 985 q 649 717 649 844 z "},"3":{"ha":783,"x_min":76,"x_max":679,"o":"m 314 94 q 491 143 438 94 q 544 274 544 192 q 522 363 544 326 q 464 420 500 399 q 380 451 428 442 q 282 460 332 460 l 249 460 l 249 565 l 294 565 q 366 572 329 565 q 433 597 403 579 q 483 647 464 615 q 503 725 503 678 q 489 792 503 764 q 452 838 475 819 q 399 863 429 856 q 336 871 369 871 q 223 851 269 871 q 144 811 176 832 l 94 910 q 137 934 111 921 q 194 958 163 947 q 263 977 226 969 q 340 985 300 985 q 472 966 417 985 q 564 913 528 947 q 618 833 600 879 q 636 732 636 786 q 593 603 636 657 q 489 522 550 550 q 561 490 526 511 q 622 438 596 469 q 663 364 647 406 q 679 271 679 322 q 658 155 679 208 q 591 63 636 101 q 478 1 546 24 q 317 -21 410 -21 q 242 -15 281 -21 q 171 -1 204 -10 q 113 15 138 7 q 76 29 88 24 l 101 142 q 180 113 125 131 q 314 94 235 94 z "},"4":{"ha":783,"x_min":56,"x_max":725,"o":"m 56 333 q 128 476 82 394 q 231 643 174 557 q 355 813 289 729 q 488 963 421 896 l 611 963 l 611 351 l 725 351 l 725 246 l 611 246 l 611 0 l 486 0 l 486 246 l 56 246 l 56 333 m 486 810 q 402 710 444 765 q 319 596 360 656 q 244 474 279 536 q 181 351 208 411 l 486 351 l 486 810 z "},"5":{"ha":783,"x_min":90,"x_max":682,"o":"m 276 592 q 584 500 486 583 q 682 274 682 417 q 660 156 682 210 q 595 63 639 101 q 485 1 551 24 q 326 -21 418 -21 q 253 -15 290 -21 q 183 -1 215 -10 q 126 15 151 7 q 90 29 101 24 l 115 142 q 192 113 139 131 q 324 94 246 94 q 428 108 386 94 q 497 146 471 122 q 535 201 524 169 q 547 267 547 232 q 529 360 547 319 q 465 429 511 401 q 343 472 419 457 q 150 486 267 486 q 163 614 158 554 q 172 731 168 674 q 179 844 176 788 q 185 963 182 900 l 649 963 l 649 853 l 297 853 q 293 797 296 832 q 288 723 290 761 q 282 649 285 685 q 276 592 279 613 z "},"6":{"ha":783,"x_min":88,"x_max":713,"o":"m 88 386 q 126 634 88 526 q 237 815 165 742 q 410 927 308 889 q 640 967 513 965 l 650 858 q 501 840 568 857 q 381 788 433 824 q 292 694 328 751 q 238 551 256 636 q 319 579 274 568 q 413 590 364 590 q 551 565 494 590 q 644 499 608 540 q 697 405 681 458 q 713 293 713 351 q 694 185 713 240 q 640 83 676 129 q 546 8 603 38 q 411 -21 489 -21 q 170 88 253 -21 q 88 386 88 196 m 399 485 q 308 476 350 485 q 225 449 267 467 q 223 417 224 433 q 222 386 222 401 q 231 271 222 325 q 260 176 239 217 q 318 110 282 135 q 410 86 354 86 q 488 106 456 86 q 540 156 519 125 q 570 222 561 186 q 579 290 579 257 q 534 435 579 385 q 399 485 489 485 z "},"7":{"ha":783,"x_min":83,"x_max":696,"o":"m 226 0 q 266 234 235 111 q 343 473 297 357 q 444 688 389 589 q 551 850 499 788 l 83 850 l 83 963 l 696 963 l 696 856 q 594 710 650 803 q 490 503 539 618 q 405 259 440 389 q 361 0 369 129 l 226 0 z "},"8":{"ha":783,"x_min":76,"x_max":707,"o":"m 707 250 q 687 142 707 192 q 627 56 667 93 q 528 -1 588 19 q 390 -21 468 -21 q 240 5 300 -21 q 143 69 179 31 q 92 155 107 108 q 76 243 76 201 q 90 320 76 283 q 124 389 103 357 q 174 447 146 421 q 235 492 203 472 q 99 721 99 569 q 119 822 99 774 q 178 906 140 869 q 271 963 217 942 q 392 985 325 985 q 525 961 469 985 q 616 901 581 938 q 667 819 651 864 q 683 733 683 775 q 672 658 683 693 q 640 592 660 622 q 594 538 619 561 q 540 496 568 514 q 707 250 704 418 m 207 242 q 216 190 207 217 q 247 140 225 163 q 304 101 269 117 q 392 86 339 86 q 474 100 439 86 q 532 135 510 114 q 565 185 554 157 q 576 242 576 213 q 560 319 576 286 q 512 378 543 353 q 437 420 481 403 q 338 450 393 438 q 241 364 275 415 q 207 242 207 313 m 554 735 q 545 781 554 756 q 517 827 536 806 q 467 863 497 849 q 392 878 436 878 q 316 864 347 878 q 265 828 285 850 q 237 781 246 807 q 228 731 228 756 q 239 669 228 700 q 274 613 250 639 q 335 565 297 586 q 426 532 374 544 q 519 613 485 567 q 554 735 554 660 z "},"9":{"ha":783,"x_min":71,"x_max":696,"o":"m 696 578 q 553 145 696 292 q 131 -3 411 -1 l 126 106 q 284 122 214 106 q 407 176 354 139 q 495 271 460 213 q 547 414 531 329 q 465 387 511 397 q 371 376 419 376 q 232 401 289 376 q 139 466 175 425 q 87 560 103 507 q 71 672 71 614 q 89 779 71 724 q 144 881 107 835 q 238 956 181 926 q 372 985 294 985 q 512 957 451 985 q 613 876 572 929 q 675 748 654 824 q 696 578 696 672 m 385 482 q 476 491 433 482 q 560 518 519 500 q 561 548 561 533 q 561 578 561 563 q 553 692 561 638 q 523 788 544 747 q 465 853 501 829 q 374 878 429 878 q 296 858 328 878 q 243 809 264 839 q 213 744 222 779 q 204 675 204 708 q 249 531 204 581 q 385 482 294 482 z "},"\u0000":{"ha":0,"x_min":0,"x_max":0,"o":""},"\t":{"ha":321,"x_min":0,"x_max":0,"o":""}," ":{"ha":321,"x_min":0,"x_max":0,"o":""},"!":{"ha":383,"x_min":99,"x_max":285,"o":"m 261 701 q 253 490 261 585 q 232 300 244 394 l 151 300 q 131 490 139 394 q 122 701 122 585 l 122 963 l 261 963 l 261 701 m 285 75 q 260 10 285 38 q 192 -18 235 -18 q 124 10 149 -18 q 99 75 99 38 q 124 140 99 113 q 192 168 149 168 q 260 140 235 168 q 285 75 285 113 z "},"\"":{"ha":581,"x_min":100,"x_max":481,"o":"m 235 1056 l 235 986 q 226 844 235 918 q 206 696 218 769 l 129 696 q 108 844 117 769 q 100 988 100 918 l 100 1056 l 235 1056 m 481 1056 l 481 986 q 472 844 481 918 q 451 696 464 769 l 375 696 q 354 844 363 769 q 346 988 346 918 l 346 1056 l 481 1056 z "},"#":{"ha":926,"x_min":68,"x_max":858,"o":"m 394 708 l 619 708 l 668 963 l 785 963 l 736 708 l 858 708 l 858 606 l 715 606 l 668 357 l 858 357 l 858 254 l 649 254 l 600 0 l 483 0 l 532 254 l 307 254 l 258 0 l 142 0 l 190 254 l 68 254 l 68 357 l 210 357 l 257 606 l 68 606 l 68 708 l 278 708 l 326 963 l 443 963 l 394 708 m 326 357 l 551 357 l 600 606 l 375 606 l 326 357 z "},"$":{"ha":783,"x_min":85,"x_max":694,"o":"m 364 132 q 514 166 471 132 q 557 253 557 200 q 538 319 557 292 q 488 368 519 347 q 416 406 457 389 q 332 438 375 422 q 249 472 290 453 q 176 517 208 490 q 124 583 144 544 q 104 676 104 621 q 163 838 104 775 q 335 918 222 901 l 335 1078 l 450 1078 l 450 922 q 564 907 511 919 q 647 883 617 894 l 621 775 q 538 801 588 788 q 413 814 488 814 q 284 782 329 814 q 239 692 239 750 q 252 638 239 660 q 290 598 265 615 q 349 567 315 581 q 425 538 383 553 q 528 494 479 517 q 613 441 576 472 q 672 367 650 410 q 694 263 694 324 q 635 103 694 164 q 450 28 575 43 l 450 -151 l 335 -151 l 335 24 q 176 45 238 26 q 85 81 115 64 l 119 185 q 219 149 161 165 q 364 132 278 132 z "},"%":{"ha":1192,"x_min":69,"x_max":1122,"o":"m 69 728 q 86 838 69 790 q 133 917 103 885 q 203 967 163 950 q 290 983 243 983 q 378 967 338 983 q 448 917 418 950 q 494 838 478 885 q 511 728 511 790 q 494 618 511 665 q 448 538 478 571 q 378 489 418 506 q 290 472 338 472 q 203 489 243 472 q 133 538 163 506 q 86 618 103 571 q 69 728 69 665 m 403 728 q 374 845 403 803 q 290 888 344 888 q 207 845 236 888 q 178 728 178 803 q 207 610 178 653 q 290 568 236 568 q 374 610 344 568 q 403 728 403 653 m 681 235 q 697 344 681 297 q 744 424 714 392 q 814 474 774 457 q 901 490 854 490 q 989 474 949 490 q 1059 424 1029 457 q 1106 344 1089 392 q 1122 235 1122 297 q 1106 125 1122 172 q 1059 45 1089 78 q 989 -4 1029 13 q 901 -21 949 -21 q 814 -4 854 -21 q 744 45 774 13 q 697 125 714 78 q 681 235 681 172 m 1014 235 q 985 352 1014 310 q 901 394 956 394 q 818 352 847 394 q 789 235 789 310 q 818 117 789 160 q 901 75 847 75 q 985 117 956 75 q 1014 235 1014 160 m 931 963 l 388 0 l 261 0 l 804 963 l 931 963 z "},"&":{"ha":925,"x_min":64,"x_max":910,"o":"m 64 256 q 81 352 64 310 q 126 428 97 394 q 192 488 154 463 q 269 533 229 514 q 167 746 167 636 q 185 846 167 801 q 237 921 204 890 q 315 968 269 951 q 414 985 360 985 q 513 968 469 985 q 587 924 557 951 q 632 857 617 896 q 647 775 647 818 q 631 688 647 726 q 588 617 615 649 q 526 558 561 585 q 453 511 492 532 l 678 282 q 739 476 725 369 l 846 463 q 817 338 840 406 q 753 204 794 271 q 842 100 801 151 q 910 0 883 49 l 774 0 q 733 57 757 28 q 682 115 708 86 q 550 23 625 58 q 378 -12 475 -12 q 228 13 288 -12 q 131 78 168 39 q 79 165 94 118 q 64 256 64 213 m 193 258 q 203 204 193 233 q 235 151 213 175 q 292 110 257 126 q 381 94 328 94 q 506 119 449 94 q 608 190 564 144 l 338 464 q 287 435 313 451 q 240 394 261 418 q 206 336 219 369 q 193 258 193 303 m 531 771 q 499 851 531 818 q 414 883 468 883 q 320 847 353 883 q 288 756 288 810 q 382 579 288 665 q 440 613 413 594 q 487 654 467 631 q 519 706 507 678 q 531 771 531 735 z "},"'":{"ha":335,"x_min":100,"x_max":235,"o":"m 235 1056 l 235 986 q 226 844 235 918 q 206 696 218 769 l 129 696 q 108 844 117 769 q 100 988 100 918 l 100 1056 l 235 1056 z "},"(":{"ha":450,"x_min":108,"x_max":440,"o":"m 238 415 q 289 86 238 238 q 440 -194 340 -65 l 349 -257 q 174 47 240 -125 q 108 415 108 218 q 174 784 108 613 q 349 1088 240 956 l 440 1025 q 289 744 340 896 q 238 415 238 593 z "},")":{"ha":450,"x_min":10,"x_max":342,"o":"m 213 415 q 161 744 213 593 q 10 1025 110 896 l 101 1088 q 276 784 210 956 q 342 415 342 613 q 276 47 342 218 q 101 -257 210 -125 l 10 -194 q 161 86 110 -65 q 213 415 213 238 z "},"*":{"ha":667,"x_min":51,"x_max":615,"o":"m 396 951 q 385 840 396 893 q 364 729 375 786 q 463 783 414 757 q 568 829 511 810 l 576 832 l 615 715 l 604 711 q 493 684 549 690 q 379 674 438 678 q 465 598 425 635 q 540 513 506 561 l 547 503 l 446 432 l 440 440 q 383 540 407 490 q 333 642 358 589 q 284 540 308 589 q 226 440 260 490 l 221 432 l 119 503 l 126 513 q 201 598 161 561 q 288 674 242 635 q 174 684 229 678 q 63 711 118 690 l 51 715 l 90 832 l 99 829 q 204 783 156 810 q 303 729 253 757 q 281 840 292 786 q 271 951 271 893 l 271 963 l 396 963 l 396 951 z "},"+":{"ha":783,"x_min":74,"x_max":710,"o":"m 74 471 l 336 471 l 336 757 l 447 757 l 447 471 l 710 471 l 710 361 l 447 361 l 447 74 l 336 74 l 336 361 l 74 361 l 74 471 z "},",":{"ha":342,"x_min":53,"x_max":249,"o":"m 247 158 q 249 137 249 147 q 249 115 249 126 q 223 -58 249 28 q 153 -221 197 -143 l 53 -189 q 99 -45 88 -118 q 110 92 110 28 q 109 126 110 110 q 107 158 108 143 l 247 158 z "},"-":{"ha":415,"x_min":36,"x_max":379,"o":"m 36 476 l 379 476 l 379 356 l 36 356 l 36 476 z "},".":{"ha":342,"x_min":78,"x_max":264,"o":"m 264 75 q 239 10 264 38 q 171 -18 214 -18 q 103 10 128 -18 q 78 75 78 38 q 103 140 78 113 q 171 168 128 168 q 239 140 214 168 q 264 75 264 113 z "},"/":{"ha":533,"x_min":-33,"x_max":567,"o":"m 99 -257 l -33 -257 l 438 1088 l 567 1088 l 99 -257 z "},":":{"ha":342,"x_min":78,"x_max":264,"o":"m 264 75 q 239 10 264 38 q 171 -18 214 -18 q 103 10 128 -18 q 78 75 78 38 q 103 140 78 113 q 171 168 128 168 q 239 140 214 168 q 264 75 264 113 m 264 629 q 239 564 264 592 q 171 536 214 536 q 103 564 128 536 q 78 629 78 592 q 103 694 78 667 q 171 722 128 722 q 239 694 214 722 q 264 629 264 667 z "},";":{"ha":342,"x_min":53,"x_max":264,"o":"m 247 158 q 249 137 249 147 q 249 115 249 126 q 223 -58 249 28 q 153 -221 197 -143 l 53 -189 q 99 -45 88 -118 q 110 92 110 28 q 109 126 110 110 q 107 158 108 143 l 247 158 m 264 629 q 239 564 264 592 q 171 536 214 536 q 103 564 128 536 q 78 629 78 592 q 103 694 78 667 q 171 722 128 722 q 239 694 214 722 q 264 629 264 667 z "},"<":{"ha":783,"x_min":74,"x_max":710,"o":"m 217 415 l 710 213 l 674 106 l 74 360 l 74 471 l 674 725 l 710 618 l 217 415 z "},"=":{"ha":783,"x_min":74,"x_max":710,"o":"m 74 322 l 710 322 l 710 213 l 74 213 l 74 322 m 74 618 l 710 618 l 710 508 l 74 508 l 74 618 z "},">":{"ha":783,"x_min":74,"x_max":710,"o":"m 74 618 l 110 725 l 710 471 l 710 360 l 110 106 l 74 213 l 567 415 l 74 618 z "},"?":{"ha":561,"x_min":26,"x_max":524,"o":"m 242 876 q 63 829 150 876 l 26 929 q 133 969 74 954 q 258 985 192 985 q 388 963 338 985 q 469 908 439 942 q 512 834 500 875 q 524 756 524 793 q 506 672 524 708 q 461 603 488 635 q 403 542 435 571 q 344 481 371 513 q 300 413 318 450 q 282 331 282 376 q 282 315 282 324 q 283 300 282 307 l 175 300 q 169 358 169 328 q 185 439 169 403 q 226 506 201 475 q 279 565 251 538 q 332 619 307 592 q 373 678 357 647 q 389 744 389 708 q 351 840 389 803 q 242 876 314 876 m 329 75 q 304 10 329 38 q 236 -18 279 -18 q 168 10 193 -18 q 143 75 143 38 q 168 140 143 113 q 236 168 193 168 q 304 140 279 168 q 329 75 329 113 z "},"@":{"ha":1319,"x_min":90,"x_max":1229,"o":"m 958 60 q 885 72 914 60 q 836 106 856 85 q 763 77 806 89 q 676 65 719 65 q 555 86 610 65 q 460 148 500 107 q 397 249 419 189 q 375 388 375 308 q 396 513 375 454 q 458 616 417 572 q 558 685 499 660 q 692 710 617 710 q 822 699 763 710 q 913 676 881 688 l 913 251 q 928 189 913 207 q 968 171 943 171 q 1031 196 1004 171 q 1076 261 1058 221 q 1101 352 1093 301 q 1110 456 1110 403 q 1079 620 1110 543 q 992 756 1049 697 q 853 847 935 814 q 671 881 772 881 q 485 847 569 881 q 339 749 400 813 q 244 594 278 686 q 210 386 210 503 q 246 172 210 264 q 347 17 282 79 q 499 -76 411 -44 q 693 -107 588 -107 q 828 -97 775 -107 q 897 -82 882 -87 l 911 -185 q 826 -203 888 -193 q 693 -212 764 -212 q 460 -177 569 -212 q 268 -69 350 -142 q 138 117 186 4 q 90 386 90 231 q 138 649 90 536 q 265 835 185 761 q 449 947 344 910 q 671 985 554 985 q 886 948 785 985 q 1064 841 988 911 q 1185 672 1140 771 q 1229 447 1229 572 q 1208 281 1229 353 q 1150 159 1186 208 q 1064 85 1114 110 q 958 60 1014 60 m 681 172 q 740 178 710 172 q 793 197 769 185 q 788 233 789 215 q 786 268 786 251 l 786 594 q 754 600 778 597 q 701 603 731 603 q 554 542 603 603 q 506 388 506 481 q 553 231 506 289 q 681 172 600 172 z "},"A":{"ha":921,"x_min":11,"x_max":910,"o":"m 763 0 q 718 123 739 63 q 675 246 697 183 l 239 246 l 151 0 l 11 0 q 115 283 67 153 q 210 529 164 413 q 303 752 257 646 q 399 963 349 858 l 522 963 q 618 752 572 858 q 710 529 664 646 q 806 283 757 413 q 910 0 854 153 l 763 0 m 636 357 q 548 591 592 478 q 457 808 504 704 q 365 591 408 704 q 278 357 321 478 l 636 357 z "},"B":{"ha":893,"x_min":119,"x_max":822,"o":"m 379 -8 q 316 -7 350 -8 q 248 -3 282 -6 q 181 4 214 0 q 119 15 147 8 l 119 949 q 181 960 147 956 q 248 967 214 964 q 315 971 282 969 q 378 972 349 972 q 534 960 461 972 q 660 917 607 947 q 744 839 714 888 q 775 719 775 790 q 738 590 775 640 q 638 514 700 539 q 772 435 722 489 q 822 282 822 381 q 716 65 822 138 q 379 -8 610 -8 m 253 449 l 253 110 q 289 107 268 108 q 331 105 307 106 q 388 104 356 104 q 501 112 447 104 q 594 139 554 119 q 659 193 635 158 q 683 281 683 228 q 665 360 683 328 q 613 413 647 393 q 532 440 579 432 q 426 449 485 449 l 253 449 m 253 557 l 394 557 q 489 564 444 557 q 566 589 533 571 q 617 636 599 607 q 636 710 636 665 q 617 780 636 751 q 563 826 597 808 q 483 851 529 843 q 386 860 438 860 q 306 858 335 860 q 253 854 276 857 l 253 557 z "},"C":{"ha":861,"x_min":81,"x_max":826,"o":"m 533 -21 q 349 13 432 -21 q 206 110 265 46 q 113 267 146 174 q 81 482 81 361 q 117 697 81 603 q 217 854 154 790 q 363 951 279 918 q 540 985 446 985 q 648 976 600 985 q 731 957 696 968 q 789 935 767 946 q 819 918 811 924 l 781 807 q 744 825 768 815 q 691 844 721 835 q 626 860 661 854 q 554 867 590 867 q 417 840 478 867 q 313 764 356 814 q 247 642 269 714 q 224 482 224 571 q 244 325 224 396 q 304 203 264 254 q 405 125 344 153 q 546 97 465 97 q 700 117 639 97 q 792 151 761 136 l 826 40 q 792 23 817 33 q 729 3 767 13 q 642 -14 692 -7 q 533 -21 592 -21 z "},"D":{"ha":990,"x_min":119,"x_max":910,"o":"m 910 482 q 871 265 910 357 q 761 112 832 172 q 592 22 690 51 q 375 -8 493 -8 q 247 -3 317 -8 q 119 15 176 1 l 119 949 q 247 967 176 963 q 375 972 317 972 q 592 942 493 972 q 761 852 690 913 q 871 699 832 792 q 910 482 910 607 m 386 110 q 672 208 578 110 q 767 482 767 306 q 672 756 767 658 q 386 854 578 854 q 298 853 329 854 q 254 850 267 851 l 254 114 q 298 111 267 113 q 386 110 329 110 z "},"E":{"ha":793,"x_min":119,"x_max":742,"o":"m 119 0 l 119 963 l 707 963 l 707 847 l 254 847 l 254 561 l 657 561 l 657 449 l 254 449 l 254 115 l 742 115 l 742 0 l 119 0 z "},"F":{"ha":746,"x_min":119,"x_max":700,"o":"m 119 0 l 119 963 l 700 963 l 700 847 l 254 847 l 254 557 l 650 557 l 650 443 l 254 443 l 254 0 l 119 0 z "},"G":{"ha":933,"x_min":81,"x_max":842,"o":"m 707 474 l 842 474 l 842 24 q 794 11 825 18 q 722 -3 763 4 q 632 -15 681 -10 q 533 -19 583 -19 q 349 14 432 -19 q 206 111 265 47 q 113 268 146 175 q 81 482 81 361 q 117 697 81 603 q 217 854 154 790 q 363 951 279 918 q 543 985 447 985 q 659 976 608 985 q 746 957 710 968 q 805 935 782 946 q 836 918 828 924 l 793 806 q 686 849 753 832 q 550 867 619 867 q 416 840 476 867 q 313 764 356 814 q 247 642 271 714 q 224 482 224 571 q 244 325 224 396 q 305 203 264 254 q 406 125 346 153 q 549 97 467 97 q 648 103 607 97 q 707 115 689 110 l 707 474 z "},"H":{"ha":979,"x_min":119,"x_max":860,"o":"m 725 963 l 860 963 l 860 0 l 725 0 l 725 444 l 254 444 l 254 0 l 119 0 l 119 963 l 254 963 l 254 561 l 725 561 l 725 963 z "},"I":{"ha":374,"x_min":119,"x_max":254,"o":"m 119 963 l 254 963 l 254 0 l 119 0 l 119 963 z "},"J":{"ha":694,"x_min":11,"x_max":582,"o":"m 582 310 q 567 181 582 240 q 516 76 553 121 q 417 5 479 31 q 263 -21 356 -21 q 176 -13 215 -21 q 104 6 136 -6 q 49 31 72 18 q 11 57 25 44 l 64 164 q 140 120 93 143 q 256 97 186 97 q 401 148 356 97 q 447 322 447 199 l 447 963 l 582 963 l 582 310 z "},"K":{"ha":874,"x_min":119,"x_max":865,"o":"m 832 963 q 735 858 789 915 q 622 740 681 800 q 504 621 563 679 q 394 513 446 563 q 521 410 454 471 q 651 279 588 349 q 772 138 715 210 q 865 0 828 65 l 707 0 q 611 131 665 65 q 497 258 557 197 q 374 369 436 318 q 254 457 313 421 l 254 0 l 119 0 l 119 963 l 254 963 l 254 538 q 361 641 303 583 q 476 757 419 699 q 584 869 533 815 q 669 963 635 922 l 832 963 z "},"L":{"ha":721,"x_min":119,"x_max":699,"o":"m 699 117 l 699 0 l 119 0 l 119 963 l 254 963 l 254 117 l 699 117 z "},"M":{"ha":1210,"x_min":93,"x_max":1118,"o":"m 551 133 q 515 218 538 167 q 465 329 492 269 q 409 452 439 389 q 353 572 379 515 q 303 672 326 628 q 267 740 281 717 q 242 385 251 576 q 225 0 232 194 l 93 0 q 106 252 99 125 q 122 502 113 379 q 141 742 131 625 q 164 963 151 858 l 282 963 q 363 818 319 901 q 449 644 406 735 q 532 462 492 553 q 606 296 572 371 q 679 462 639 371 q 763 644 719 553 q 849 818 806 735 q 929 963 892 901 l 1047 963 q 1118 0 1094 497 l 986 0 q 969 385 979 194 q 944 740 960 576 q 908 672 931 717 q 858 572 885 628 q 802 452 832 515 q 746 329 772 389 q 697 218 719 269 q 660 133 674 167 l 551 133 z "},"N":{"ha":1011,"x_min":119,"x_max":892,"o":"m 779 0 q 709 115 749 51 q 624 248 669 179 q 528 388 578 317 q 431 524 479 458 q 336 649 382 590 q 251 751 290 707 l 251 0 l 119 0 l 119 963 l 226 963 q 366 801 292 893 q 513 610 440 708 q 651 418 586 513 q 760 250 715 324 l 760 963 l 892 963 l 892 0 l 779 0 z "},"O":{"ha":1081,"x_min":81,"x_max":1000,"o":"m 81 482 q 117 700 81 606 q 217 858 154 794 q 365 953 281 921 q 543 985 449 985 q 719 953 636 985 q 864 858 801 921 q 963 700 926 794 q 1000 482 1000 606 q 963 264 1000 358 q 864 106 926 169 q 719 11 801 43 q 543 -21 636 -21 q 365 11 449 -21 q 217 106 281 43 q 117 264 154 169 q 81 482 81 358 m 222 482 q 244 323 222 394 q 308 201 267 251 q 408 124 349 151 q 540 97 467 97 q 672 124 614 97 q 772 201 731 151 q 835 323 813 251 q 857 482 857 394 q 835 641 857 569 q 772 763 813 713 q 672 840 731 813 q 540 867 614 867 q 408 840 467 867 q 308 763 349 813 q 244 641 267 713 q 222 482 222 569 z "},"P":{"ha":844,"x_min":119,"x_max":796,"o":"m 375 972 q 687 895 578 972 q 796 665 796 818 q 766 523 796 582 q 680 427 736 464 q 543 374 624 390 q 361 357 463 357 l 254 357 l 254 0 l 119 0 l 119 949 q 247 967 176 963 q 375 972 317 972 m 386 854 q 254 850 300 854 l 254 472 l 356 472 q 481 481 425 472 q 574 512 536 490 q 633 571 613 533 q 654 667 654 608 q 633 758 654 722 q 574 816 611 794 q 489 846 538 838 q 386 854 440 854 z "},"Q":{"ha":1081,"x_min":81,"x_max":1000,"o":"m 81 482 q 117 700 81 606 q 217 858 154 794 q 365 953 281 921 q 543 985 449 985 q 719 953 636 985 q 864 858 801 921 q 963 700 926 794 q 1000 482 1000 606 q 972 289 1000 374 q 895 142 944 204 q 780 42 846 81 q 639 -10 714 4 q 667 -66 640 -42 q 736 -107 694 -90 q 829 -135 778 -124 q 932 -151 881 -146 l 900 -257 q 762 -231 828 -247 q 642 -189 696 -215 q 553 -122 589 -162 q 504 -19 517 -81 q 339 22 417 -14 q 204 120 261 57 q 114 274 147 183 q 81 482 81 364 m 222 482 q 244 323 222 394 q 308 201 267 251 q 408 124 349 151 q 540 97 467 97 q 672 124 614 97 q 772 201 731 151 q 835 323 813 251 q 857 482 857 394 q 835 641 857 569 q 772 763 813 713 q 672 840 731 813 q 540 867 614 867 q 408 840 467 867 q 308 763 349 813 q 244 641 267 713 q 222 482 222 569 z "},"R":{"ha":874,"x_min":119,"x_max":849,"o":"m 590 403 q 647 330 613 375 q 717 230 681 285 q 788 115 753 175 q 849 0 824 56 l 701 0 q 641 107 674 53 q 575 210 608 161 q 509 303 542 260 q 450 378 476 346 q 413 376 432 376 q 375 376 394 376 l 254 376 l 254 0 l 119 0 l 119 949 q 247 967 176 963 q 375 972 317 972 q 684 896 578 972 q 790 668 790 819 q 740 504 790 572 q 590 403 689 436 m 386 854 q 254 850 300 854 l 254 488 l 350 488 q 475 494 419 488 q 569 521 531 501 q 628 576 607 540 q 649 669 649 611 q 628 760 649 724 q 572 817 607 796 q 488 846 536 838 q 386 854 440 854 z "},"S":{"ha":739,"x_min":46,"x_max":696,"o":"m 343 96 q 554 240 554 96 q 535 316 554 285 q 485 370 517 347 q 412 410 453 393 q 325 443 371 426 q 225 484 272 461 q 143 538 178 507 q 88 613 108 569 q 68 717 68 656 q 154 914 68 843 q 392 985 240 985 q 551 966 479 985 q 656 925 622 947 l 613 815 q 526 851 583 833 q 392 868 468 868 q 319 860 353 868 q 261 835 286 851 q 222 792 236 818 q 207 732 207 767 q 222 667 207 693 q 265 620 238 640 q 330 583 293 600 q 411 550 367 567 q 526 500 474 525 q 616 440 578 475 q 675 358 654 406 q 696 242 696 310 q 603 47 696 115 q 343 -21 511 -21 q 238 -13 286 -21 q 153 5 190 -6 q 88 27 115 15 q 46 47 61 39 l 86 158 q 183 118 118 140 q 343 96 249 96 z "},"T":{"ha":785,"x_min":22,"x_max":763,"o":"m 763 963 l 763 846 l 460 846 l 460 0 l 325 0 l 325 846 l 22 846 l 22 963 l 763 963 z "},"U":{"ha":956,"x_min":113,"x_max":843,"o":"m 478 -21 q 314 8 383 -21 q 200 88 244 38 q 134 208 156 139 q 113 358 113 278 l 113 963 l 247 963 l 247 374 q 311 164 247 229 q 478 99 375 99 q 572 115 529 99 q 644 164 614 131 q 692 249 675 197 q 708 374 708 301 l 708 963 l 843 963 l 843 358 q 822 208 843 278 q 755 88 800 139 q 641 8 710 38 q 478 -21 572 -21 z "},"V":{"ha":911,"x_min":14,"x_max":897,"o":"m 897 963 q 797 680 844 810 q 703 433 749 550 q 612 210 657 317 q 519 0 567 104 l 393 0 q 301 210 346 104 q 209 433 256 317 q 114 680 163 550 q 14 963 65 810 l 163 963 q 310 540 238 743 q 458 160 382 338 q 607 540 535 336 q 753 963 679 743 l 897 963 z "},"W":{"ha":1290,"x_min":39,"x_max":1251,"o":"m 646 653 q 528 308 588 467 q 408 0 468 150 l 274 0 q 144 449 200 213 q 39 963 88 685 l 181 963 q 221 746 200 854 q 264 535 242 638 q 308 340 286 433 q 354 168 331 247 q 472 488 410 314 q 589 849 535 663 l 706 849 q 824 488 760 663 q 943 168 888 314 q 988 339 965 246 q 1031 534 1010 432 q 1074 745 1053 636 q 1114 963 1094 854 l 1251 963 q 1145 449 1201 685 q 1017 0 1089 213 l 882 0 q 763 308 821 150 q 646 653 704 467 z "},"X":{"ha":876,"x_min":32,"x_max":849,"o":"m 697 0 q 647 92 676 42 q 583 198 618 143 q 511 308 549 253 q 439 411 474 363 q 367 308 404 363 q 295 198 329 253 q 231 92 261 143 q 181 0 201 42 l 32 0 q 177 249 94 122 q 353 508 260 375 l 44 963 l 200 963 l 438 604 l 672 963 l 826 963 l 524 514 q 701 251 618 379 q 849 0 785 124 l 697 0 z "},"Y":{"ha":831,"x_min":8,"x_max":822,"o":"m 349 0 l 349 386 q 168 679 253 535 q 8 963 83 824 l 167 963 q 285 731 219 849 q 419 506 350 614 q 553 731 488 614 q 672 963 618 849 l 822 963 q 663 680 747 824 q 483 389 578 536 l 483 0 l 349 0 z "},"Z":{"ha":796,"x_min":46,"x_max":744,"o":"m 731 856 q 656 769 699 819 q 567 656 614 718 q 469 526 519 594 q 372 387 419 457 q 281 247 324 317 q 203 115 238 178 l 744 115 l 744 0 l 46 0 l 46 90 q 115 213 75 146 q 199 349 154 279 q 293 489 244 418 q 390 625 342 560 q 483 747 438 690 q 565 847 528 804 l 71 847 l 71 963 l 731 963 l 731 856 z "},"[":{"ha":457,"x_min":133,"x_max":446,"o":"m 133 1088 l 446 1088 l 446 986 l 254 986 l 254 -156 l 446 -156 l 446 -257 l 133 -257 l 133 1088 z "},"\\":{"ha":533,"x_min":-33,"x_max":567,"o":"m -33 1088 l 96 1088 l 567 -257 l 435 -257 l -33 1088 z "},"]":{"ha":457,"x_min":11,"x_max":324,"o":"m 324 -257 l 11 -257 l 11 -156 l 203 -156 l 203 986 l 11 986 l 11 1088 l 324 1088 l 324 -257 z "},"^":{"ha":783,"x_min":65,"x_max":718,"o":"m 449 963 l 718 490 l 615 438 l 392 829 l 168 438 l 65 490 l 335 963 l 449 963 z "},"_":{"ha":683,"x_min":-6,"x_max":689,"o":"m -6 -147 l 689 -147 l 689 -257 l -6 -257 l -6 -147 z "},"`":{"ha":522,"x_min":85,"x_max":346,"o":"m 168 1078 l 346 864 l 281 806 l 85 996 l 168 1078 z "},"a":{"ha":725,"x_min":60,"x_max":622,"o":"m 356 93 q 437 95 401 93 q 496 103 472 97 l 496 318 q 451 330 482 325 q 375 335 419 335 q 313 331 346 335 q 253 313 281 326 q 208 277 226 300 q 190 217 190 254 q 235 120 190 147 q 356 93 279 93 m 344 740 q 476 720 422 740 q 562 663 529 700 q 608 576 594 626 q 622 464 622 525 l 622 13 q 576 5 606 10 q 508 -4 546 0 q 427 -12 471 -8 q 340 -15 383 -15 q 228 -3 279 -15 q 139 37 176 10 q 81 108 101 64 q 60 215 60 153 q 84 318 60 275 q 150 388 108 361 q 247 426 192 414 q 364 439 303 439 q 404 437 383 439 q 444 431 425 435 q 476 425 463 428 q 496 421 490 422 l 496 457 q 489 520 496 489 q 464 576 482 551 q 415 615 446 600 q 333 629 383 629 q 222 620 269 629 q 150 601 174 611 l 135 708 q 218 730 160 719 q 344 740 276 740 z "},"b":{"ha":818,"x_min":111,"x_max":747,"o":"m 240 690 q 312 722 264 706 q 422 739 360 739 q 560 711 500 739 q 663 633 621 683 q 726 514 704 583 q 747 361 747 444 q 722 203 747 274 q 649 85 696 133 q 535 10 601 36 q 385 -17 468 -17 q 225 -4 294 -17 q 111 21 156 8 l 111 1056 l 240 1078 l 240 690 m 240 113 q 295 102 260 107 q 383 97 331 97 q 550 166 488 97 q 613 361 613 235 q 601 465 613 417 q 565 549 590 514 q 501 605 540 585 q 406 625 461 625 q 308 607 353 625 q 240 569 264 589 l 240 113 z "},"c":{"ha":646,"x_min":71,"x_max":618,"o":"m 425 -17 q 272 11 338 -17 q 160 89 206 39 q 93 208 115 139 q 71 360 71 276 q 95 513 71 443 q 164 633 119 582 q 273 712 208 683 q 417 740 338 740 q 514 732 465 740 q 607 706 563 724 l 578 596 q 510 618 549 610 q 429 626 472 626 q 263 558 321 626 q 206 360 206 490 q 219 253 206 301 q 260 169 232 204 q 333 116 289 135 q 442 97 378 97 q 535 107 493 97 q 600 128 576 117 l 618 19 q 586 6 607 13 q 539 -5 565 0 q 483 -13 513 -10 q 425 -17 453 -17 z "},"d":{"ha":818,"x_min":71,"x_max":707,"o":"m 578 569 q 510 607 554 589 q 413 625 465 625 q 317 605 357 625 q 253 549 278 585 q 217 465 228 514 q 206 361 206 417 q 268 166 206 235 q 435 97 331 97 q 523 102 488 97 q 578 113 558 107 l 578 569 m 578 1056 l 707 1078 l 707 21 q 593 -4 663 8 q 433 -17 524 -17 q 283 10 350 -17 q 169 85 217 36 q 97 203 122 133 q 71 361 71 274 q 92 514 71 444 q 156 633 114 583 q 258 711 197 683 q 396 739 318 739 q 506 722 458 739 q 578 690 554 706 l 578 1056 z "},"e":{"ha":776,"x_min":71,"x_max":701,"o":"m 71 360 q 99 527 71 456 q 172 646 126 599 q 278 717 218 693 q 400 740 338 740 q 624 649 546 740 q 701 372 701 558 q 701 351 701 364 q 700 326 701 338 l 206 326 q 271 156 214 214 q 449 97 328 97 q 563 109 517 97 q 633 132 610 121 l 651 24 q 569 -3 628 11 q 435 -17 510 -17 q 272 12 340 -17 q 158 90 203 40 q 92 209 114 140 q 71 360 71 278 m 567 431 q 523 574 568 518 q 399 631 478 631 q 320 613 354 631 q 263 568 286 596 q 226 504 239 540 q 208 431 213 468 l 567 431 z "},"f":{"ha":536,"x_min":111,"x_max":549,"o":"m 393 1078 q 491 1069 450 1078 q 549 1054 532 1061 l 525 943 q 478 959 508 951 q 403 967 447 967 q 276 917 313 967 q 240 785 240 868 l 240 722 l 518 722 l 518 614 l 240 614 l 240 0 l 111 0 l 111 788 q 179 1002 111 926 q 393 1078 247 1078 z "},"g":{"ha":803,"x_min":71,"x_max":692,"o":"m 564 72 q 499 44 547 61 q 388 26 451 26 q 265 47 322 26 q 164 112 207 68 q 96 221 121 156 q 71 376 71 286 q 94 522 71 456 q 163 635 118 588 q 274 710 208 683 q 421 738 339 738 q 578 724 511 738 q 692 700 646 711 l 692 56 q 606 -186 692 -111 q 344 -261 519 -261 q 216 -250 276 -261 q 111 -224 156 -239 l 135 -111 q 230 -138 174 -126 q 347 -150 286 -150 q 513 -104 463 -150 q 564 42 564 -58 l 564 72 m 563 608 q 510 619 543 614 q 422 624 478 624 q 262 556 318 624 q 206 375 206 488 q 222 268 206 313 q 265 194 238 224 q 327 151 292 165 q 400 138 363 138 q 494 152 451 138 q 563 186 538 167 l 563 608 z "},"h":{"ha":793,"x_min":111,"x_max":694,"o":"m 111 0 l 111 1056 l 240 1078 l 240 708 q 317 730 276 722 q 399 738 358 738 q 542 713 485 738 q 633 645 599 689 q 681 540 667 601 q 694 406 694 479 l 694 0 l 565 0 l 565 378 q 556 492 565 444 q 526 568 547 539 q 471 610 506 597 q 385 624 436 624 q 342 621 364 624 q 299 615 319 618 q 263 607 279 611 q 240 600 247 603 l 240 0 l 111 0 z "},"i":{"ha":351,"x_min":92,"x_max":258,"o":"m 240 0 l 111 0 l 111 722 l 240 722 l 240 0 m 175 853 q 116 876 140 853 q 92 938 92 899 q 116 999 92 976 q 175 1022 140 1022 q 234 999 210 1022 q 258 938 258 976 q 234 876 258 899 q 175 853 210 853 z "},"j":{"ha":351,"x_min":-94,"x_max":258,"o":"m -7 -260 q -50 -256 -24 -260 q -94 -244 -76 -251 l -78 -139 q -46 -146 -64 -143 q -12 -149 -28 -149 q 83 -108 54 -149 q 111 13 111 -67 l 111 722 l 240 722 l 240 14 q 177 -192 240 -125 q -7 -260 114 -260 m 175 853 q 116 876 140 853 q 92 938 92 899 q 116 999 92 976 q 175 1022 140 1022 q 234 999 210 1022 q 258 938 258 976 q 234 876 258 899 q 175 853 210 853 z "},"k":{"ha":725,"x_min":111,"x_max":706,"o":"m 372 397 q 460 318 414 365 q 552 216 507 271 q 638 105 597 161 q 706 0 678 49 l 554 0 q 487 99 525 49 q 407 197 449 150 q 322 282 365 243 q 240 347 279 321 l 240 0 l 111 0 l 111 1056 l 240 1078 l 240 419 q 314 493 274 453 q 393 575 354 533 q 467 655 432 617 q 526 722 501 693 l 678 722 q 608 646 646 688 q 531 562 571 604 q 449 477 490 519 q 372 397 408 435 z "},"l":{"ha":379,"x_min":108,"x_max":346,"o":"m 328 -14 q 158 38 208 -11 q 108 189 108 86 l 108 1056 l 238 1078 l 238 210 q 243 157 238 178 q 261 124 249 136 q 294 105 274 111 q 346 94 315 99 l 328 -14 z "},"m":{"ha":1196,"x_min":111,"x_max":1093,"o":"m 111 701 q 228 725 156 713 q 397 738 301 738 q 514 719 467 738 q 593 664 561 700 q 624 683 603 671 q 675 708 644 696 q 743 728 706 719 q 824 738 781 738 q 960 713 907 738 q 1042 644 1013 689 q 1083 539 1072 600 q 1093 406 1093 478 l 1093 0 l 964 0 l 964 378 q 958 488 964 442 q 934 564 951 533 q 887 609 917 594 q 810 624 857 624 q 702 606 744 624 q 644 575 660 589 q 661 496 656 539 q 667 406 667 453 l 667 0 l 538 0 l 538 378 q 531 488 538 442 q 506 564 524 533 q 459 609 489 594 q 383 624 429 624 q 342 622 364 624 q 299 619 319 621 q 263 614 279 617 q 240 610 246 611 l 240 0 l 111 0 l 111 701 z "},"n":{"ha":797,"x_min":111,"x_max":694,"o":"m 111 701 q 229 725 156 713 q 399 738 303 738 q 542 713 485 738 q 633 645 599 689 q 681 540 667 601 q 694 406 694 479 l 694 0 l 565 0 l 565 378 q 556 492 565 444 q 526 568 547 539 q 471 610 506 597 q 385 624 436 624 q 342 622 364 624 q 299 619 319 621 q 263 614 279 617 q 240 610 247 611 l 240 0 l 111 0 l 111 701 z "},"o":{"ha":819,"x_min":71,"x_max":749,"o":"m 749 361 q 724 206 749 275 q 653 86 699 136 q 546 9 608 36 q 410 -18 483 -18 q 274 9 336 -18 q 166 86 211 36 q 96 206 121 136 q 71 361 71 275 q 96 516 71 446 q 166 636 121 586 q 274 713 211 686 q 410 740 336 740 q 546 713 483 740 q 653 636 608 686 q 724 516 699 586 q 749 361 749 446 m 614 361 q 559 555 614 483 q 410 626 504 626 q 260 555 315 626 q 206 361 206 483 q 260 167 206 239 q 410 96 315 96 q 559 167 504 96 q 614 361 614 239 z "},"p":{"ha":818,"x_min":111,"x_max":747,"o":"m 613 360 q 550 554 613 486 q 383 622 488 622 q 292 618 325 622 q 240 608 260 614 l 240 153 q 308 115 264 133 q 406 97 353 97 q 501 117 461 97 q 565 173 540 138 q 601 256 590 208 q 613 360 613 304 m 747 360 q 726 208 747 278 q 663 89 704 139 q 560 11 621 39 q 422 -17 500 -17 q 312 0 360 -17 q 240 32 264 17 l 240 -257 l 111 -257 l 111 700 q 226 724 157 711 q 385 738 294 738 q 535 711 468 738 q 649 636 601 685 q 722 517 696 588 q 747 360 747 447 z "},"q":{"ha":818,"x_min":71,"x_max":707,"o":"m 206 360 q 217 256 206 304 q 253 173 228 208 q 317 117 278 138 q 413 97 357 97 q 510 115 465 97 q 578 153 554 133 l 578 608 q 526 618 558 614 q 435 622 493 622 q 268 554 331 622 q 206 360 206 486 m 71 360 q 97 517 71 447 q 169 636 122 588 q 283 711 217 685 q 433 738 350 738 q 592 724 524 738 q 707 700 661 711 l 707 -257 l 578 -257 l 578 32 q 506 0 554 17 q 396 -17 458 -17 q 258 11 318 -17 q 156 89 197 39 q 92 208 114 139 q 71 360 71 278 z "},"r":{"ha":536,"x_min":111,"x_max":522,"o":"m 378 738 q 416 735 394 738 q 458 730 438 733 q 497 723 479 726 q 522 717 514 719 l 500 604 q 449 617 485 610 q 358 625 414 625 q 287 617 322 625 q 240 607 251 610 l 240 0 l 111 0 l 111 692 q 225 723 157 708 q 378 738 293 738 z "},"s":{"ha":619,"x_min":56,"x_max":565,"o":"m 279 93 q 397 114 358 93 q 435 181 435 135 q 397 256 435 228 q 274 318 360 283 q 194 352 232 335 q 128 393 156 369 q 83 450 100 417 q 67 532 67 483 q 138 684 67 628 q 331 740 208 740 q 392 737 361 740 q 449 728 422 733 q 495 718 475 724 q 526 708 515 713 l 503 597 q 438 620 482 608 q 331 632 393 632 q 236 610 276 632 q 196 543 196 589 q 205 501 196 519 q 233 469 214 483 q 279 442 251 454 q 346 415 307 429 q 438 377 397 396 q 506 333 478 358 q 550 273 535 308 q 565 186 565 238 q 491 35 565 86 q 279 -17 417 -17 q 129 -1 183 -17 q 56 24 75 15 l 79 135 q 150 110 101 126 q 279 93 199 93 z "},"t":{"ha":558,"x_min":103,"x_max":533,"o":"m 232 722 l 506 722 l 506 614 l 232 614 l 232 281 q 240 191 232 226 q 265 135 249 156 q 307 107 282 115 q 365 99 332 99 q 459 112 424 99 q 508 131 494 125 l 533 24 q 465 -1 514 14 q 354 -15 417 -15 q 233 3 281 -15 q 156 60 185 22 q 115 152 126 97 q 103 279 103 207 l 103 924 l 232 946 l 232 722 z "},"u":{"ha":797,"x_min":103,"x_max":686,"o":"m 686 21 q 569 -3 642 10 q 400 -15 496 -15 q 260 9 317 -15 q 168 78 203 33 q 118 183 133 122 q 103 317 103 243 l 103 722 l 232 722 l 232 344 q 274 156 232 213 q 414 99 315 99 q 457 100 435 99 q 499 103 479 101 q 534 108 518 106 q 557 113 550 110 l 557 722 l 686 722 l 686 21 z "},"v":{"ha":697,"x_min":22,"x_max":675,"o":"m 675 722 q 548 333 621 519 q 407 0 475 147 l 290 0 q 149 333 222 147 q 22 722 76 519 l 161 722 q 201 577 178 654 q 249 424 224 500 q 301 278 275 349 q 351 151 328 207 q 401 278 375 207 q 453 424 428 349 q 502 577 479 500 q 542 722 525 654 l 675 722 z "},"w":{"ha":1079,"x_min":25,"x_max":1054,"o":"m 701 0 q 619 228 663 100 q 539 496 575 357 q 460 228 503 357 q 378 0 417 100 l 265 0 q 140 326 201 143 q 25 722 79 510 l 164 722 q 197 581 178 657 q 238 428 217 504 q 283 281 260 351 q 328 157 307 210 q 374 295 351 222 q 418 442 397 368 q 458 588 439 517 q 490 722 476 660 l 597 722 q 628 588 610 660 q 667 442 646 517 q 710 295 688 368 q 757 157 733 222 q 801 281 778 210 q 846 428 824 351 q 888 581 868 504 q 921 722 907 657 l 1054 722 q 939 326 1000 510 q 814 0 878 143 l 701 0 z "},"x":{"ha":710,"x_min":22,"x_max":685,"o":"m 543 0 q 506 68 528 31 q 457 145 483 106 q 403 224 431 185 q 349 297 375 263 q 294 223 322 263 q 241 144 267 183 q 193 67 215 104 q 156 0 171 29 l 22 0 q 138 192 71 94 q 272 379 206 290 l 33 722 l 179 722 l 351 469 l 525 722 l 663 722 l 429 388 q 566 197 496 297 q 685 0 636 96 l 543 0 z "},"y":{"ha":690,"x_min":3,"x_max":665,"o":"m 26 -135 q 66 -148 42 -142 q 114 -154 90 -154 q 233 -120 190 -154 q 311 -10 276 -86 q 148 344 224 157 q 22 722 72 531 l 161 722 q 198 588 176 660 q 246 439 219 515 q 303 286 272 363 q 367 139 333 210 q 458 428 419 285 q 532 722 497 571 l 665 722 q 554 330 615 518 q 422 -22 493 142 q 365 -130 394 -85 q 299 -204 335 -175 q 217 -247 263 -233 q 115 -261 172 -261 q 83 -259 100 -261 q 51 -253 67 -257 q 22 -246 35 -250 q 3 -239 8 -242 l 26 -135 z "},"z":{"ha":654,"x_min":50,"x_max":601,"o":"m 590 625 q 513 535 561 593 q 410 406 465 476 q 301 257 356 335 q 204 108 246 179 l 601 108 l 601 0 l 50 0 l 50 86 q 132 221 83 147 q 234 367 181 294 q 338 505 288 440 q 426 614 389 569 l 69 614 l 69 722 l 590 722 l 590 625 z "},"{":{"ha":463,"x_min":56,"x_max":451,"o":"m 56 465 q 113 477 89 465 q 152 508 136 489 q 176 551 168 526 q 183 600 183 575 l 183 850 q 196 951 183 907 q 239 1026 208 996 q 320 1072 269 1056 q 446 1088 371 1088 l 451 1088 l 451 986 q 338 958 372 986 q 304 849 304 929 l 304 635 q 280 493 304 543 q 211 415 256 443 q 280 338 256 388 q 304 196 304 288 l 304 -18 q 338 -127 304 -99 q 451 -156 372 -156 l 451 -257 l 446 -257 q 320 -242 371 -257 q 239 -196 269 -226 q 196 -121 208 -165 q 183 -19 183 -76 l 183 231 q 176 280 183 256 q 152 323 168 304 q 113 353 136 342 q 56 365 89 365 l 56 465 z "},"|":{"ha":388,"x_min":133,"x_max":254,"o":"m 133 1088 l 254 1088 l 254 -257 l 133 -257 l 133 1088 z "},"}":{"ha":463,"x_min":11,"x_max":407,"o":"m 407 365 q 350 353 374 365 q 310 323 326 342 q 287 280 294 304 q 279 231 279 256 l 279 -19 q 267 -121 279 -76 q 224 -196 254 -165 q 142 -242 193 -226 q 17 -257 92 -257 l 11 -257 l 11 -156 q 124 -127 90 -156 q 158 -18 158 -99 l 158 196 q 183 338 158 288 q 251 415 207 388 q 183 493 207 443 q 158 635 158 543 l 158 849 q 124 958 158 929 q 11 986 90 986 l 11 1088 l 17 1088 q 142 1072 92 1088 q 224 1026 193 1056 q 267 951 254 996 q 279 850 279 907 l 279 600 q 287 551 279 575 q 310 508 294 526 q 350 477 326 489 q 407 465 374 465 l 407 365 z "},"~":{"ha":783,"x_min":58,"x_max":722,"o":"m 722 496 q 705 435 717 468 q 671 372 693 401 q 615 322 649 342 q 532 301 581 301 q 455 318 490 301 q 388 354 419 335 q 315 398 350 376 q 242 419 281 419 q 204 409 219 419 q 178 383 189 399 q 160 348 167 367 q 147 311 153 329 l 58 336 q 76 397 64 363 q 110 460 89 431 q 166 510 132 490 q 249 531 200 531 q 326 514 290 531 q 393 478 361 497 q 465 434 431 456 q 539 413 500 413 q 576 423 561 413 q 603 449 592 433 q 621 484 614 465 q 633 521 628 503 l 722 496 z "},"€":{"ha":783,"x_min":63,"x_max":765,"o":"m 190 656 q 317 899 222 818 q 558 981 411 981 q 660 973 619 981 q 740 953 700 965 l 713 842 q 640 862 679 854 q 558 869 600 869 q 466 854 506 869 q 398 811 426 839 q 351 744 369 783 q 324 656 333 704 l 647 656 l 628 556 l 310 556 q 308 519 308 538 q 308 482 308 501 q 308 447 308 464 q 310 415 308 431 l 600 415 l 581 315 l 321 315 q 406 143 344 192 q 561 94 468 94 q 662 106 619 94 q 738 132 704 117 l 765 22 q 683 -4 742 10 q 554 -18 625 -18 q 303 70 392 -18 q 188 315 214 158 l 63 315 l 63 415 l 176 415 q 175 447 175 431 q 175 482 175 464 q 175 519 175 501 q 176 556 175 538 l 63 556 l 63 656 l 190 656 z "},"‚":{"ha":326,"x_min":46,"x_max":243,"o":"m 243 158 q 243 128 243 143 q 242 100 243 114 q 210 -43 236 28 q 146 -175 183 -114 l 46 -143 q 90 -19 75 -82 q 104 97 104 43 q 103 127 104 111 q 101 158 103 143 l 243 158 z "},"ƒ":{"ha":536,"x_min":-94,"x_max":549,"o":"m 396 1078 q 491 1069 450 1078 q 549 1054 532 1061 l 525 943 q 478 959 510 951 q 407 967 447 967 q 276 918 313 967 q 240 785 240 869 l 240 722 l 518 722 l 518 614 l 240 614 l 240 14 q 177 -192 240 -125 q 1 -260 114 -260 q -94 -244 -56 -260 l -78 -139 q -45 -146 -62 -143 q -10 -149 -28 -149 q 83 -108 56 -149 q 111 13 111 -67 l 111 788 q 178 1002 111 926 q 396 1078 246 1078 z "},"„":{"ha":579,"x_min":46,"x_max":496,"o":"m 243 158 q 243 128 243 143 q 242 100 243 114 q 210 -43 236 28 q 146 -175 183 -114 l 46 -143 q 90 -19 75 -82 q 104 97 104 43 q 103 127 104 111 q 101 158 103 143 l 243 158 m 496 158 q 496 128 496 143 q 494 100 496 114 q 463 -43 489 28 q 399 -175 436 -114 l 299 -143 q 342 -19 328 -82 q 357 97 357 43 q 356 127 357 111 q 354 158 356 143 l 496 158 z "},"…":{"ha":1383,"x_min":136,"x_max":1247,"o":"m 322 75 q 297 10 322 38 q 229 -18 272 -18 q 161 10 186 -18 q 136 75 136 38 q 161 140 136 113 q 229 168 186 168 q 297 140 272 168 q 322 75 322 113 m 785 75 q 760 10 785 38 q 692 -18 735 -18 q 624 10 649 -18 q 599 75 599 38 q 624 140 599 113 q 692 168 649 168 q 760 140 735 168 q 785 75 785 113 m 1247 75 q 1222 10 1247 38 q 1154 -18 1197 -18 q 1086 10 1111 -18 q 1061 75 1061 38 q 1086 140 1061 113 q 1154 168 1111 168 q 1222 140 1197 168 q 1247 75 1247 113 z "},"†":{"ha":661,"x_min":54,"x_max":607,"o":"m 386 554 l 386 200 q 381 -12 386 83 q 363 -201 375 -107 l 299 -201 q 281 -12 286 -107 q 275 200 275 83 l 275 554 l 54 554 l 54 661 l 275 661 l 275 963 l 386 963 l 386 661 l 607 661 l 607 554 l 386 554 z "},"‡":{"ha":661,"x_min":54,"x_max":607,"o":"m 386 186 q 381 -17 386 74 q 363 -201 375 -108 l 299 -201 q 281 -17 286 -108 q 275 186 275 74 l 54 186 l 54 293 l 275 293 l 275 554 l 54 554 l 54 661 l 275 661 l 275 963 l 386 963 l 386 661 l 607 661 l 607 554 l 386 554 l 386 293 l 607 293 l 607 186 l 386 186 z "},"ˆ":{"ha":522,"x_min":72,"x_max":450,"o":"m 261 1068 l 450 869 l 396 808 l 261 931 l 126 808 l 72 869 l 261 1068 z "},"‰":{"ha":1704,"x_min":69,"x_max":1635,"o":"m 69 728 q 86 838 69 790 q 133 917 103 885 q 203 967 163 950 q 290 983 243 983 q 378 967 338 983 q 448 917 418 950 q 494 838 478 885 q 511 728 511 790 q 494 618 511 665 q 448 538 478 571 q 378 489 418 506 q 290 472 338 472 q 203 489 243 472 q 133 538 163 506 q 86 618 103 571 q 69 728 69 665 m 403 728 q 374 845 403 803 q 290 888 344 888 q 207 845 236 888 q 178 728 178 803 q 207 610 178 653 q 290 568 236 568 q 374 610 344 568 q 403 728 403 653 m 681 235 q 697 344 681 297 q 744 424 714 392 q 814 474 774 457 q 901 490 854 490 q 989 474 949 490 q 1059 424 1029 457 q 1106 344 1089 392 q 1122 235 1122 297 q 1106 125 1122 172 q 1059 45 1089 78 q 989 -4 1029 13 q 901 -21 949 -21 q 814 -4 854 -21 q 744 45 774 13 q 697 125 714 78 q 681 235 681 172 m 1014 235 q 985 352 1014 310 q 901 394 956 394 q 818 352 847 394 q 789 235 789 310 q 818 117 789 160 q 901 75 847 75 q 985 117 956 75 q 1014 235 1014 160 m 931 963 l 388 0 l 261 0 l 804 963 l 931 963 m 1193 235 q 1210 344 1193 297 q 1256 424 1226 392 q 1326 474 1286 457 q 1414 490 1367 490 q 1501 474 1461 490 q 1572 424 1542 457 q 1618 344 1601 392 q 1635 235 1635 297 q 1618 125 1635 172 q 1572 45 1601 78 q 1501 -4 1542 13 q 1414 -21 1461 -21 q 1326 -4 1367 -21 q 1256 45 1286 13 q 1210 125 1226 78 q 1193 235 1193 172 m 1526 235 q 1497 352 1526 310 q 1414 394 1468 394 q 1331 352 1360 394 q 1301 235 1301 310 q 1331 117 1301 160 q 1414 75 1360 75 q 1497 117 1468 75 q 1526 235 1526 160 z "},"Š":{"ha":739,"x_min":46,"x_max":696,"o":"m 343 96 q 554 240 554 96 q 535 316 554 285 q 485 370 517 347 q 412 410 453 393 q 325 443 371 426 q 225 484 272 461 q 143 538 178 507 q 88 613 108 569 q 68 717 68 656 q 154 914 68 843 q 392 985 240 985 q 551 966 479 985 q 656 925 622 947 l 613 815 q 526 851 583 833 q 392 868 468 868 q 319 860 353 868 q 261 835 286 851 q 222 792 236 818 q 207 732 207 767 q 222 667 207 693 q 265 620 238 640 q 330 583 293 600 q 411 550 367 567 q 526 500 474 525 q 616 440 578 475 q 675 358 654 406 q 696 242 696 310 q 603 47 696 115 q 343 -21 511 -21 q 238 -13 286 -21 q 153 5 190 -6 q 88 27 115 15 q 46 47 61 39 l 86 158 q 183 118 118 140 q 343 96 249 96 m 194 1229 l 249 1290 l 383 1168 l 518 1290 l 572 1229 l 383 1031 l 194 1229 z "},"‹":{"ha":404,"x_min":42,"x_max":349,"o":"m 42 394 l 258 701 l 349 653 l 194 394 l 349 136 l 258 88 l 42 394 z "},"Œ":{"ha":1379,"x_min":81,"x_max":1328,"o":"m 224 482 q 250 324 224 393 q 326 206 276 254 q 446 133 375 158 q 604 107 517 107 q 659 108 636 107 q 697 110 682 108 q 726 114 714 111 l 726 849 q 665 854 696 853 q 604 856 635 856 q 446 830 517 856 q 326 756 375 804 q 250 639 276 708 q 224 482 224 569 m 604 -10 q 396 21 492 -10 q 230 113 300 51 q 120 266 160 174 q 81 482 81 358 q 121 697 81 606 q 231 850 161 789 q 397 942 301 911 q 606 972 493 972 q 676 969 638 972 q 750 963 715 967 l 1293 963 l 1293 850 l 861 850 l 861 560 l 1243 560 l 1243 450 l 861 450 l 861 113 l 1328 113 l 1328 0 l 750 0 q 676 -7 715 -4 q 604 -10 636 -10 z "},"‘":{"ha":326,"x_min":83,"x_max":281,"o":"m 83 722 q 83 752 83 738 q 85 781 83 767 q 117 924 90 853 q 181 1056 143 994 l 281 1024 q 237 900 251 963 q 222 783 222 838 q 223 753 222 769 q 225 722 224 738 l 83 722 z "},"’":{"ha":326,"x_min":46,"x_max":243,"o":"m 243 1042 q 243 1012 243 1026 q 242 983 243 997 q 210 841 236 911 q 146 708 183 771 l 46 740 q 90 865 75 803 q 104 981 104 926 q 103 1010 104 994 q 101 1042 103 1026 l 243 1042 z "},"“":{"ha":579,"x_min":83,"x_max":533,"o":"m 83 722 q 83 752 83 738 q 85 781 83 767 q 117 924 90 853 q 181 1056 143 994 l 281 1024 q 237 900 251 963 q 222 783 222 838 q 223 753 222 769 q 225 722 224 738 l 83 722 m 336 722 q 336 752 336 738 q 338 781 336 767 q 369 924 343 853 q 433 1056 396 994 l 533 1024 q 490 900 504 963 q 475 783 475 838 q 476 753 475 769 q 478 722 476 738 l 336 722 z "},"”":{"ha":579,"x_min":46,"x_max":496,"o":"m 243 1042 q 243 1012 243 1026 q 242 983 243 997 q 210 841 236 911 q 146 708 183 771 l 46 740 q 90 865 75 803 q 104 981 104 926 q 103 1010 104 994 q 101 1042 103 1026 l 243 1042 m 496 1042 q 496 1012 496 1026 q 494 983 496 997 q 463 841 489 911 q 399 708 436 771 l 299 740 q 342 865 328 803 q 357 981 357 926 q 356 1010 357 994 q 354 1042 356 1026 l 496 1042 z "},"•":{"ha":500,"x_min":72,"x_max":428,"o":"m 428 490 q 415 422 428 454 q 380 367 403 390 q 324 328 357 343 q 250 314 292 314 q 176 328 208 314 q 120 367 143 343 q 85 422 97 390 q 72 490 72 454 q 85 558 72 525 q 120 614 97 590 q 176 652 143 638 q 250 667 208 667 q 324 652 292 667 q 380 614 357 638 q 415 558 403 590 q 428 490 428 525 z "},"–":{"ha":689,"x_min":-3,"x_max":692,"o":"m -3 471 l 692 471 l 692 361 l -3 361 l -3 471 z "},"—":{"ha":1383,"x_min":-3,"x_max":1386,"o":"m -3 471 l 1386 471 l 1386 361 l -3 361 l -3 471 z "},"˜":{"ha":522,"x_min":32,"x_max":489,"o":"m 489 988 q 470 949 482 971 q 440 908 458 926 q 398 876 422 889 q 344 863 374 863 q 292 872 317 863 q 246 893 268 882 q 206 910 222 904 q 174 915 189 915 q 130 896 150 915 q 99 854 110 876 l 32 888 q 50 926 38 904 q 81 967 63 949 q 123 999 99 986 q 176 1013 147 1013 q 228 1003 204 1013 q 275 982 253 993 q 315 965 299 971 q 347 960 332 960 q 391 979 371 960 q 422 1021 411 999 l 489 988 z "},"™":{"ha":1054,"x_min":32,"x_max":986,"o":"m 419 963 l 419 878 l 274 878 l 274 500 l 178 500 l 178 878 l 32 878 l 32 963 l 419 963 m 947 963 q 967 781 958 892 q 986 500 975 671 l 889 500 q 886 574 888 535 q 883 653 885 614 q 878 732 881 693 q 872 804 875 771 q 839 742 857 778 q 803 672 821 707 q 770 607 786 638 q 746 558 754 576 l 678 558 q 653 607 669 576 q 620 672 638 638 q 584 742 603 707 q 551 804 565 778 q 546 732 549 771 q 541 653 543 693 q 538 574 539 614 q 535 500 536 535 l 439 500 q 458 781 450 671 q 478 963 467 892 l 569 963 q 597 906 581 939 q 633 833 614 872 q 673 754 653 794 q 713 676 693 714 q 751 754 731 714 q 792 833 772 794 q 828 906 811 872 q 856 963 844 939 l 947 963 z "},"š":{"ha":619,"x_min":56,"x_max":565,"o":"m 279 93 q 397 114 358 93 q 435 181 435 135 q 397 256 435 228 q 274 318 360 283 q 194 352 232 335 q 128 393 156 369 q 83 450 100 417 q 67 532 67 483 q 138 684 67 628 q 331 740 208 740 q 392 737 361 740 q 449 728 422 733 q 495 718 475 724 q 526 708 515 713 l 503 597 q 438 620 482 608 q 331 632 393 632 q 236 610 276 632 q 196 543 196 589 q 205 501 196 519 q 233 469 214 483 q 279 442 251 454 q 346 415 307 429 q 438 377 397 396 q 506 333 478 358 q 550 273 535 308 q 565 186 565 238 q 491 35 565 86 q 279 -17 417 -17 q 129 -1 183 -17 q 56 24 75 15 l 79 135 q 150 110 101 126 q 279 93 199 93 m 121 1013 l 175 1074 l 310 951 l 444 1074 l 499 1013 l 310 814 l 121 1013 z "},"›":{"ha":404,"x_min":56,"x_max":363,"o":"m 146 88 l 56 136 l 210 394 l 56 653 l 146 701 l 363 394 l 146 88 z "},"œ":{"ha":1315,"x_min":71,"x_max":1240,"o":"m 974 -17 q 791 24 864 -17 q 678 135 718 64 q 565 21 633 60 q 410 -18 497 -18 q 274 9 336 -18 q 166 86 211 36 q 96 206 121 136 q 71 361 71 275 q 96 516 71 446 q 166 636 121 586 q 274 713 211 686 q 410 740 336 740 q 566 699 497 740 q 678 588 635 658 q 794 703 724 665 q 939 740 864 740 q 1162 649 1083 740 q 1240 372 1240 557 q 1240 353 1240 361 q 1239 339 1239 346 l 1239 326 l 744 326 q 810 156 753 215 q 988 97 868 97 q 1102 109 1056 97 q 1172 132 1149 121 l 1190 24 q 1108 -3 1167 11 q 974 -17 1049 -17 m 614 361 q 559 555 614 483 q 410 626 504 626 q 260 555 315 626 q 206 361 206 483 q 260 167 206 239 q 410 96 315 96 q 559 167 504 96 q 614 361 614 239 m 1106 431 q 1062 574 1107 518 q 938 631 1017 631 q 859 613 893 631 q 802 568 825 596 q 765 504 779 540 q 747 431 751 468 l 1106 431 z "},"Ÿ":{"ha":831,"x_min":8,"x_max":822,"o":"m 349 0 l 349 386 q 168 679 253 535 q 8 963 83 824 l 167 963 q 285 731 219 849 q 419 506 350 614 q 553 731 488 614 q 672 963 618 849 l 822 963 q 663 680 747 824 q 483 389 578 536 l 483 0 l 349 0 m 283 1072 q 227 1095 251 1072 q 203 1154 203 1118 q 227 1213 203 1190 q 283 1236 251 1236 q 340 1213 315 1236 q 364 1154 364 1190 q 340 1095 364 1118 q 283 1072 315 1072 m 547 1072 q 491 1095 515 1072 q 467 1154 467 1118 q 491 1213 467 1190 q 547 1236 515 1236 q 603 1213 579 1236 q 628 1154 628 1190 q 603 1095 628 1118 q 547 1072 579 1072 z "}," ":{"ha":321,"x_min":0,"x_max":0,"o":""},"¡":{"ha":383,"x_min":99,"x_max":285,"o":"m 122 3 q 131 215 122 119 q 151 404 139 310 l 232 404 q 253 215 244 310 q 261 3 261 119 l 261 -257 l 122 -257 l 122 3 m 99 629 q 124 694 99 667 q 192 722 149 722 q 260 694 235 722 q 285 629 285 667 q 260 564 285 592 q 192 536 235 536 q 124 564 149 536 q 99 629 99 592 z "},"¢":{"ha":783,"x_min":119,"x_max":667,"o":"m 119 404 q 138 532 119 472 q 191 639 157 592 q 275 718 225 686 q 388 763 325 750 l 388 963 l 503 963 l 503 769 q 656 738 583 765 l 626 631 q 559 651 597 643 q 478 660 521 660 q 312 594 369 660 q 254 404 254 529 q 267 302 254 349 q 309 222 281 256 q 382 171 338 189 q 490 153 426 153 q 583 163 542 153 q 649 182 625 172 l 667 76 q 600 55 647 65 q 503 42 553 44 l 503 -151 l 388 -151 l 388 49 q 271 92 321 61 q 188 170 221 124 q 137 276 154 217 q 119 404 119 336 z "},"£":{"ha":783,"x_min":83,"x_max":721,"o":"m 342 518 l 604 518 l 604 414 l 342 414 l 342 403 q 336 257 342 333 q 319 111 331 181 l 721 111 l 721 0 l 174 0 q 201 197 189 99 q 213 393 213 294 l 213 414 l 83 414 l 83 518 l 213 518 l 213 633 q 234 803 213 736 q 295 910 256 871 q 390 965 335 950 q 513 981 446 981 q 615 969 574 981 q 696 943 657 958 l 664 832 q 507 867 590 867 q 439 856 469 867 q 387 818 408 844 q 353 747 365 792 q 342 636 342 703 l 342 518 z "},"¤":{"ha":783,"x_min":61,"x_max":722,"o":"m 124 482 q 163 629 124 567 l 61 732 l 142 813 l 244 708 q 392 749 310 749 q 538 708 474 749 l 642 813 l 722 732 l 619 629 q 649 562 639 599 q 660 482 660 525 q 649 401 660 438 q 619 335 639 365 l 722 232 l 642 151 l 538 254 q 392 215 471 215 q 314 225 351 215 q 244 254 276 235 l 142 151 l 61 232 l 163 333 q 124 482 124 396 m 556 482 q 542 553 556 521 q 507 608 529 585 q 455 642 485 631 q 392 654 425 654 q 328 642 358 654 q 276 608 299 631 q 241 553 254 585 q 228 482 228 521 q 241 410 228 442 q 276 356 254 379 q 328 322 299 333 q 392 310 358 310 q 455 322 425 310 q 507 356 485 333 q 542 410 529 379 q 556 482 556 442 z "},"¥":{"ha":783,"x_min":24,"x_max":761,"o":"m 329 0 l 329 147 l 104 147 l 104 246 l 329 246 l 329 388 l 104 388 l 104 486 l 293 486 q 151 728 218 608 q 24 963 83 849 l 167 963 q 275 746 217 854 q 396 538 333 638 q 513 746 457 638 q 621 963 569 854 l 761 963 q 633 727 700 847 q 490 486 565 607 l 681 486 l 681 388 l 456 388 l 456 246 l 681 246 l 681 147 l 456 147 l 456 0 l 329 0 z "},"¦":{"ha":388,"x_min":133,"x_max":254,"o":"m 133 275 l 254 275 l 254 -257 l 133 -257 l 133 275 m 133 1088 l 254 1088 l 254 556 l 133 556 l 133 1088 z "},"§":{"ha":683,"x_min":60,"x_max":625,"o":"m 94 -1 q 186 -32 136 -19 q 314 -44 236 -44 q 431 -22 392 -44 q 471 51 471 1 q 433 127 471 100 q 307 185 396 154 q 212 221 257 201 q 133 268 167 240 q 79 335 99 296 q 60 429 60 374 q 72 497 60 465 q 101 553 83 528 q 140 598 118 579 q 183 629 163 617 q 128 693 149 657 q 108 776 108 729 q 176 928 108 872 q 365 985 243 985 q 497 971 436 985 q 594 946 558 957 l 565 839 q 484 865 532 851 q 364 879 436 879 q 270 856 310 879 q 231 788 231 833 q 239 745 231 763 q 265 713 247 728 q 311 686 283 699 q 378 661 339 674 q 473 625 428 644 q 552 578 518 606 q 606 511 586 550 q 625 417 625 472 q 614 351 625 382 q 586 296 603 321 q 548 251 569 271 q 506 218 526 231 q 571 150 546 189 q 596 60 596 111 q 522 -98 596 -44 q 313 -151 449 -151 q 159 -137 219 -151 q 63 -104 99 -122 l 94 -1 m 306 567 q 287 573 296 569 q 268 581 278 576 q 203 519 228 554 q 178 442 178 483 q 194 381 178 406 q 238 338 210 357 q 306 305 267 319 q 390 275 344 290 q 403 270 397 272 q 417 265 410 268 q 482 326 457 292 q 507 404 507 361 q 491 465 507 440 q 447 507 475 489 q 383 539 419 525 q 306 567 347 553 z "},"¨":{"ha":522,"x_min":49,"x_max":474,"o":"m 129 856 q 73 878 97 856 q 49 938 49 901 q 73 997 49 974 q 129 1019 97 1019 q 185 997 161 1019 q 210 938 210 974 q 185 878 210 901 q 129 856 161 856 m 393 856 q 337 878 361 856 q 313 938 313 901 q 337 997 313 974 q 393 1019 361 1019 q 449 997 425 1019 q 474 938 474 974 q 449 878 474 901 q 393 856 425 856 z "},"©":{"ha":1131,"x_min":90,"x_max":1040,"o":"m 1040 482 q 1001 270 1040 364 q 897 112 963 176 q 746 13 832 47 q 565 -21 660 -21 q 385 13 471 -21 q 233 112 299 47 q 129 270 168 176 q 90 482 90 364 q 129 694 90 600 q 233 852 168 788 q 385 951 299 917 q 565 985 471 985 q 746 951 660 985 q 897 852 832 917 q 1001 694 963 788 q 1040 482 1040 600 m 939 482 q 911 649 939 574 q 834 779 883 725 q 716 863 785 833 q 565 892 647 892 q 415 863 483 892 q 297 779 346 833 q 219 649 247 725 q 192 482 192 574 q 219 315 192 390 q 297 185 247 239 q 415 101 346 131 q 565 72 483 72 q 716 101 647 72 q 834 185 785 131 q 911 315 883 239 q 939 482 939 390 m 582 194 q 474 214 522 194 q 390 269 425 233 q 335 359 354 306 q 315 482 315 413 q 337 603 315 550 q 394 692 358 656 q 479 749 431 729 q 582 768 528 768 q 648 763 618 768 q 700 749 678 757 q 737 734 722 742 q 757 722 751 726 l 725 639 q 672 662 708 649 q 586 675 635 675 q 468 626 515 675 q 421 482 421 576 q 464 341 421 396 q 590 286 507 286 q 680 298 644 286 q 735 319 715 310 l 761 236 q 738 224 754 232 q 699 210 722 217 q 645 199 675 204 q 582 194 615 194 z "},"ª":{"ha":540,"x_min":53,"x_max":467,"o":"m 272 543 q 333 544 303 543 q 371 549 364 546 l 371 688 q 332 692 356 690 q 286 693 308 693 q 238 690 263 693 q 194 679 214 688 q 163 656 175 671 q 150 619 150 642 q 183 560 150 578 q 272 543 215 543 m 263 981 q 358 967 319 981 q 422 928 397 953 q 456 867 446 903 q 467 788 467 832 l 467 476 q 376 463 433 469 q 263 457 319 457 q 178 466 217 457 q 113 494 140 475 q 69 544 85 514 q 53 619 53 575 q 71 693 53 663 q 119 742 89 724 q 190 769 150 761 q 275 778 231 778 q 318 776 294 778 q 371 771 342 775 l 371 775 q 367 817 371 796 q 350 853 363 838 q 315 880 338 869 q 257 890 293 890 q 187 886 225 890 q 121 872 149 882 l 107 960 q 176 974 133 967 q 263 981 218 981 z "},"«":{"ha":693,"x_min":42,"x_max":638,"o":"m 42 394 l 258 701 l 349 653 l 194 394 l 349 136 l 258 88 l 42 394 m 331 394 l 547 701 l 638 653 l 483 394 l 638 136 l 547 88 l 331 394 z "},"¬":{"ha":783,"x_min":74,"x_max":710,"o":"m 710 547 l 710 74 l 599 74 l 599 438 l 74 438 l 74 547 l 710 547 z "},"­":{"ha":415,"x_min":36,"x_max":379,"o":"m 36 476 l 379 476 l 379 356 l 36 356 l 36 476 z "},"®":{"ha":1131,"x_min":90,"x_max":1040,"o":"m 1040 482 q 1001 270 1040 364 q 897 112 963 176 q 746 13 832 47 q 565 -21 660 -21 q 385 13 471 -21 q 233 112 299 47 q 129 270 168 176 q 90 482 90 364 q 129 694 90 600 q 233 852 168 788 q 385 951 299 917 q 565 985 471 985 q 746 951 660 985 q 897 852 832 917 q 1001 694 963 788 q 1040 482 1040 600 m 939 482 q 911 649 939 574 q 834 779 883 725 q 716 863 785 833 q 565 892 647 892 q 415 863 483 892 q 297 779 346 833 q 219 649 247 725 q 192 482 192 574 q 219 315 192 390 q 297 185 247 239 q 415 101 346 131 q 565 72 483 72 q 716 101 647 72 q 834 185 785 131 q 911 315 883 239 q 939 482 939 390 m 703 206 q 631 324 671 268 q 563 414 592 381 l 469 414 l 469 206 l 371 206 l 371 744 q 450 757 408 753 q 526 761 492 761 q 708 717 646 761 q 771 582 771 672 q 744 492 771 531 q 667 433 717 454 q 699 392 681 417 q 736 336 717 367 q 775 272 756 306 q 810 206 794 239 l 703 206 m 469 494 l 522 494 q 626 512 585 494 q 668 583 668 529 q 628 655 668 635 q 533 675 589 675 q 501 674 518 675 q 469 672 485 674 l 469 494 z "},"¯":{"ha":522,"x_min":64,"x_max":458,"o":"m 64 988 l 458 988 l 458 888 l 64 888 l 64 988 z "},"°":{"ha":461,"x_min":36,"x_max":425,"o":"m 425 885 q 409 804 425 840 q 367 743 393 768 q 305 705 340 718 q 231 692 269 692 q 156 705 192 692 q 94 743 121 718 q 52 804 68 768 q 36 885 36 840 q 52 965 36 929 q 94 1026 68 1001 q 156 1065 121 1051 q 231 1078 192 1078 q 305 1065 269 1078 q 367 1026 340 1051 q 409 965 393 1001 q 425 885 425 929 m 332 885 q 302 962 332 933 q 231 990 272 990 q 159 962 189 990 q 129 885 129 933 q 159 808 129 836 q 231 779 189 779 q 302 808 272 779 q 332 885 332 836 z "},"±":{"ha":783,"x_min":74,"x_max":710,"o":"m 74 582 l 336 582 l 336 861 l 447 861 l 447 582 l 710 582 l 710 472 l 447 472 l 447 193 l 336 193 l 336 472 l 74 472 l 74 582 m 74 110 l 710 110 l 710 0 l 74 0 l 74 110 z "},"²":{"ha":499,"x_min":42,"x_max":433,"o":"m 411 831 q 398 774 411 801 q 363 719 385 746 q 311 665 340 692 q 249 608 282 638 q 202 566 225 589 q 175 525 179 543 l 433 525 l 433 438 l 64 438 q 70 519 60 483 q 101 583 81 554 q 147 637 121 613 q 203 686 174 661 q 280 760 250 726 q 310 828 310 794 q 287 881 310 864 q 224 897 264 897 q 179 891 200 897 q 142 876 158 885 q 112 858 125 867 q 92 843 99 849 l 42 911 q 113 960 65 936 q 224 985 161 985 q 365 944 319 985 q 411 831 411 904 z "},"³":{"ha":499,"x_min":44,"x_max":431,"o":"m 200 513 q 301 535 274 513 q 329 594 329 558 q 317 635 329 618 q 283 662 304 651 q 233 677 261 672 q 176 682 206 682 l 150 682 l 150 761 l 185 761 q 226 765 204 761 q 265 776 247 768 q 293 799 282 785 q 304 835 304 814 q 278 884 304 869 q 213 899 253 899 q 143 885 175 899 q 88 861 111 872 l 53 938 q 122 969 75 953 q 215 985 168 985 q 359 944 317 985 q 401 839 401 903 q 325 728 401 771 q 402 677 374 713 q 431 593 431 642 q 418 527 431 557 q 378 474 406 497 q 306 439 350 451 q 201 426 263 426 q 114 436 158 426 q 44 458 69 446 l 65 542 q 130 522 96 531 q 200 513 164 513 z "},"´":{"ha":522,"x_min":176,"x_max":438,"o":"m 438 996 l 242 806 l 176 864 l 354 1078 l 438 996 z "},"µ":{"ha":806,"x_min":111,"x_max":694,"o":"m 240 722 l 240 336 q 283 151 240 204 q 422 99 326 99 q 465 100 443 99 q 507 103 488 101 q 542 108 526 106 q 565 113 558 110 l 565 722 l 694 722 l 694 21 q 580 -3 650 10 q 426 -15 510 -15 q 305 1 350 -15 q 232 47 260 17 q 238 -31 236 8 q 239 -114 239 -71 l 239 -257 l 111 -257 l 111 722 l 240 722 z "},"¶":{"ha":897,"x_min":60,"x_max":757,"o":"m 536 865 q 514 865 525 865 q 494 863 503 864 l 494 -257 l 386 -257 l 386 364 q 146 451 232 379 q 60 665 60 524 q 91 799 60 742 q 181 894 122 856 q 322 953 239 933 q 508 972 406 972 q 633 967 567 972 q 757 949 700 963 l 757 -257 l 649 -257 l 649 858 q 600 863 629 861 q 536 865 571 865 z "},"·":{"ha":342,"x_min":78,"x_max":264,"o":"m 264 408 q 239 343 264 371 q 171 315 214 315 q 103 343 128 315 q 78 408 78 371 q 103 474 78 446 q 171 501 128 501 q 239 474 214 501 q 264 408 264 446 z "},"¸":{"ha":522,"x_min":96,"x_max":353,"o":"m 276 -51 q 335 -94 317 -71 q 353 -161 353 -117 q 346 -194 353 -176 q 322 -228 339 -212 q 278 -253 306 -243 q 210 -262 250 -262 q 144 -257 174 -262 q 96 -244 114 -251 l 111 -165 q 147 -175 128 -171 q 189 -179 165 -179 q 239 -147 239 -179 q 224 -122 239 -132 q 181 -100 208 -111 l 171 -96 q 183 -63 175 -82 q 200 -26 192 -44 q 216 6 208 -8 q 228 28 224 21 l 317 28 q 296 -11 308 13 q 276 -51 283 -35 z "},"¹":{"ha":499,"x_min":69,"x_max":331,"o":"m 69 863 q 174 909 122 881 q 263 974 225 938 l 331 974 l 331 438 l 233 438 l 233 846 q 163 811 203 826 q 96 788 124 796 l 69 863 z "},"º":{"ha":619,"x_min":60,"x_max":560,"o":"m 560 719 q 541 611 560 660 q 489 528 522 563 q 410 474 456 493 q 310 456 364 456 q 210 474 256 456 q 131 528 164 493 q 78 611 97 563 q 60 719 60 660 q 78 828 60 779 q 131 912 97 878 q 210 965 164 946 q 310 983 256 983 q 410 965 364 983 q 489 912 456 946 q 541 828 522 878 q 560 719 560 779 m 457 719 q 419 844 457 797 q 310 890 381 890 q 201 844 240 890 q 163 719 163 797 q 201 596 163 643 q 310 549 239 549 q 419 596 381 549 q 457 719 457 643 z "},"»":{"ha":693,"x_min":56,"x_max":651,"o":"m 146 88 l 56 136 l 210 394 l 56 653 l 146 701 l 363 394 l 146 88 m 435 88 l 344 136 l 499 394 l 344 653 l 435 701 l 651 394 l 435 88 z "},"¼":{"ha":1214,"x_min":69,"x_max":1181,"o":"m 69 863 q 174 909 122 881 q 263 974 225 938 l 331 974 l 331 438 l 233 438 l 233 846 q 163 811 203 826 q 96 788 124 796 l 69 863 m 936 963 l 393 0 l 272 0 l 815 963 l 936 963 m 1111 540 l 1111 215 l 1181 215 l 1181 133 l 1111 133 l 1111 4 l 1017 4 l 1017 133 l 749 133 l 749 197 q 799 276 768 232 q 865 368 829 321 q 942 460 901 415 q 1022 540 982 506 l 1111 540 m 1017 425 q 929 324 974 381 q 853 215 885 268 l 1017 215 l 1017 425 z "},"½":{"ha":1214,"x_min":69,"x_max":1149,"o":"m 69 863 q 174 909 122 881 q 263 974 225 938 l 331 974 l 331 438 l 233 438 l 233 846 q 163 811 203 826 q 96 788 124 796 l 69 863 m 907 963 l 364 0 l 243 0 l 786 963 l 907 963 m 1126 397 q 1113 340 1126 368 q 1078 285 1100 313 q 1026 231 1056 258 q 964 175 997 204 q 917 133 940 156 q 890 92 894 110 l 1149 92 l 1149 4 l 779 4 q 785 85 775 50 q 816 150 796 121 q 863 203 836 179 q 918 253 889 228 q 995 327 965 293 q 1025 394 1025 361 q 1002 447 1025 431 q 939 464 979 464 q 894 458 915 464 q 857 442 874 451 q 827 424 840 433 q 807 410 814 415 l 757 478 q 828 527 781 503 q 939 551 876 551 q 1081 511 1035 551 q 1126 397 1126 471 z "},"¾":{"ha":1214,"x_min":44,"x_max":1181,"o":"m 200 513 q 301 535 274 513 q 329 594 329 558 q 317 635 329 618 q 283 662 304 651 q 233 677 261 672 q 176 682 206 682 l 150 682 l 150 761 l 185 761 q 226 765 204 761 q 265 776 247 768 q 293 799 282 785 q 304 835 304 814 q 278 884 304 869 q 213 899 253 899 q 143 885 175 899 q 88 861 111 872 l 53 938 q 122 969 75 953 q 215 985 168 985 q 359 944 317 985 q 401 839 401 903 q 325 728 401 771 q 402 677 374 713 q 431 593 431 642 q 418 527 431 557 q 378 474 406 497 q 306 439 350 451 q 201 426 263 426 q 114 436 158 426 q 44 458 69 446 l 65 542 q 130 522 96 531 q 200 513 164 513 m 957 963 l 414 0 l 293 0 l 836 963 l 957 963 m 1111 540 l 1111 215 l 1181 215 l 1181 133 l 1111 133 l 1111 4 l 1017 4 l 1017 133 l 749 133 l 749 197 q 799 276 768 232 q 865 368 829 321 q 942 460 901 415 q 1022 540 982 506 l 1111 540 m 1017 425 q 929 324 974 381 q 853 215 885 268 l 1017 215 l 1017 425 z "},"¿":{"ha":561,"x_min":39,"x_max":535,"o":"m 175 -32 q 213 -119 175 -85 q 319 -153 251 -153 q 499 -106 411 -153 l 535 -206 q 428 -246 488 -231 q 303 -261 369 -261 q 178 -242 228 -261 q 97 -192 128 -222 q 52 -123 65 -161 q 39 -47 39 -85 q 56 35 39 -1 q 100 103 74 71 q 156 165 126 136 q 213 227 186 194 q 256 296 239 260 q 274 378 274 332 q 274 391 274 385 q 272 404 274 397 l 381 404 q 386 350 386 376 q 370 269 386 306 q 331 202 354 233 q 281 143 308 171 q 230 88 253 115 q 191 31 207 60 q 175 -32 175 1 m 226 629 q 251 694 226 667 q 319 722 276 722 q 388 694 363 722 q 413 629 413 667 q 388 564 413 592 q 319 536 363 536 q 251 564 276 536 q 226 629 226 592 z "},"À":{"ha":921,"x_min":11,"x_max":910,"o":"m 763 0 q 718 123 739 63 q 675 246 697 183 l 239 246 l 151 0 l 11 0 q 115 283 67 153 q 210 529 164 413 q 303 752 257 646 q 399 963 349 858 l 522 963 q 618 752 572 858 q 710 529 664 646 q 806 283 757 413 q 910 0 854 153 l 763 0 m 636 357 q 548 591 592 478 q 457 808 504 704 q 365 591 408 704 q 278 357 321 478 l 636 357 m 376 1294 l 554 1081 l 489 1022 l 293 1213 l 376 1294 z "},"Á":{"ha":921,"x_min":11,"x_max":910,"o":"m 763 0 q 718 123 739 63 q 675 246 697 183 l 239 246 l 151 0 l 11 0 q 115 283 67 153 q 210 529 164 413 q 303 752 257 646 q 399 963 349 858 l 522 963 q 618 752 572 858 q 710 529 664 646 q 806 283 757 413 q 910 0 854 153 l 763 0 m 636 357 q 548 591 592 478 q 457 808 504 704 q 365 591 408 704 q 278 357 321 478 l 636 357 m 635 1213 l 439 1022 l 374 1081 l 551 1294 l 635 1213 z "},"Â":{"ha":921,"x_min":11,"x_max":910,"o":"m 763 0 q 718 123 739 63 q 675 246 697 183 l 239 246 l 151 0 l 11 0 q 115 283 67 153 q 210 529 164 413 q 303 752 257 646 q 399 963 349 858 l 522 963 q 618 752 572 858 q 710 529 664 646 q 806 283 757 413 q 910 0 854 153 l 763 0 m 636 357 q 548 591 592 478 q 457 808 504 704 q 365 591 408 704 q 278 357 321 478 l 636 357 m 460 1285 l 649 1086 l 594 1025 l 460 1147 l 325 1025 l 271 1086 l 460 1285 z "},"Ã":{"ha":921,"x_min":11,"x_max":910,"o":"m 763 0 q 718 123 739 63 q 675 246 697 183 l 239 246 l 151 0 l 11 0 q 115 283 67 153 q 210 529 164 413 q 303 752 257 646 q 399 963 349 858 l 522 963 q 618 752 572 858 q 710 529 664 646 q 806 283 757 413 q 910 0 854 153 l 763 0 m 636 357 q 548 591 592 478 q 457 808 504 704 q 365 591 408 704 q 278 357 321 478 l 636 357 m 689 1204 q 670 1165 682 1188 q 640 1124 658 1143 q 598 1092 622 1106 q 544 1079 574 1079 q 492 1089 517 1079 q 446 1110 468 1099 q 406 1126 422 1121 q 374 1132 389 1132 q 330 1113 350 1132 q 299 1071 310 1093 l 232 1104 q 250 1143 238 1121 q 281 1184 263 1165 q 323 1216 299 1203 q 376 1229 347 1229 q 428 1219 404 1229 q 475 1199 453 1210 q 515 1182 499 1188 q 547 1176 532 1176 q 591 1196 571 1176 q 622 1238 611 1215 l 689 1204 z "},"Ä":{"ha":921,"x_min":11,"x_max":910,"o":"m 763 0 q 718 123 739 63 q 675 246 697 183 l 239 246 l 151 0 l 11 0 q 115 283 67 153 q 210 529 164 413 q 303 752 257 646 q 399 963 349 858 l 522 963 q 618 752 572 858 q 710 529 664 646 q 806 283 757 413 q 910 0 854 153 l 763 0 m 636 357 q 548 591 592 478 q 457 808 504 704 q 365 591 408 704 q 278 357 321 478 l 636 357 m 328 1072 q 272 1095 296 1072 q 247 1154 247 1118 q 272 1213 247 1190 q 328 1236 296 1236 q 384 1213 360 1236 q 408 1154 408 1190 q 384 1095 408 1118 q 328 1072 360 1072 m 592 1072 q 535 1095 560 1072 q 511 1154 511 1118 q 535 1213 511 1190 q 592 1236 560 1236 q 648 1213 624 1236 q 672 1154 672 1190 q 648 1095 672 1118 q 592 1072 624 1072 z "},"Å":{"ha":921,"x_min":11,"x_max":910,"o":"m 239 247 l 151 0 l 11 0 q 108 265 63 142 q 198 498 154 388 q 284 708 242 608 q 372 907 326 808 q 331 956 346 926 q 315 1024 315 985 q 327 1083 315 1057 q 358 1127 339 1108 q 403 1156 378 1146 q 458 1165 429 1165 q 513 1156 488 1165 q 558 1127 539 1146 q 590 1083 578 1108 q 601 1024 601 1057 q 586 958 601 986 q 546 910 571 929 q 635 710 592 811 q 722 499 678 610 q 811 266 765 389 q 910 0 857 143 l 763 0 q 718 124 739 63 q 675 247 697 185 l 239 247 m 636 357 q 548 591 592 478 q 457 808 504 704 q 365 592 408 704 q 278 357 321 479 l 636 357 m 532 1024 q 510 1080 532 1060 q 458 1100 489 1100 q 406 1080 428 1100 q 385 1024 385 1060 q 406 967 385 988 q 458 947 428 947 q 510 967 489 947 q 532 1024 532 988 z "},"Æ":{"ha":1299,"x_min":8,"x_max":1247,"o":"m 1213 850 l 794 850 l 794 560 l 1163 560 l 1163 450 l 794 450 l 794 113 l 1247 113 l 1247 0 l 661 0 l 661 247 l 282 247 q 216 124 249 186 q 153 0 183 63 l 8 0 q 163 283 88 150 q 311 533 239 415 q 453 758 383 651 q 593 963 524 864 l 1213 963 l 1213 850 m 661 857 q 508 631 588 757 q 344 357 429 504 l 661 357 l 661 857 z "},"Ç":{"ha":861,"x_min":81,"x_max":826,"o":"m 458 -15 q 303 34 372 -4 q 184 135 233 72 q 108 285 135 199 q 81 482 81 372 q 117 697 81 603 q 217 854 154 790 q 363 951 279 918 q 540 985 446 985 q 648 976 600 985 q 731 957 696 968 q 789 935 767 946 q 819 918 811 924 l 781 807 q 744 825 768 815 q 691 844 721 835 q 626 860 661 854 q 554 867 590 867 q 417 840 478 867 q 313 764 356 814 q 247 642 269 714 q 224 482 224 571 q 244 325 224 396 q 304 203 264 254 q 405 125 344 153 q 546 97 465 97 q 700 117 639 97 q 792 151 761 136 l 826 40 q 733 3 807 25 q 544 -21 658 -18 q 537 -37 540 -29 q 531 -51 533 -44 q 589 -94 571 -71 q 607 -161 607 -117 q 600 -194 607 -176 q 576 -228 593 -212 q 532 -253 560 -243 q 464 -262 504 -262 q 398 -257 428 -262 q 350 -244 368 -251 l 365 -165 q 401 -175 382 -171 q 443 -179 419 -179 q 493 -147 493 -179 q 478 -122 493 -132 q 435 -100 463 -111 l 425 -96 q 440 -57 431 -79 q 458 -15 449 -35 z "},"È":{"ha":793,"x_min":119,"x_max":742,"o":"m 119 0 l 119 963 l 707 963 l 707 847 l 254 847 l 254 561 l 657 561 l 657 449 l 254 449 l 254 115 l 742 115 l 742 0 l 119 0 m 361 1294 l 539 1081 l 474 1022 l 278 1213 l 361 1294 z "},"É":{"ha":793,"x_min":119,"x_max":742,"o":"m 119 0 l 119 963 l 707 963 l 707 847 l 254 847 l 254 561 l 657 561 l 657 449 l 254 449 l 254 115 l 742 115 l 742 0 l 119 0 m 613 1213 l 417 1022 l 351 1081 l 529 1294 l 613 1213 z "},"Ê":{"ha":793,"x_min":119,"x_max":742,"o":"m 119 0 l 119 963 l 707 963 l 707 847 l 254 847 l 254 561 l 657 561 l 657 449 l 254 449 l 254 115 l 742 115 l 742 0 l 119 0 m 413 1285 l 601 1086 l 547 1025 l 413 1147 l 278 1025 l 224 1086 l 413 1285 z "},"Ë":{"ha":793,"x_min":119,"x_max":742,"o":"m 119 0 l 119 963 l 707 963 l 707 847 l 254 847 l 254 561 l 657 561 l 657 449 l 254 449 l 254 115 l 742 115 l 742 0 l 119 0 m 281 1072 q 224 1095 249 1072 q 200 1154 200 1118 q 224 1213 200 1190 q 281 1236 249 1236 q 337 1213 313 1236 q 361 1154 361 1190 q 337 1095 361 1118 q 281 1072 313 1072 m 544 1072 q 488 1095 513 1072 q 464 1154 464 1118 q 488 1213 464 1190 q 544 1236 513 1236 q 601 1213 576 1236 q 625 1154 625 1190 q 601 1095 625 1118 q 544 1072 576 1072 z "},"Ì":{"ha":374,"x_min":21,"x_max":282,"o":"m 119 963 l 254 963 l 254 0 l 119 0 l 119 963 m 104 1294 l 282 1081 l 217 1022 l 21 1213 l 104 1294 z "},"Í":{"ha":374,"x_min":94,"x_max":356,"o":"m 119 963 l 254 963 l 254 0 l 119 0 l 119 963 m 356 1213 l 160 1022 l 94 1081 l 272 1294 l 356 1213 z "},"Î":{"ha":374,"x_min":-1,"x_max":376,"o":"m 119 963 l 254 963 l 254 0 l 119 0 l 119 963 m 188 1285 l 376 1086 l 322 1025 l 188 1147 l 53 1025 l -1 1086 l 188 1285 z "},"Ï":{"ha":374,"x_min":-25,"x_max":400,"o":"m 119 963 l 254 963 l 254 0 l 119 0 l 119 963 m 56 1072 q -1 1095 24 1072 q -25 1154 -25 1118 q -1 1213 -25 1190 q 56 1236 24 1236 q 112 1213 88 1236 q 136 1154 136 1190 q 112 1095 136 1118 q 56 1072 88 1072 m 319 1072 q 263 1095 288 1072 q 239 1154 239 1118 q 263 1213 239 1190 q 319 1236 288 1236 q 376 1213 351 1236 q 400 1154 400 1190 q 376 1095 400 1118 q 319 1072 351 1072 z "},"Ð":{"ha":1008,"x_min":26,"x_max":928,"o":"m 928 482 q 889 265 928 357 q 779 112 850 172 q 610 22 708 51 q 393 -8 511 -8 q 265 -3 335 -8 q 138 15 194 1 l 138 450 l 26 450 l 26 554 l 138 554 l 138 949 q 265 967 194 963 q 393 972 335 972 q 610 942 511 972 q 779 852 708 913 q 889 699 850 792 q 928 482 928 607 m 404 110 q 690 208 596 110 q 785 482 785 306 q 690 756 785 658 q 404 854 596 854 q 316 853 347 854 q 272 850 285 851 l 272 554 l 453 554 l 453 450 l 272 450 l 272 114 q 316 111 285 113 q 404 110 347 110 z "},"Ñ":{"ha":1011,"x_min":119,"x_max":892,"o":"m 779 0 q 709 115 749 51 q 624 248 669 179 q 528 388 578 317 q 431 524 479 458 q 336 649 382 590 q 251 751 290 707 l 251 0 l 119 0 l 119 963 l 226 963 q 366 801 292 893 q 513 610 440 708 q 651 418 586 513 q 760 250 715 324 l 760 963 l 892 963 l 892 0 l 779 0 m 735 1204 q 716 1165 728 1188 q 686 1124 704 1143 q 644 1092 668 1106 q 590 1079 619 1079 q 538 1089 563 1079 q 492 1110 514 1099 q 451 1126 468 1121 q 419 1132 435 1132 q 376 1113 396 1132 q 344 1071 356 1093 l 278 1104 q 296 1143 283 1121 q 326 1184 308 1165 q 369 1216 344 1203 q 422 1229 393 1229 q 474 1219 450 1229 q 521 1199 499 1210 q 561 1182 544 1188 q 593 1176 578 1176 q 637 1196 617 1176 q 668 1238 657 1215 l 735 1204 z "},"Ò":{"ha":1081,"x_min":81,"x_max":1000,"o":"m 81 482 q 117 700 81 606 q 217 858 154 794 q 365 953 281 921 q 543 985 449 985 q 719 953 636 985 q 864 858 801 921 q 963 700 926 794 q 1000 482 1000 606 q 963 264 1000 358 q 864 106 926 169 q 719 11 801 43 q 543 -21 636 -21 q 365 11 449 -21 q 217 106 281 43 q 117 264 154 169 q 81 482 81 358 m 222 482 q 244 323 222 394 q 308 201 267 251 q 408 124 349 151 q 540 97 467 97 q 672 124 614 97 q 772 201 731 151 q 835 323 813 251 q 857 482 857 394 q 835 641 857 569 q 772 763 813 713 q 672 840 731 813 q 540 867 614 867 q 408 840 467 867 q 308 763 349 813 q 244 641 267 713 q 222 482 222 569 m 457 1294 l 635 1081 l 569 1022 l 374 1213 l 457 1294 z "},"Ó":{"ha":1081,"x_min":81,"x_max":1000,"o":"m 81 482 q 117 700 81 606 q 217 858 154 794 q 365 953 281 921 q 543 985 449 985 q 719 953 636 985 q 864 858 801 921 q 963 700 926 794 q 1000 482 1000 606 q 963 264 1000 358 q 864 106 926 169 q 719 11 801 43 q 543 -21 636 -21 q 365 11 449 -21 q 217 106 281 43 q 117 264 154 169 q 81 482 81 358 m 222 482 q 244 323 222 394 q 308 201 267 251 q 408 124 349 151 q 540 97 467 97 q 672 124 614 97 q 772 201 731 151 q 835 323 813 251 q 857 482 857 394 q 835 641 857 569 q 772 763 813 713 q 672 840 731 813 q 540 867 614 867 q 408 840 467 867 q 308 763 349 813 q 244 641 267 713 q 222 482 222 569 m 708 1213 l 513 1022 l 447 1081 l 625 1294 l 708 1213 z "},"Ô":{"ha":1081,"x_min":81,"x_max":1000,"o":"m 81 482 q 117 700 81 606 q 217 858 154 794 q 365 953 281 921 q 543 985 449 985 q 719 953 636 985 q 864 858 801 921 q 963 700 926 794 q 1000 482 1000 606 q 963 264 1000 358 q 864 106 926 169 q 719 11 801 43 q 543 -21 636 -21 q 365 11 449 -21 q 217 106 281 43 q 117 264 154 169 q 81 482 81 358 m 222 482 q 244 323 222 394 q 308 201 267 251 q 408 124 349 151 q 540 97 467 97 q 672 124 614 97 q 772 201 731 151 q 835 323 813 251 q 857 482 857 394 q 835 641 857 569 q 772 763 813 713 q 672 840 731 813 q 540 867 614 867 q 408 840 467 867 q 308 763 349 813 q 244 641 267 713 q 222 482 222 569 m 540 1285 l 729 1086 l 675 1025 l 540 1147 l 406 1025 l 351 1086 l 540 1285 z "},"Õ":{"ha":1081,"x_min":81,"x_max":1000,"o":"m 81 482 q 117 700 81 606 q 217 858 154 794 q 365 953 281 921 q 543 985 449 985 q 719 953 636 985 q 864 858 801 921 q 963 700 926 794 q 1000 482 1000 606 q 963 264 1000 358 q 864 106 926 169 q 719 11 801 43 q 543 -21 636 -21 q 365 11 449 -21 q 217 106 281 43 q 117 264 154 169 q 81 482 81 358 m 222 482 q 244 323 222 394 q 308 201 267 251 q 408 124 349 151 q 540 97 467 97 q 672 124 614 97 q 772 201 731 151 q 835 323 813 251 q 857 482 857 394 q 835 641 857 569 q 772 763 813 713 q 672 840 731 813 q 540 867 614 867 q 408 840 467 867 q 308 763 349 813 q 244 641 267 713 q 222 482 222 569 m 769 1204 q 751 1165 763 1188 q 721 1124 739 1143 q 678 1092 703 1106 q 625 1079 654 1079 q 573 1089 597 1079 q 526 1110 549 1099 q 486 1126 503 1121 q 454 1132 469 1132 q 410 1113 431 1132 q 379 1071 390 1093 l 313 1104 q 331 1143 318 1121 q 361 1184 343 1165 q 403 1216 379 1203 q 457 1229 428 1229 q 509 1219 485 1229 q 556 1199 533 1210 q 596 1182 579 1188 q 628 1176 613 1176 q 672 1196 651 1176 q 703 1238 692 1215 l 769 1204 z "},"Ö":{"ha":1081,"x_min":81,"x_max":1000,"o":"m 81 482 q 117 700 81 606 q 217 858 154 794 q 365 953 281 921 q 543 985 449 985 q 719 953 636 985 q 864 858 801 921 q 963 700 926 794 q 1000 482 1000 606 q 963 264 1000 358 q 864 106 926 169 q 719 11 801 43 q 543 -21 636 -21 q 365 11 449 -21 q 217 106 281 43 q 117 264 154 169 q 81 482 81 358 m 222 482 q 244 323 222 394 q 308 201 267 251 q 408 124 349 151 q 540 97 467 97 q 672 124 614 97 q 772 201 731 151 q 835 323 813 251 q 857 482 857 394 q 835 641 857 569 q 772 763 813 713 q 672 840 731 813 q 540 867 614 867 q 408 840 467 867 q 308 763 349 813 q 244 641 267 713 q 222 482 222 569 m 408 1072 q 352 1095 376 1072 q 328 1154 328 1118 q 352 1213 328 1190 q 408 1236 376 1236 q 465 1213 440 1236 q 489 1154 489 1190 q 465 1095 489 1118 q 408 1072 440 1072 m 672 1072 q 616 1095 640 1072 q 592 1154 592 1118 q 616 1213 592 1190 q 672 1236 640 1236 q 728 1213 704 1236 q 753 1154 753 1190 q 728 1095 753 1118 q 672 1072 704 1072 z "},"×":{"ha":783,"x_min":111,"x_max":672,"o":"m 594 135 l 392 338 l 189 135 l 111 213 l 314 415 l 111 618 l 189 696 l 392 493 l 594 696 l 672 618 l 469 415 l 672 213 l 594 135 z "},"Ø":{"ha":1081,"x_min":81,"x_max":1000,"o":"m 81 482 q 117 700 81 606 q 217 858 154 794 q 365 953 281 921 q 543 985 449 985 q 804 907 690 985 l 886 1014 l 972 950 l 883 835 q 969 684 938 772 q 1000 482 1000 596 q 963 264 1000 358 q 864 106 926 169 q 719 11 801 43 q 543 -21 636 -21 q 403 -2 469 -21 q 281 54 338 17 l 200 -50 l 114 14 l 200 125 q 113 276 144 188 q 81 482 81 365 m 222 482 q 283 233 222 331 l 726 807 q 540 867 650 867 q 408 840 467 867 q 308 763 349 813 q 244 641 267 713 q 222 482 222 569 m 540 97 q 672 124 614 97 q 772 201 731 151 q 835 323 813 251 q 857 482 857 394 q 842 616 857 556 q 799 725 826 676 l 357 154 q 540 97 431 97 z "},"Ù":{"ha":956,"x_min":113,"x_max":843,"o":"m 478 -21 q 314 8 383 -21 q 200 88 244 38 q 134 208 156 139 q 113 358 113 278 l 113 963 l 247 963 l 247 374 q 311 164 247 229 q 478 99 375 99 q 572 115 529 99 q 644 164 614 131 q 692 249 675 197 q 708 374 708 301 l 708 963 l 843 963 l 843 358 q 822 208 843 278 q 755 88 800 139 q 641 8 710 38 q 478 -21 572 -21 m 394 1294 l 572 1081 l 507 1022 l 311 1213 l 394 1294 z "},"Ú":{"ha":956,"x_min":113,"x_max":843,"o":"m 478 -21 q 314 8 383 -21 q 200 88 244 38 q 134 208 156 139 q 113 358 113 278 l 113 963 l 247 963 l 247 374 q 311 164 247 229 q 478 99 375 99 q 572 115 529 99 q 644 164 614 131 q 692 249 675 197 q 708 374 708 301 l 708 963 l 843 963 l 843 358 q 822 208 843 278 q 755 88 800 139 q 641 8 710 38 q 478 -21 572 -21 m 646 1213 l 450 1022 l 385 1081 l 563 1294 l 646 1213 z "},"Û":{"ha":956,"x_min":113,"x_max":843,"o":"m 478 -21 q 314 8 383 -21 q 200 88 244 38 q 134 208 156 139 q 113 358 113 278 l 113 963 l 247 963 l 247 374 q 311 164 247 229 q 478 99 375 99 q 572 115 529 99 q 644 164 614 131 q 692 249 675 197 q 708 374 708 301 l 708 963 l 843 963 l 843 358 q 822 208 843 278 q 755 88 800 139 q 641 8 710 38 q 478 -21 572 -21 m 478 1285 l 667 1086 l 613 1025 l 478 1147 l 343 1025 l 289 1086 l 478 1285 z "},"Ü":{"ha":956,"x_min":113,"x_max":843,"o":"m 478 -21 q 314 8 383 -21 q 200 88 244 38 q 134 208 156 139 q 113 358 113 278 l 113 963 l 247 963 l 247 374 q 311 164 247 229 q 478 99 375 99 q 572 115 529 99 q 644 164 614 131 q 692 249 675 197 q 708 374 708 301 l 708 963 l 843 963 l 843 358 q 822 208 843 278 q 755 88 800 139 q 641 8 710 38 q 478 -21 572 -21 m 346 1072 q 290 1095 314 1072 q 265 1154 265 1118 q 290 1213 265 1190 q 346 1236 314 1236 q 402 1213 378 1236 q 426 1154 426 1190 q 402 1095 426 1118 q 346 1072 378 1072 m 610 1072 q 553 1095 578 1072 q 529 1154 529 1118 q 553 1213 529 1190 q 610 1236 578 1236 q 666 1213 642 1236 q 690 1154 690 1190 q 666 1095 690 1118 q 610 1072 642 1072 z "},"Ý":{"ha":831,"x_min":8,"x_max":822,"o":"m 349 0 l 349 386 q 168 679 253 535 q 8 963 83 824 l 167 963 q 285 731 219 849 q 419 506 350 614 q 553 731 488 614 q 672 963 618 849 l 822 963 q 663 680 747 824 q 483 389 578 536 l 483 0 l 349 0 m 585 1213 l 389 1022 l 324 1081 l 501 1294 l 585 1213 z "},"Þ":{"ha":846,"x_min":119,"x_max":796,"o":"m 254 308 l 356 308 q 481 317 425 308 q 574 349 536 326 q 633 408 613 371 q 654 504 654 446 q 633 597 654 560 q 572 655 611 633 q 479 685 533 676 q 360 693 425 693 q 308 693 335 693 q 254 690 281 693 l 254 308 m 254 963 l 254 806 q 309 809 281 808 q 364 810 338 810 q 796 503 796 810 q 766 362 796 419 q 680 267 736 304 q 543 214 624 231 q 361 197 463 197 l 254 197 l 254 0 l 119 0 l 119 963 l 254 963 z "},"ß":{"ha":865,"x_min":111,"x_max":810,"o":"m 692 856 q 682 794 692 821 q 658 744 672 767 q 626 701 643 721 q 593 665 608 682 q 539 608 561 631 q 517 550 517 585 q 527 514 517 529 q 554 488 538 499 q 591 467 571 476 q 632 447 611 457 q 702 408 669 429 q 759 360 735 388 q 797 297 783 333 q 810 208 810 260 q 742 42 810 100 q 533 -17 675 -17 q 475 -12 504 -17 q 421 -2 446 -8 q 377 11 396 4 q 350 22 358 18 l 372 135 q 398 124 381 131 q 438 110 415 117 q 488 98 461 103 q 543 93 515 93 q 646 124 613 93 q 679 206 679 154 q 647 294 679 260 q 536 365 615 329 q 460 405 490 386 q 414 443 431 424 q 390 483 397 463 q 383 532 383 504 q 414 625 383 588 q 479 699 444 663 q 508 729 493 713 q 535 763 522 746 q 555 799 547 781 q 563 836 563 817 q 526 931 563 897 q 418 965 490 965 q 283 913 325 965 q 240 767 240 860 l 240 0 l 111 0 l 111 769 q 131 896 111 839 q 188 993 150 953 q 281 1056 225 1033 q 408 1078 336 1078 q 538 1061 483 1078 q 626 1015 592 1044 q 676 944 660 985 q 692 856 692 903 z "},"à":{"ha":725,"x_min":60,"x_max":622,"o":"m 356 93 q 437 95 401 93 q 496 103 472 97 l 496 318 q 451 330 482 325 q 375 335 419 335 q 313 331 346 335 q 253 313 281 326 q 208 277 226 300 q 190 217 190 254 q 235 120 190 147 q 356 93 279 93 m 344 740 q 476 720 422 740 q 562 663 529 700 q 608 576 594 626 q 622 464 622 525 l 622 13 q 576 5 606 10 q 508 -4 546 0 q 427 -12 471 -8 q 340 -15 383 -15 q 228 -3 279 -15 q 139 37 176 10 q 81 108 101 64 q 60 215 60 153 q 84 318 60 275 q 150 388 108 361 q 247 426 192 414 q 364 439 303 439 q 404 437 383 439 q 444 431 425 435 q 476 425 463 428 q 496 421 490 422 l 496 457 q 489 520 496 489 q 464 576 482 551 q 415 615 446 600 q 333 629 383 629 q 222 620 269 629 q 150 601 174 611 l 135 708 q 218 730 160 719 q 344 740 276 740 m 282 1078 l 460 864 l 394 806 l 199 996 l 282 1078 z "},"á":{"ha":725,"x_min":60,"x_max":622,"o":"m 356 93 q 437 95 401 93 q 496 103 472 97 l 496 318 q 451 330 482 325 q 375 335 419 335 q 313 331 346 335 q 253 313 281 326 q 208 277 226 300 q 190 217 190 254 q 235 120 190 147 q 356 93 279 93 m 344 740 q 476 720 422 740 q 562 663 529 700 q 608 576 594 626 q 622 464 622 525 l 622 13 q 576 5 606 10 q 508 -4 546 0 q 427 -12 471 -8 q 340 -15 383 -15 q 228 -3 279 -15 q 139 37 176 10 q 81 108 101 64 q 60 215 60 153 q 84 318 60 275 q 150 388 108 361 q 247 426 192 414 q 364 439 303 439 q 404 437 383 439 q 444 431 425 435 q 476 425 463 428 q 496 421 490 422 l 496 457 q 489 520 496 489 q 464 576 482 551 q 415 615 446 600 q 333 629 383 629 q 222 620 269 629 q 150 601 174 611 l 135 708 q 218 730 160 719 q 344 740 276 740 m 533 996 l 338 806 l 272 864 l 450 1078 l 533 996 z "},"â":{"ha":725,"x_min":60,"x_max":622,"o":"m 356 93 q 437 95 401 93 q 496 103 472 97 l 496 318 q 451 330 482 325 q 375 335 419 335 q 313 331 346 335 q 253 313 281 326 q 208 277 226 300 q 190 217 190 254 q 235 120 190 147 q 356 93 279 93 m 344 740 q 476 720 422 740 q 562 663 529 700 q 608 576 594 626 q 622 464 622 525 l 622 13 q 576 5 606 10 q 508 -4 546 0 q 427 -12 471 -8 q 340 -15 383 -15 q 228 -3 279 -15 q 139 37 176 10 q 81 108 101 64 q 60 215 60 153 q 84 318 60 275 q 150 388 108 361 q 247 426 192 414 q 364 439 303 439 q 404 437 383 439 q 444 431 425 435 q 476 425 463 428 q 496 421 490 422 l 496 457 q 489 520 496 489 q 464 576 482 551 q 415 615 446 600 q 333 629 383 629 q 222 620 269 629 q 150 601 174 611 l 135 708 q 218 730 160 719 q 344 740 276 740 m 365 1068 l 554 869 l 500 808 l 365 931 l 231 808 l 176 869 l 365 1068 z "},"ã":{"ha":725,"x_min":60,"x_max":622,"o":"m 356 93 q 437 95 401 93 q 496 103 472 97 l 496 318 q 451 330 482 325 q 375 335 419 335 q 313 331 346 335 q 253 313 281 326 q 208 277 226 300 q 190 217 190 254 q 235 120 190 147 q 356 93 279 93 m 344 740 q 476 720 422 740 q 562 663 529 700 q 608 576 594 626 q 622 464 622 525 l 622 13 q 576 5 606 10 q 508 -4 546 0 q 427 -12 471 -8 q 340 -15 383 -15 q 228 -3 279 -15 q 139 37 176 10 q 81 108 101 64 q 60 215 60 153 q 84 318 60 275 q 150 388 108 361 q 247 426 192 414 q 364 439 303 439 q 404 437 383 439 q 444 431 425 435 q 476 425 463 428 q 496 421 490 422 l 496 457 q 489 520 496 489 q 464 576 482 551 q 415 615 446 600 q 333 629 383 629 q 222 620 269 629 q 150 601 174 611 l 135 708 q 218 730 160 719 q 344 740 276 740 m 594 988 q 576 949 588 971 q 546 908 564 926 q 503 876 528 889 q 450 863 479 863 q 398 872 422 863 q 351 893 374 882 q 311 910 328 904 q 279 915 294 915 q 235 896 256 915 q 204 854 215 876 l 138 888 q 156 926 143 904 q 186 967 168 949 q 228 999 204 986 q 282 1013 253 1013 q 334 1003 310 1013 q 381 982 358 993 q 421 965 404 971 q 453 960 438 960 q 497 979 476 960 q 528 1021 517 999 l 594 988 z "},"ä":{"ha":725,"x_min":60,"x_max":622,"o":"m 356 93 q 437 95 401 93 q 496 103 472 97 l 496 318 q 451 330 482 325 q 375 335 419 335 q 313 331 346 335 q 253 313 281 326 q 208 277 226 300 q 190 217 190 254 q 235 120 190 147 q 356 93 279 93 m 344 740 q 476 720 422 740 q 562 663 529 700 q 608 576 594 626 q 622 464 622 525 l 622 13 q 576 5 606 10 q 508 -4 546 0 q 427 -12 471 -8 q 340 -15 383 -15 q 228 -3 279 -15 q 139 37 176 10 q 81 108 101 64 q 60 215 60 153 q 84 318 60 275 q 150 388 108 361 q 247 426 192 414 q 364 439 303 439 q 404 437 383 439 q 444 431 425 435 q 476 425 463 428 q 496 421 490 422 l 496 457 q 489 520 496 489 q 464 576 482 551 q 415 615 446 600 q 333 629 383 629 q 222 620 269 629 q 150 601 174 611 l 135 708 q 218 730 160 719 q 344 740 276 740 m 233 856 q 177 878 201 856 q 153 938 153 901 q 177 997 153 974 q 233 1019 201 1019 q 290 997 265 1019 q 314 938 314 974 q 290 878 314 901 q 233 856 265 856 m 497 856 q 441 878 465 856 q 417 938 417 901 q 441 997 417 974 q 497 1019 465 1019 q 553 997 529 1019 q 578 938 578 974 q 553 878 578 901 q 497 856 529 856 z "},"å":{"ha":725,"x_min":60,"x_max":622,"o":"m 356 93 q 437 95 401 93 q 496 103 472 97 l 496 318 q 451 330 482 325 q 375 335 419 335 q 313 331 346 335 q 253 313 281 326 q 208 277 226 300 q 190 217 190 254 q 235 120 190 147 q 356 93 279 93 m 344 740 q 476 720 422 740 q 562 663 529 700 q 608 576 594 626 q 622 464 622 525 l 622 13 q 576 5 606 10 q 508 -4 546 0 q 427 -12 471 -8 q 340 -15 383 -15 q 228 -3 279 -15 q 139 37 176 10 q 81 108 101 64 q 60 215 60 153 q 84 318 60 275 q 150 388 108 361 q 247 426 192 414 q 364 439 303 439 q 404 437 383 439 q 444 431 425 435 q 476 425 463 428 q 496 421 490 422 l 496 457 q 489 520 496 489 q 464 576 482 551 q 415 615 446 600 q 333 629 383 629 q 222 620 269 629 q 150 601 174 611 l 135 708 q 218 730 160 719 q 344 740 276 740 m 508 940 q 497 881 508 907 q 465 837 485 856 q 420 808 446 818 q 365 799 394 799 q 310 808 336 799 q 265 837 285 818 q 234 881 246 856 q 222 940 222 907 q 234 999 222 974 q 265 1044 246 1025 q 310 1072 285 1063 q 365 1082 336 1082 q 420 1072 394 1082 q 465 1044 446 1063 q 497 999 485 1025 q 508 940 508 974 m 439 940 q 417 997 439 976 q 365 1017 396 1017 q 313 997 335 1017 q 292 940 292 976 q 313 884 292 904 q 365 864 335 864 q 417 884 396 864 q 439 940 439 904 z "},"æ":{"ha":1193,"x_min":61,"x_max":1118,"o":"m 851 -17 q 713 2 772 -17 q 610 57 654 21 q 573 35 596 47 q 518 10 550 22 q 447 -9 486 -1 q 360 -17 407 -17 q 235 -4 290 -17 q 142 36 181 8 q 82 108 103 64 q 61 215 61 153 q 85 318 61 275 q 151 388 110 361 q 249 426 193 414 q 365 439 304 439 q 406 437 385 439 q 444 431 426 435 q 476 425 463 428 q 496 421 490 422 l 496 457 q 489 520 496 489 q 464 576 482 551 q 415 615 446 600 q 333 629 383 629 q 222 620 269 629 q 150 601 174 611 l 135 708 q 217 730 160 719 q 342 740 275 740 q 494 708 438 740 q 578 617 550 675 q 686 710 624 679 q 817 740 749 740 q 1040 649 961 740 q 1118 372 1118 557 q 1117 353 1118 361 q 1117 339 1117 346 l 1117 326 l 622 326 q 688 156 631 215 q 865 97 746 97 q 980 109 933 97 q 1050 132 1026 121 l 1068 24 q 985 -3 1044 11 q 851 -17 926 -17 m 363 93 q 476 109 435 93 q 540 140 518 125 q 508 224 519 179 q 494 318 496 268 q 450 330 479 325 q 376 335 421 335 q 315 331 347 335 q 255 313 282 326 q 210 277 228 300 q 192 217 192 254 q 237 119 192 146 q 363 93 282 93 m 983 431 q 940 574 985 518 q 815 631 894 631 q 737 613 771 631 q 680 568 703 596 q 643 504 657 540 q 625 431 629 468 l 983 431 z "},"ç":{"ha":646,"x_min":71,"x_max":618,"o":"m 442 -17 l 426 -51 q 485 -94 467 -71 q 503 -161 503 -117 q 496 -194 503 -176 q 472 -228 489 -212 q 428 -253 456 -243 q 360 -262 400 -262 q 294 -257 324 -262 q 246 -244 264 -251 l 261 -165 q 297 -175 278 -171 q 339 -179 315 -179 q 389 -147 389 -179 q 374 -122 389 -132 q 331 -100 358 -111 l 321 -96 q 336 -56 326 -79 q 357 -11 346 -32 q 233 30 286 -1 q 143 110 179 61 q 89 222 107 158 q 71 360 71 285 q 95 513 71 443 q 164 633 119 582 q 273 712 208 683 q 417 740 338 740 q 514 732 465 740 q 607 706 563 724 l 578 596 q 510 618 549 610 q 429 626 472 626 q 263 558 321 626 q 206 360 206 490 q 219 253 206 301 q 260 169 232 204 q 333 116 289 135 q 442 97 378 97 q 535 107 493 97 q 600 128 576 117 l 618 19 q 588 8 607 14 q 546 -3 569 1 q 495 -12 522 -8 q 442 -17 468 -15 z "},"è":{"ha":776,"x_min":71,"x_max":701,"o":"m 71 360 q 99 527 71 456 q 172 646 126 599 q 278 717 218 693 q 400 740 338 740 q 624 649 546 740 q 701 372 701 558 q 701 351 701 364 q 700 326 701 338 l 206 326 q 271 156 214 214 q 449 97 328 97 q 563 109 517 97 q 633 132 610 121 l 651 24 q 569 -3 628 11 q 435 -17 510 -17 q 272 12 340 -17 q 158 90 203 40 q 92 209 114 140 q 71 360 71 278 m 567 431 q 523 574 568 518 q 399 631 478 631 q 320 613 354 631 q 263 568 286 596 q 226 504 239 540 q 208 431 213 468 l 567 431 m 314 1078 l 492 864 l 426 806 l 231 996 l 314 1078 z "},"é":{"ha":776,"x_min":71,"x_max":701,"o":"m 71 360 q 99 527 71 456 q 172 646 126 599 q 278 717 218 693 q 400 740 338 740 q 624 649 546 740 q 701 372 701 558 q 701 351 701 364 q 700 326 701 338 l 206 326 q 271 156 214 214 q 449 97 328 97 q 563 109 517 97 q 633 132 610 121 l 651 24 q 569 -3 628 11 q 435 -17 510 -17 q 272 12 340 -17 q 158 90 203 40 q 92 209 114 140 q 71 360 71 278 m 567 431 q 523 574 568 518 q 399 631 478 631 q 320 613 354 631 q 263 568 286 596 q 226 504 239 540 q 208 431 213 468 l 567 431 m 565 996 l 369 806 l 304 864 l 482 1078 l 565 996 z "},"ê":{"ha":776,"x_min":71,"x_max":701,"o":"m 71 360 q 99 527 71 456 q 172 646 126 599 q 278 717 218 693 q 400 740 338 740 q 624 649 546 740 q 701 372 701 558 q 701 351 701 364 q 700 326 701 338 l 206 326 q 271 156 214 214 q 449 97 328 97 q 563 109 517 97 q 633 132 610 121 l 651 24 q 569 -3 628 11 q 435 -17 510 -17 q 272 12 340 -17 q 158 90 203 40 q 92 209 114 140 q 71 360 71 278 m 567 431 q 523 574 568 518 q 399 631 478 631 q 320 613 354 631 q 263 568 286 596 q 226 504 239 540 q 208 431 213 468 l 567 431 m 397 1068 l 586 869 l 532 808 l 397 931 l 263 808 l 208 869 l 397 1068 z "},"ë":{"ha":776,"x_min":71,"x_max":701,"o":"m 71 360 q 99 527 71 456 q 172 646 126 599 q 278 717 218 693 q 400 740 338 740 q 624 649 546 740 q 701 372 701 558 q 701 351 701 364 q 700 326 701 338 l 206 326 q 271 156 214 214 q 449 97 328 97 q 563 109 517 97 q 633 132 610 121 l 651 24 q 569 -3 628 11 q 435 -17 510 -17 q 272 12 340 -17 q 158 90 203 40 q 92 209 114 140 q 71 360 71 278 m 567 431 q 523 574 568 518 q 399 631 478 631 q 320 613 354 631 q 263 568 286 596 q 226 504 239 540 q 208 431 213 468 l 567 431 m 265 856 q 209 878 233 856 q 185 938 185 901 q 209 997 185 974 q 265 1019 233 1019 q 322 997 297 1019 q 346 938 346 974 q 322 878 346 901 q 265 856 297 856 m 529 856 q 473 878 497 856 q 449 938 449 901 q 473 997 449 974 q 529 1019 497 1019 q 585 997 561 1019 q 610 938 610 974 q 585 878 610 901 q 529 856 561 856 z "},"ì":{"ha":351,"x_min":10,"x_max":271,"o":"m 240 0 l 111 0 l 111 722 l 240 722 l 240 0 m 93 1078 l 271 864 l 206 806 l 10 996 l 93 1078 z "},"í":{"ha":351,"x_min":83,"x_max":344,"o":"m 240 0 l 111 0 l 111 722 l 240 722 l 240 0 m 344 996 l 149 806 l 83 864 l 261 1078 l 344 996 z "},"î":{"ha":351,"x_min":-12,"x_max":365,"o":"m 240 0 l 111 0 l 111 722 l 240 722 l 240 0 m 176 1068 l 365 869 l 311 808 l 176 931 l 42 808 l -12 869 l 176 1068 z "},"ï":{"ha":351,"x_min":-36,"x_max":389,"o":"m 240 0 l 111 0 l 111 722 l 240 722 l 240 0 m 44 856 q -12 878 13 856 q -36 938 -36 901 q -12 997 -36 974 q 44 1019 13 1019 q 101 997 76 1019 q 125 938 125 974 q 101 878 125 901 q 44 856 76 856 m 308 856 q 252 878 276 856 q 228 938 228 901 q 252 997 228 974 q 308 1019 276 1019 q 365 997 340 1019 q 389 938 389 974 q 365 878 389 901 q 308 856 340 856 z "},"ð":{"ha":818,"x_min":71,"x_max":783,"o":"m 783 913 l 635 861 q 710 686 679 786 q 740 456 740 586 q 724 278 740 364 q 669 127 708 193 q 565 22 631 61 q 399 -18 499 -18 q 255 13 317 -18 q 152 93 193 43 q 91 208 111 143 q 71 344 71 274 q 94 485 71 422 q 158 591 117 547 q 260 658 200 635 q 396 681 321 681 q 519 658 467 681 q 597 617 572 636 q 521 822 581 728 l 354 765 l 322 853 l 464 901 q 347 1007 418 956 l 429 1078 q 499 1024 460 1058 q 579 940 539 990 l 751 1000 l 783 913 m 608 451 q 608 474 608 463 q 607 496 607 485 q 508 553 560 538 q 413 568 457 568 q 316 551 356 568 q 251 503 276 533 q 215 432 226 472 q 203 344 203 392 q 215 249 203 294 q 252 170 228 204 q 313 116 276 136 q 399 96 350 96 q 503 126 463 96 q 567 207 544 157 q 599 321 590 257 q 608 451 608 385 z "},"ñ":{"ha":797,"x_min":111,"x_max":694,"o":"m 111 701 q 229 725 156 713 q 399 738 303 738 q 542 713 485 738 q 633 645 599 689 q 681 540 667 601 q 694 406 694 479 l 694 0 l 565 0 l 565 378 q 556 492 565 444 q 526 568 547 539 q 471 610 506 597 q 385 624 436 624 q 342 622 364 624 q 299 619 319 621 q 263 614 279 617 q 240 610 247 611 l 240 0 l 111 0 l 111 701 m 632 988 q 613 949 625 971 q 583 908 601 926 q 541 876 565 889 q 488 863 517 863 q 435 872 460 863 q 389 893 411 882 q 349 910 365 904 q 317 915 332 915 q 273 896 293 915 q 242 854 253 876 l 175 888 q 193 926 181 904 q 224 967 206 949 q 266 999 242 986 q 319 1013 290 1013 q 372 1003 347 1013 q 418 982 396 993 q 458 965 442 971 q 490 960 475 960 q 534 979 514 960 q 565 1021 554 999 l 632 988 z "},"ò":{"ha":819,"x_min":71,"x_max":749,"o":"m 749 361 q 724 206 749 275 q 653 86 699 136 q 546 9 608 36 q 410 -18 483 -18 q 274 9 336 -18 q 166 86 211 36 q 96 206 121 136 q 71 361 71 275 q 96 516 71 446 q 166 636 121 586 q 274 713 211 686 q 410 740 336 740 q 546 713 483 740 q 653 636 608 686 q 724 516 699 586 q 749 361 749 446 m 614 361 q 559 555 614 483 q 410 626 504 626 q 260 555 315 626 q 206 361 206 483 q 260 167 206 239 q 410 96 315 96 q 559 167 504 96 q 614 361 614 239 m 326 1078 l 504 864 l 439 806 l 243 996 l 326 1078 z "},"ó":{"ha":819,"x_min":71,"x_max":749,"o":"m 749 361 q 724 206 749 275 q 653 86 699 136 q 546 9 608 36 q 410 -18 483 -18 q 274 9 336 -18 q 166 86 211 36 q 96 206 121 136 q 71 361 71 275 q 96 516 71 446 q 166 636 121 586 q 274 713 211 686 q 410 740 336 740 q 546 713 483 740 q 653 636 608 686 q 724 516 699 586 q 749 361 749 446 m 614 361 q 559 555 614 483 q 410 626 504 626 q 260 555 315 626 q 206 361 206 483 q 260 167 206 239 q 410 96 315 96 q 559 167 504 96 q 614 361 614 239 m 578 996 l 382 806 l 317 864 l 494 1078 l 578 996 z "},"ô":{"ha":819,"x_min":71,"x_max":749,"o":"m 749 361 q 724 206 749 275 q 653 86 699 136 q 546 9 608 36 q 410 -18 483 -18 q 274 9 336 -18 q 166 86 211 36 q 96 206 121 136 q 71 361 71 275 q 96 516 71 446 q 166 636 121 586 q 274 713 211 686 q 410 740 336 740 q 546 713 483 740 q 653 636 608 686 q 724 516 699 586 q 749 361 749 446 m 614 361 q 559 555 614 483 q 410 626 504 626 q 260 555 315 626 q 206 361 206 483 q 260 167 206 239 q 410 96 315 96 q 559 167 504 96 q 614 361 614 239 m 410 1068 l 599 869 l 544 808 l 410 931 l 275 808 l 221 869 l 410 1068 z "},"õ":{"ha":819,"x_min":71,"x_max":749,"o":"m 749 361 q 724 206 749 275 q 653 86 699 136 q 546 9 608 36 q 410 -18 483 -18 q 274 9 336 -18 q 166 86 211 36 q 96 206 121 136 q 71 361 71 275 q 96 516 71 446 q 166 636 121 586 q 274 713 211 686 q 410 740 336 740 q 546 713 483 740 q 653 636 608 686 q 724 516 699 586 q 749 361 749 446 m 614 361 q 559 555 614 483 q 410 626 504 626 q 260 555 315 626 q 206 361 206 483 q 260 167 206 239 q 410 96 315 96 q 559 167 504 96 q 614 361 614 239 m 639 988 q 620 949 632 971 q 590 908 608 926 q 548 876 572 889 q 494 863 524 863 q 442 872 467 863 q 396 893 418 882 q 356 910 372 904 q 324 915 339 915 q 280 896 300 915 q 249 854 260 876 l 182 888 q 200 926 188 904 q 231 967 213 949 q 273 999 249 986 q 326 1013 297 1013 q 378 1003 354 1013 q 425 982 403 993 q 465 965 449 971 q 497 960 482 960 q 541 979 521 960 q 572 1021 561 999 l 639 988 z "},"ö":{"ha":819,"x_min":71,"x_max":749,"o":"m 749 361 q 724 206 749 275 q 653 86 699 136 q 546 9 608 36 q 410 -18 483 -18 q 274 9 336 -18 q 166 86 211 36 q 96 206 121 136 q 71 361 71 275 q 96 516 71 446 q 166 636 121 586 q 274 713 211 686 q 410 740 336 740 q 546 713 483 740 q 653 636 608 686 q 724 516 699 586 q 749 361 749 446 m 614 361 q 559 555 614 483 q 410 626 504 626 q 260 555 315 626 q 206 361 206 483 q 260 167 206 239 q 410 96 315 96 q 559 167 504 96 q 614 361 614 239 m 278 856 q 222 878 246 856 q 197 938 197 901 q 222 997 197 974 q 278 1019 246 1019 q 334 997 310 1019 q 358 938 358 974 q 334 878 358 901 q 278 856 310 856 m 542 856 q 485 878 510 856 q 461 938 461 901 q 485 997 461 974 q 542 1019 510 1019 q 598 997 574 1019 q 622 938 622 974 q 598 878 622 901 q 542 856 574 856 z "},"÷":{"ha":783,"x_min":74,"x_max":710,"o":"m 392 63 q 333 85 357 63 q 308 147 308 108 q 333 209 308 186 q 392 232 357 232 q 451 209 426 232 q 475 147 475 186 q 451 85 475 108 q 392 63 426 63 m 392 599 q 333 622 357 599 q 308 683 308 644 q 333 745 308 722 q 392 768 357 768 q 451 745 426 768 q 475 683 475 722 q 451 622 475 644 q 392 599 426 599 m 74 471 l 710 471 l 710 361 l 74 361 l 74 471 z "},"ø":{"ha":819,"x_min":71,"x_max":749,"o":"m 667 618 q 727 505 706 569 q 749 361 749 440 q 724 206 749 275 q 653 86 699 136 q 546 9 608 36 q 410 -18 483 -18 q 219 39 300 -18 l 151 -50 l 78 6 l 153 103 q 92 217 114 151 q 71 361 71 282 q 96 516 71 446 q 166 636 121 586 q 274 713 211 686 q 410 740 336 740 q 512 725 464 740 q 600 682 560 710 l 668 771 l 742 715 l 667 618 m 204 361 q 233 208 204 271 l 528 589 q 410 628 478 628 q 259 556 314 628 q 204 361 204 485 m 615 361 q 585 513 615 447 l 292 132 q 410 94 339 94 q 560 166 506 94 q 615 361 615 238 z "},"ù":{"ha":797,"x_min":103,"x_max":686,"o":"m 686 21 q 569 -3 642 10 q 400 -15 496 -15 q 260 9 317 -15 q 168 78 203 33 q 118 183 133 122 q 103 317 103 243 l 103 722 l 232 722 l 232 344 q 274 156 232 213 q 414 99 315 99 q 457 100 435 99 q 499 103 479 101 q 534 108 518 106 q 557 113 550 110 l 557 722 l 686 722 l 686 21 m 311 1078 l 489 864 l 424 806 l 228 996 l 311 1078 z "},"ú":{"ha":797,"x_min":103,"x_max":686,"o":"m 686 21 q 569 -3 642 10 q 400 -15 496 -15 q 260 9 317 -15 q 168 78 203 33 q 118 183 133 122 q 103 317 103 243 l 103 722 l 232 722 l 232 344 q 274 156 232 213 q 414 99 315 99 q 457 100 435 99 q 499 103 479 101 q 534 108 518 106 q 557 113 550 110 l 557 722 l 686 722 l 686 21 m 563 996 l 367 806 l 301 864 l 479 1078 l 563 996 z "},"û":{"ha":797,"x_min":103,"x_max":686,"o":"m 686 21 q 569 -3 642 10 q 400 -15 496 -15 q 260 9 317 -15 q 168 78 203 33 q 118 183 133 122 q 103 317 103 243 l 103 722 l 232 722 l 232 344 q 274 156 232 213 q 414 99 315 99 q 457 100 435 99 q 499 103 479 101 q 534 108 518 106 q 557 113 550 110 l 557 722 l 686 722 l 686 21 m 394 1068 l 583 869 l 529 808 l 394 931 l 260 808 l 206 869 l 394 1068 z "},"ü":{"ha":797,"x_min":103,"x_max":686,"o":"m 686 21 q 569 -3 642 10 q 400 -15 496 -15 q 260 9 317 -15 q 168 78 203 33 q 118 183 133 122 q 103 317 103 243 l 103 722 l 232 722 l 232 344 q 274 156 232 213 q 414 99 315 99 q 457 100 435 99 q 499 103 479 101 q 534 108 518 106 q 557 113 550 110 l 557 722 l 686 722 l 686 21 m 263 856 q 206 878 231 856 q 182 938 182 901 q 206 997 182 974 q 263 1019 231 1019 q 319 997 294 1019 q 343 938 343 974 q 319 878 343 901 q 263 856 294 856 m 526 856 q 470 878 494 856 q 446 938 446 901 q 470 997 446 974 q 526 1019 494 1019 q 583 997 558 1019 q 607 938 607 974 q 583 878 607 901 q 526 856 558 856 z "},"ý":{"ha":690,"x_min":3,"x_max":665,"o":"m 26 -135 q 66 -148 42 -142 q 114 -154 90 -154 q 233 -120 190 -154 q 311 -10 276 -86 q 148 344 224 157 q 22 722 72 531 l 161 722 q 198 588 176 660 q 246 439 219 515 q 303 286 272 363 q 367 139 333 210 q 458 428 419 285 q 532 722 497 571 l 665 722 q 554 330 615 518 q 422 -22 493 142 q 365 -130 394 -85 q 299 -204 335 -175 q 217 -247 263 -233 q 115 -261 172 -261 q 83 -259 100 -261 q 51 -253 67 -257 q 22 -246 35 -250 q 3 -239 8 -242 l 26 -135 m 531 996 l 335 806 l 269 864 l 447 1078 l 531 996 z "},"þ":{"ha":818,"x_min":111,"x_max":747,"o":"m 613 360 q 550 555 613 486 q 383 624 488 624 q 340 621 363 624 q 298 615 318 618 q 263 607 278 611 q 240 600 247 603 l 240 153 q 308 115 264 133 q 406 97 353 97 q 501 117 461 97 q 565 173 540 138 q 601 256 590 208 q 613 360 613 304 m 747 360 q 726 208 747 278 q 663 89 704 139 q 560 11 621 39 q 422 -17 500 -17 q 312 0 360 -17 q 240 32 264 17 l 240 -257 l 111 -257 l 111 1056 l 240 1078 l 240 710 q 316 730 276 722 q 392 738 356 738 q 537 711 471 738 q 649 636 603 685 q 722 517 696 588 q 747 360 747 447 z "},"ÿ":{"ha":690,"x_min":3,"x_max":665,"o":"m 26 -135 q 66 -148 42 -142 q 114 -154 90 -154 q 233 -120 190 -154 q 311 -10 276 -86 q 148 344 224 157 q 22 722 72 531 l 161 722 q 198 588 176 660 q 246 439 219 515 q 303 286 272 363 q 367 139 333 210 q 458 428 419 285 q 532 722 497 571 l 665 722 q 554 330 615 518 q 422 -22 493 142 q 365 -130 394 -85 q 299 -204 335 -175 q 217 -247 263 -233 q 115 -261 172 -261 q 83 -259 100 -261 q 51 -253 67 -257 q 22 -246 35 -250 q 3 -239 8 -242 l 26 -135 m 231 856 q 174 878 199 856 q 150 938 150 901 q 174 997 150 974 q 231 1019 199 1019 q 287 997 263 1019 q 311 938 311 974 q 287 878 311 901 q 231 856 263 856 m 494 856 q 438 878 463 856 q 414 938 414 901 q 438 997 414 974 q 494 1019 463 1019 q 551 997 526 1019 q 575 938 575 974 q 551 878 575 901 q 494 856 526 856 z "},"Ā":{"ha":921,"x_min":11,"x_max":910,"o":"m 763 0 q 718 123 739 63 q 675 246 697 183 l 239 246 l 151 0 l 11 0 q 115 283 67 153 q 210 529 164 413 q 303 752 257 646 q 399 963 349 858 l 522 963 q 618 752 572 858 q 710 529 664 646 q 806 283 757 413 q 910 0 854 153 l 763 0 m 636 357 q 548 591 592 478 q 457 808 504 704 q 365 591 408 704 q 278 357 321 478 l 636 357 m 263 1204 l 657 1204 l 657 1104 l 263 1104 l 263 1204 z "},"ā":{"ha":725,"x_min":60,"x_max":622,"o":"m 356 93 q 437 95 401 93 q 496 103 472 97 l 496 318 q 451 330 482 325 q 375 335 419 335 q 313 331 346 335 q 253 313 281 326 q 208 277 226 300 q 190 217 190 254 q 235 120 190 147 q 356 93 279 93 m 344 740 q 476 720 422 740 q 562 663 529 700 q 608 576 594 626 q 622 464 622 525 l 622 13 q 576 5 606 10 q 508 -4 546 0 q 427 -12 471 -8 q 340 -15 383 -15 q 228 -3 279 -15 q 139 37 176 10 q 81 108 101 64 q 60 215 60 153 q 84 318 60 275 q 150 388 108 361 q 247 426 192 414 q 364 439 303 439 q 404 437 383 439 q 444 431 425 435 q 476 425 463 428 q 496 421 490 422 l 496 457 q 489 520 496 489 q 464 576 482 551 q 415 615 446 600 q 333 629 383 629 q 222 620 269 629 q 150 601 174 611 l 135 708 q 218 730 160 719 q 344 740 276 740 m 168 988 l 563 988 l 563 888 l 168 888 l 168 988 z "},"Ă":{"ha":921,"x_min":11,"x_max":910,"o":"m 763 0 q 718 123 739 63 q 675 246 697 183 l 239 246 l 151 0 l 11 0 q 115 283 67 153 q 210 529 164 413 q 303 752 257 646 q 399 963 349 858 l 522 963 q 618 752 572 858 q 710 529 664 646 q 806 283 757 413 q 910 0 854 153 l 763 0 m 636 357 q 548 591 592 478 q 457 808 504 704 q 365 591 408 704 q 278 357 321 478 l 636 357 m 461 1064 q 388 1077 422 1064 q 328 1115 354 1090 q 289 1175 303 1139 q 276 1257 275 1211 l 360 1257 q 366 1224 361 1242 q 382 1191 371 1206 q 413 1167 393 1176 q 461 1157 432 1157 q 510 1167 490 1157 q 540 1191 529 1176 q 556 1224 551 1206 q 563 1257 561 1242 l 646 1257 q 633 1175 647 1211 q 594 1115 619 1139 q 534 1077 568 1090 q 461 1064 500 1064 z "},"ă":{"ha":725,"x_min":60,"x_max":622,"o":"m 356 93 q 437 95 401 93 q 496 103 472 97 l 496 318 q 451 330 482 325 q 375 335 419 335 q 313 331 346 335 q 253 313 281 326 q 208 277 226 300 q 190 217 190 254 q 235 120 190 147 q 356 93 279 93 m 344 740 q 476 720 422 740 q 562 663 529 700 q 608 576 594 626 q 622 464 622 525 l 622 13 q 576 5 606 10 q 508 -4 546 0 q 427 -12 471 -8 q 340 -15 383 -15 q 228 -3 279 -15 q 139 37 176 10 q 81 108 101 64 q 60 215 60 153 q 84 318 60 275 q 150 388 108 361 q 247 426 192 414 q 364 439 303 439 q 404 437 383 439 q 444 431 425 435 q 476 425 463 428 q 496 421 490 422 l 496 457 q 489 520 496 489 q 464 576 482 551 q 415 615 446 600 q 333 629 383 629 q 222 620 269 629 q 150 601 174 611 l 135 708 q 218 730 160 719 q 344 740 276 740 m 365 847 q 292 860 326 847 q 233 898 258 874 q 193 958 207 922 q 181 1040 179 994 l 264 1040 q 270 1007 265 1025 q 286 974 275 989 q 317 950 297 960 q 365 940 336 940 q 414 950 394 940 q 444 974 433 960 q 460 1007 456 989 q 467 1040 465 1025 l 550 1040 q 538 958 551 994 q 498 898 524 922 q 438 860 472 874 q 365 847 404 847 z "},"Ą":{"ha":921,"x_min":11,"x_max":914,"o":"m 764 -3 q 719 122 740 60 q 675 246 697 183 l 239 246 l 151 0 l 11 0 q 115 283 67 153 q 210 529 164 413 q 303 752 257 646 q 399 963 349 858 l 522 963 q 618 752 572 858 q 710 530 664 646 q 804 284 756 414 q 908 3 853 154 q 875 -18 896 -4 q 833 -54 854 -32 q 803 -93 814 -76 q 792 -129 792 -110 q 847 -169 792 -169 q 873 -167 857 -169 q 904 -160 889 -165 l 914 -244 q 874 -256 899 -251 q 822 -260 850 -260 q 707 -231 744 -260 q 669 -154 669 -203 q 687 -92 669 -122 q 728 -37 704 -62 q 748 -18 739 -26 q 764 -3 757 -10 m 636 357 q 548 591 592 478 q 457 808 504 704 q 365 591 408 704 q 278 357 321 478 l 636 357 z "},"ą":{"ha":725,"x_min":60,"x_max":622,"o":"m 356 93 q 437 95 401 93 q 496 103 472 97 l 496 318 q 451 330 482 325 q 375 335 419 335 q 313 331 346 335 q 253 313 281 326 q 208 277 226 300 q 190 217 190 254 q 235 120 190 147 q 356 93 279 93 m 344 740 q 476 720 422 740 q 562 663 529 700 q 608 576 594 626 q 622 464 622 525 l 622 13 q 585 -16 606 0 q 544 -54 565 -32 q 513 -93 525 -76 q 500 -129 500 -110 q 556 -169 500 -169 q 581 -167 565 -169 q 613 -160 597 -165 l 622 -244 q 583 -256 607 -251 q 531 -260 558 -260 q 415 -231 453 -260 q 378 -154 378 -203 q 397 -92 378 -122 q 440 -37 417 -62 q 457 -22 447 -29 q 474 -7 467 -14 q 408 -12 442 -10 q 340 -15 374 -15 q 228 -3 279 -15 q 139 37 176 10 q 81 108 101 64 q 60 215 60 153 q 84 318 60 275 q 150 388 108 361 q 247 426 192 414 q 364 439 303 439 q 404 437 383 439 q 444 431 425 435 q 476 425 463 428 q 496 421 490 422 l 496 457 q 489 520 496 489 q 464 576 482 551 q 415 615 446 600 q 333 629 383 629 q 222 620 269 629 q 150 601 174 611 l 135 708 q 218 730 160 719 q 344 740 276 740 z "},"Ć":{"ha":861,"x_min":81,"x_max":826,"o":"m 533 -21 q 349 13 432 -21 q 206 110 265 46 q 113 267 146 174 q 81 482 81 361 q 117 697 81 603 q 217 854 154 790 q 363 951 279 918 q 540 985 446 985 q 648 976 600 985 q 731 957 696 968 q 789 935 767 946 q 819 918 811 924 l 781 807 q 744 825 768 815 q 691 844 721 835 q 626 860 661 854 q 554 867 590 867 q 417 840 478 867 q 313 764 356 814 q 247 642 269 714 q 224 482 224 571 q 244 325 224 396 q 304 203 264 254 q 405 125 344 153 q 546 97 465 97 q 700 117 639 97 q 792 151 761 136 l 826 40 q 792 23 817 33 q 729 3 767 13 q 642 -14 692 -7 q 533 -21 592 -21 m 678 1213 l 482 1022 l 417 1081 l 594 1294 l 678 1213 z "},"ć":{"ha":646,"x_min":71,"x_max":618,"o":"m 425 -17 q 272 11 338 -17 q 160 89 206 39 q 93 208 115 139 q 71 360 71 276 q 95 513 71 443 q 164 633 119 582 q 273 712 208 683 q 417 740 338 740 q 514 732 465 740 q 607 706 563 724 l 578 596 q 510 618 549 610 q 429 626 472 626 q 263 558 321 626 q 206 360 206 490 q 219 253 206 301 q 260 169 232 204 q 333 116 289 135 q 442 97 378 97 q 535 107 493 97 q 600 128 576 117 l 618 19 q 586 6 607 13 q 539 -5 565 0 q 483 -13 513 -10 q 425 -17 453 -17 m 567 996 l 371 806 l 306 864 l 483 1078 l 567 996 z "},"Ĉ":{"ha":861,"x_min":81,"x_max":826,"o":"m 533 -21 q 349 13 432 -21 q 206 110 265 46 q 113 267 146 174 q 81 482 81 361 q 117 697 81 603 q 217 854 154 790 q 363 951 279 918 q 540 985 446 985 q 648 976 600 985 q 731 957 696 968 q 789 935 767 946 q 819 918 811 924 l 781 807 q 744 825 768 815 q 691 844 721 835 q 626 860 661 854 q 554 867 590 867 q 417 840 478 867 q 313 764 356 814 q 247 642 269 714 q 224 482 224 571 q 244 325 224 396 q 304 203 264 254 q 405 125 344 153 q 546 97 465 97 q 700 117 639 97 q 792 151 761 136 l 826 40 q 792 23 817 33 q 729 3 767 13 q 642 -14 692 -7 q 533 -21 592 -21 m 510 1285 l 699 1086 l 644 1025 l 510 1147 l 375 1025 l 321 1086 l 510 1285 z "},"ĉ":{"ha":646,"x_min":71,"x_max":618,"o":"m 425 -17 q 272 11 338 -17 q 160 89 206 39 q 93 208 115 139 q 71 360 71 276 q 95 513 71 443 q 164 633 119 582 q 273 712 208 683 q 417 740 338 740 q 514 732 465 740 q 607 706 563 724 l 578 596 q 510 618 549 610 q 429 626 472 626 q 263 558 321 626 q 206 360 206 490 q 219 253 206 301 q 260 169 232 204 q 333 116 289 135 q 442 97 378 97 q 535 107 493 97 q 600 128 576 117 l 618 19 q 586 6 607 13 q 539 -5 565 0 q 483 -13 513 -10 q 425 -17 453 -17 m 399 1068 l 588 869 l 533 808 l 399 931 l 264 808 l 210 869 l 399 1068 z "},"Ċ":{"ha":861,"x_min":81,"x_max":826,"o":"m 533 -21 q 349 13 432 -21 q 206 110 265 46 q 113 267 146 174 q 81 482 81 361 q 117 697 81 603 q 217 854 154 790 q 363 951 279 918 q 540 985 446 985 q 648 976 600 985 q 731 957 696 968 q 789 935 767 946 q 819 918 811 924 l 781 807 q 744 825 768 815 q 691 844 721 835 q 626 860 661 854 q 554 867 590 867 q 417 840 478 867 q 313 764 356 814 q 247 642 269 714 q 224 482 224 571 q 244 325 224 396 q 304 203 264 254 q 405 125 344 153 q 546 97 465 97 q 700 117 639 97 q 792 151 761 136 l 826 40 q 792 23 817 33 q 729 3 767 13 q 642 -14 692 -7 q 533 -21 592 -21 m 510 1069 q 451 1092 475 1069 q 426 1154 426 1115 q 451 1216 426 1193 q 510 1239 475 1239 q 569 1216 544 1239 q 593 1154 593 1193 q 569 1092 593 1115 q 510 1069 544 1069 z "},"ċ":{"ha":646,"x_min":71,"x_max":618,"o":"m 425 -17 q 272 11 338 -17 q 160 89 206 39 q 93 208 115 139 q 71 360 71 276 q 95 513 71 443 q 164 633 119 582 q 273 712 208 683 q 417 740 338 740 q 514 732 465 740 q 607 706 563 724 l 578 596 q 510 618 549 610 q 429 626 472 626 q 263 558 321 626 q 206 360 206 490 q 219 253 206 301 q 260 169 232 204 q 333 116 289 135 q 442 97 378 97 q 535 107 493 97 q 600 128 576 117 l 618 19 q 586 6 607 13 q 539 -5 565 0 q 483 -13 513 -10 q 425 -17 453 -17 m 399 853 q 340 876 364 853 q 315 938 315 899 q 340 999 315 976 q 399 1022 364 1022 q 458 999 433 1022 q 482 938 482 976 q 458 876 482 899 q 399 853 433 853 z "},"Č":{"ha":861,"x_min":81,"x_max":826,"o":"m 533 -21 q 349 13 432 -21 q 206 110 265 46 q 113 267 146 174 q 81 482 81 361 q 117 697 81 603 q 217 854 154 790 q 363 951 279 918 q 540 985 446 985 q 648 976 600 985 q 731 957 696 968 q 789 935 767 946 q 819 918 811 924 l 781 807 q 744 825 768 815 q 691 844 721 835 q 626 860 661 854 q 554 867 590 867 q 417 840 478 867 q 313 764 356 814 q 247 642 269 714 q 224 482 224 571 q 244 325 224 396 q 304 203 264 254 q 405 125 344 153 q 546 97 465 97 q 700 117 639 97 q 792 151 761 136 l 826 40 q 792 23 817 33 q 729 3 767 13 q 642 -14 692 -7 q 533 -21 592 -21 m 321 1229 l 375 1290 l 510 1168 l 644 1290 l 699 1229 l 510 1031 l 321 1229 z "},"č":{"ha":646,"x_min":71,"x_max":618,"o":"m 425 -17 q 272 11 338 -17 q 160 89 206 39 q 93 208 115 139 q 71 360 71 276 q 95 513 71 443 q 164 633 119 582 q 273 712 208 683 q 417 740 338 740 q 514 732 465 740 q 607 706 563 724 l 578 596 q 510 618 549 610 q 429 626 472 626 q 263 558 321 626 q 206 360 206 490 q 219 253 206 301 q 260 169 232 204 q 333 116 289 135 q 442 97 378 97 q 535 107 493 97 q 600 128 576 117 l 618 19 q 586 6 607 13 q 539 -5 565 0 q 483 -13 513 -10 q 425 -17 453 -17 m 210 1013 l 264 1074 l 399 951 l 533 1074 l 588 1013 l 399 814 l 210 1013 z "},"Ď":{"ha":990,"x_min":119,"x_max":910,"o":"m 910 482 q 871 265 910 357 q 761 112 832 172 q 592 22 690 51 q 375 -8 493 -8 q 247 -3 317 -8 q 119 15 176 1 l 119 949 q 247 967 176 963 q 375 972 317 972 q 592 942 493 972 q 761 852 690 913 q 871 699 832 792 q 910 482 910 607 m 386 110 q 672 208 578 110 q 767 482 767 306 q 672 756 767 658 q 386 854 578 854 q 298 853 329 854 q 254 850 267 851 l 254 114 q 298 111 267 113 q 386 110 329 110 m 271 1229 l 325 1290 l 460 1168 l 594 1290 l 649 1229 l 460 1031 l 271 1229 z "},"ď":{"ha":864,"x_min":71,"x_max":928,"o":"m 578 569 q 510 607 554 589 q 413 625 465 625 q 317 605 357 625 q 253 549 278 585 q 217 465 228 514 q 206 361 206 417 q 268 166 206 235 q 435 97 331 97 q 523 102 488 97 q 578 113 558 107 l 578 569 m 578 1056 l 707 1078 l 707 21 q 593 -4 663 8 q 433 -17 524 -17 q 283 10 350 -17 q 169 85 217 36 q 97 203 122 133 q 71 361 71 274 q 92 514 71 444 q 156 633 114 583 q 258 711 197 683 q 396 739 318 739 q 506 722 458 739 q 578 690 554 706 l 578 1056 m 928 1078 l 890 768 l 804 768 l 804 1078 l 928 1078 z "},"Đ":{"ha":1008,"x_min":26,"x_max":928,"o":"m 928 482 q 889 265 928 357 q 779 112 850 172 q 610 22 708 51 q 393 -8 511 -8 q 265 -3 335 -8 q 138 15 194 1 l 138 450 l 26 450 l 26 554 l 138 554 l 138 949 q 265 967 194 963 q 393 972 335 972 q 610 942 511 972 q 779 852 708 913 q 889 699 850 792 q 928 482 928 607 m 404 110 q 690 208 596 110 q 785 482 785 306 q 690 756 785 658 q 404 854 596 854 q 316 853 347 854 q 272 850 285 851 l 272 554 l 453 554 l 453 450 l 272 450 l 272 114 q 316 111 285 113 q 404 110 347 110 z "},"đ":{"ha":818,"x_min":71,"x_max":810,"o":"m 578 564 q 510 601 554 583 q 413 619 465 619 q 317 600 357 619 q 253 546 278 581 q 217 463 228 511 q 206 360 206 415 q 268 165 206 233 q 435 97 331 97 q 523 102 488 97 q 578 113 558 107 l 578 564 m 578 1056 l 707 1078 l 707 949 l 810 949 l 810 853 l 707 853 l 707 21 q 593 -4 663 8 q 433 -17 524 -17 q 283 9 350 -17 q 169 84 217 35 q 97 203 122 133 q 71 360 71 272 q 92 512 71 443 q 156 630 114 581 q 258 706 197 679 q 396 733 318 733 q 506 717 458 733 q 578 685 554 700 l 578 853 l 332 853 l 332 949 l 578 949 l 578 1056 z "},"Ē":{"ha":793,"x_min":119,"x_max":742,"o":"m 119 0 l 119 963 l 707 963 l 707 847 l 254 847 l 254 561 l 657 561 l 657 449 l 254 449 l 254 115 l 742 115 l 742 0 l 119 0 m 215 1204 l 610 1204 l 610 1104 l 215 1104 l 215 1204 z "},"ē":{"ha":776,"x_min":71,"x_max":701,"o":"m 71 360 q 99 527 71 456 q 172 646 126 599 q 278 717 218 693 q 400 740 338 740 q 624 649 546 740 q 701 372 701 558 q 701 351 701 364 q 700 326 701 338 l 206 326 q 271 156 214 214 q 449 97 328 97 q 563 109 517 97 q 633 132 610 121 l 651 24 q 569 -3 628 11 q 435 -17 510 -17 q 272 12 340 -17 q 158 90 203 40 q 92 209 114 140 q 71 360 71 278 m 567 431 q 523 574 568 518 q 399 631 478 631 q 320 613 354 631 q 263 568 286 596 q 226 504 239 540 q 208 431 213 468 l 567 431 m 189 988 l 583 988 l 583 888 l 189 888 l 189 988 z "},"Ĕ":{"ha":793,"x_min":119,"x_max":742,"o":"m 119 0 l 119 963 l 707 963 l 707 847 l 254 847 l 254 561 l 657 561 l 657 449 l 254 449 l 254 115 l 742 115 l 742 0 l 119 0 m 400 1064 q 327 1077 361 1064 q 267 1115 293 1090 q 228 1175 242 1139 q 215 1257 214 1211 l 299 1257 q 305 1224 300 1242 q 321 1191 310 1206 q 351 1167 332 1176 q 400 1157 371 1157 q 449 1167 429 1157 q 479 1191 468 1176 q 495 1224 490 1206 q 501 1257 500 1242 l 585 1257 q 572 1175 586 1211 q 533 1115 558 1139 q 473 1077 507 1090 q 400 1064 439 1064 z "},"ĕ":{"ha":776,"x_min":71,"x_max":701,"o":"m 71 360 q 99 527 71 456 q 172 646 126 599 q 278 717 218 693 q 400 740 338 740 q 624 649 546 740 q 701 372 701 558 q 701 351 701 364 q 700 326 701 338 l 206 326 q 271 156 214 214 q 449 97 328 97 q 563 109 517 97 q 633 132 610 121 l 651 24 q 569 -3 628 11 q 435 -17 510 -17 q 272 12 340 -17 q 158 90 203 40 q 92 209 114 140 q 71 360 71 278 m 567 431 q 523 574 568 518 q 399 631 478 631 q 320 613 354 631 q 263 568 286 596 q 226 504 239 540 q 208 431 213 468 l 567 431 m 392 847 q 319 860 353 847 q 259 898 285 874 q 219 958 233 922 q 207 1040 206 994 l 290 1040 q 297 1007 292 1025 q 313 974 301 989 q 343 950 324 960 q 392 940 363 940 q 440 950 421 940 q 471 974 460 960 q 487 1007 482 989 q 493 1040 492 1025 l 576 1040 q 564 958 578 994 q 524 898 550 922 q 465 860 499 874 q 392 847 431 847 z "},"Ė":{"ha":793,"x_min":119,"x_max":742,"o":"m 119 0 l 119 963 l 707 963 l 707 847 l 254 847 l 254 561 l 657 561 l 657 449 l 254 449 l 254 115 l 742 115 l 742 0 l 119 0 m 413 1069 q 353 1092 378 1069 q 329 1154 329 1115 q 353 1216 329 1193 q 413 1239 378 1239 q 472 1216 447 1239 q 496 1154 496 1193 q 472 1092 496 1115 q 413 1069 447 1069 z "},"ė":{"ha":776,"x_min":71,"x_max":701,"o":"m 71 360 q 99 527 71 456 q 172 646 126 599 q 278 717 218 693 q 400 740 338 740 q 624 649 546 740 q 701 372 701 558 q 701 351 701 364 q 700 326 701 338 l 206 326 q 271 156 214 214 q 449 97 328 97 q 563 109 517 97 q 633 132 610 121 l 651 24 q 569 -3 628 11 q 435 -17 510 -17 q 272 12 340 -17 q 158 90 203 40 q 92 209 114 140 q 71 360 71 278 m 567 431 q 523 574 568 518 q 399 631 478 631 q 320 613 354 631 q 263 568 286 596 q 226 504 239 540 q 208 431 213 468 l 567 431 m 397 853 q 338 876 363 853 q 314 938 314 899 q 338 999 314 976 q 397 1022 363 1022 q 456 999 432 1022 q 481 938 481 976 q 456 876 481 899 q 397 853 432 853 z "},"Ę":{"ha":793,"x_min":119,"x_max":747,"o":"m 119 0 l 119 963 l 707 963 l 707 847 l 254 847 l 254 561 l 657 561 l 657 449 l 254 449 l 254 115 l 742 115 l 742 3 q 708 -18 729 -4 q 667 -54 688 -32 q 636 -93 647 -76 q 625 -129 625 -110 q 681 -169 625 -169 q 706 -167 690 -169 q 738 -160 722 -165 l 747 -244 q 708 -256 732 -251 q 656 -260 683 -260 q 540 -231 578 -260 q 503 -154 503 -203 q 520 -92 503 -122 q 561 -37 538 -62 q 581 -17 572 -26 q 601 0 590 -8 l 119 0 z "},"ę":{"ha":776,"x_min":71,"x_max":701,"o":"m 71 360 q 99 527 71 456 q 172 646 126 599 q 278 717 218 693 q 400 740 338 740 q 624 649 546 740 q 701 372 701 558 q 701 351 701 364 q 700 326 701 338 l 206 326 q 271 156 214 214 q 449 97 328 97 q 563 109 517 97 q 633 132 610 121 l 651 24 q 604 -12 628 6 q 558 -54 581 -31 q 524 -95 535 -78 q 514 -129 514 -112 q 530 -161 514 -153 q 569 -169 546 -169 q 601 -166 586 -169 q 626 -160 617 -162 l 636 -244 q 593 -256 619 -253 q 544 -260 567 -260 q 433 -235 474 -260 q 392 -154 392 -210 q 415 -86 392 -122 q 481 -14 438 -50 q 458 -16 469 -15 q 435 -17 446 -17 q 272 12 340 -17 q 158 90 203 40 q 92 209 114 140 q 71 360 71 278 m 567 431 q 523 574 568 518 q 399 631 478 631 q 320 613 354 631 q 263 568 286 596 q 226 504 239 540 q 208 431 213 468 l 567 431 z "},"Ě":{"ha":793,"x_min":119,"x_max":742,"o":"m 119 0 l 119 963 l 707 963 l 707 847 l 254 847 l 254 561 l 657 561 l 657 449 l 254 449 l 254 115 l 742 115 l 742 0 l 119 0 m 211 1229 l 265 1290 l 400 1168 l 535 1290 l 589 1229 l 400 1031 l 211 1229 z "},"ě":{"ha":776,"x_min":71,"x_max":701,"o":"m 71 360 q 99 527 71 456 q 172 646 126 599 q 278 717 218 693 q 400 740 338 740 q 624 649 546 740 q 701 372 701 558 q 701 351 701 364 q 700 326 701 338 l 206 326 q 271 156 214 214 q 449 97 328 97 q 563 109 517 97 q 633 132 610 121 l 651 24 q 569 -3 628 11 q 435 -17 510 -17 q 272 12 340 -17 q 158 90 203 40 q 92 209 114 140 q 71 360 71 278 m 567 431 q 523 574 568 518 q 399 631 478 631 q 320 613 354 631 q 263 568 286 596 q 226 504 239 540 q 208 431 213 468 l 567 431 m 208 1013 l 263 1074 l 397 951 l 532 1074 l 586 1013 l 397 814 l 208 1013 z "},"Ĝ":{"ha":933,"x_min":81,"x_max":842,"o":"m 707 474 l 842 474 l 842 24 q 794 11 825 18 q 722 -3 763 4 q 632 -15 681 -10 q 533 -19 583 -19 q 349 14 432 -19 q 206 111 265 47 q 113 268 146 175 q 81 482 81 361 q 117 697 81 603 q 217 854 154 790 q 363 951 279 918 q 543 985 447 985 q 659 976 608 985 q 746 957 710 968 q 805 935 782 946 q 836 918 828 924 l 793 806 q 686 849 753 832 q 550 867 619 867 q 416 840 476 867 q 313 764 356 814 q 247 642 271 714 q 224 482 224 571 q 244 325 224 396 q 305 203 264 254 q 406 125 346 153 q 549 97 467 97 q 648 103 607 97 q 707 115 689 110 l 707 474 m 521 1285 l 710 1086 l 656 1025 l 521 1147 l 386 1025 l 332 1086 l 521 1285 z "},"ĝ":{"ha":803,"x_min":71,"x_max":692,"o":"m 564 72 q 499 44 547 61 q 388 26 451 26 q 265 47 322 26 q 164 112 207 68 q 96 221 121 156 q 71 376 71 286 q 94 522 71 456 q 163 635 118 588 q 274 710 208 683 q 421 738 339 738 q 578 724 511 738 q 692 700 646 711 l 692 56 q 606 -186 692 -111 q 344 -261 519 -261 q 216 -250 276 -261 q 111 -224 156 -239 l 135 -111 q 230 -138 174 -126 q 347 -150 286 -150 q 513 -104 463 -150 q 564 42 564 -58 l 564 72 m 563 608 q 510 619 543 614 q 422 624 478 624 q 262 556 318 624 q 206 375 206 488 q 222 268 206 313 q 265 194 238 224 q 327 151 292 165 q 400 138 363 138 q 494 152 451 138 q 563 186 538 167 l 563 608 m 421 1068 l 610 869 l 556 808 l 421 931 l 286 808 l 232 869 l 421 1068 z "},"Ğ":{"ha":933,"x_min":81,"x_max":842,"o":"m 707 474 l 842 474 l 842 24 q 794 11 825 18 q 722 -3 763 4 q 632 -15 681 -10 q 533 -19 583 -19 q 349 14 432 -19 q 206 111 265 47 q 113 268 146 175 q 81 482 81 361 q 117 697 81 603 q 217 854 154 790 q 363 951 279 918 q 543 985 447 985 q 659 976 608 985 q 746 957 710 968 q 805 935 782 946 q 836 918 828 924 l 793 806 q 686 849 753 832 q 550 867 619 867 q 416 840 476 867 q 313 764 356 814 q 247 642 271 714 q 224 482 224 571 q 244 325 224 396 q 305 203 264 254 q 406 125 346 153 q 549 97 467 97 q 648 103 607 97 q 707 115 689 110 l 707 474 m 521 1064 q 448 1077 482 1064 q 388 1115 414 1090 q 349 1175 363 1139 q 336 1257 335 1211 l 419 1257 q 426 1224 421 1242 q 442 1191 431 1206 q 472 1167 453 1176 q 521 1157 492 1157 q 569 1167 550 1157 q 600 1191 589 1176 q 616 1224 611 1206 q 622 1257 621 1242 l 706 1257 q 693 1175 707 1211 q 653 1115 679 1139 q 594 1077 628 1090 q 521 1064 560 1064 z "},"ğ":{"ha":803,"x_min":71,"x_max":692,"o":"m 564 72 q 499 44 547 61 q 388 26 451 26 q 265 47 322 26 q 164 112 207 68 q 96 221 121 156 q 71 376 71 286 q 94 522 71 456 q 163 635 118 588 q 274 710 208 683 q 421 738 339 738 q 578 724 511 738 q 692 700 646 711 l 692 56 q 606 -186 692 -111 q 344 -261 519 -261 q 216 -250 276 -261 q 111 -224 156 -239 l 135 -111 q 230 -138 174 -126 q 347 -150 286 -150 q 513 -104 463 -150 q 564 42 564 -58 l 564 72 m 563 608 q 510 619 543 614 q 422 624 478 624 q 262 556 318 624 q 206 375 206 488 q 222 268 206 313 q 265 194 238 224 q 327 151 292 165 q 400 138 363 138 q 494 152 451 138 q 563 186 538 167 l 563 608 m 421 847 q 348 860 382 847 q 288 898 314 874 q 249 958 263 922 q 236 1040 235 994 l 319 1040 q 326 1007 321 1025 q 342 974 331 989 q 372 950 353 960 q 421 940 392 940 q 469 950 450 940 q 500 974 489 960 q 516 1007 511 989 q 522 1040 521 1025 l 606 1040 q 593 958 607 994 q 553 898 579 922 q 494 860 528 874 q 421 847 460 847 z "},"Ġ":{"ha":933,"x_min":81,"x_max":842,"o":"m 707 474 l 842 474 l 842 24 q 794 11 825 18 q 722 -3 763 4 q 632 -15 681 -10 q 533 -19 583 -19 q 349 14 432 -19 q 206 111 265 47 q 113 268 146 175 q 81 482 81 361 q 117 697 81 603 q 217 854 154 790 q 363 951 279 918 q 543 985 447 985 q 659 976 608 985 q 746 957 710 968 q 805 935 782 946 q 836 918 828 924 l 793 806 q 686 849 753 832 q 550 867 619 867 q 416 840 476 867 q 313 764 356 814 q 247 642 271 714 q 224 482 224 571 q 244 325 224 396 q 305 203 264 254 q 406 125 346 153 q 549 97 467 97 q 648 103 607 97 q 707 115 689 110 l 707 474 m 521 1069 q 462 1092 486 1069 q 438 1154 438 1115 q 462 1216 438 1193 q 521 1239 486 1239 q 580 1216 556 1239 q 604 1154 604 1193 q 580 1092 604 1115 q 521 1069 556 1069 z "},"ġ":{"ha":803,"x_min":71,"x_max":692,"o":"m 564 72 q 499 44 547 61 q 388 26 451 26 q 265 47 322 26 q 164 112 207 68 q 96 221 121 156 q 71 376 71 286 q 94 522 71 456 q 163 635 118 588 q 274 710 208 683 q 421 738 339 738 q 578 724 511 738 q 692 700 646 711 l 692 56 q 606 -186 692 -111 q 344 -261 519 -261 q 216 -250 276 -261 q 111 -224 156 -239 l 135 -111 q 230 -138 174 -126 q 347 -150 286 -150 q 513 -104 463 -150 q 564 42 564 -58 l 564 72 m 563 608 q 510 619 543 614 q 422 624 478 624 q 262 556 318 624 q 206 375 206 488 q 222 268 206 313 q 265 194 238 224 q 327 151 292 165 q 400 138 363 138 q 494 152 451 138 q 563 186 538 167 l 563 608 m 421 853 q 362 876 386 853 q 338 938 338 899 q 362 999 338 976 q 421 1022 386 1022 q 480 999 456 1022 q 504 938 504 976 q 480 876 504 899 q 421 853 456 853 z "},"Ģ":{"ha":933,"x_min":81,"x_max":842,"o":"m 707 474 l 842 474 l 842 24 q 794 11 825 18 q 722 -3 763 4 q 632 -15 681 -10 q 533 -19 583 -19 q 349 14 432 -19 q 206 111 265 47 q 113 268 146 175 q 81 482 81 361 q 117 697 81 603 q 217 854 154 790 q 363 951 279 918 q 543 985 447 985 q 659 976 608 985 q 746 957 710 968 q 805 935 782 946 q 836 918 828 924 l 793 806 q 686 849 753 832 q 550 867 619 867 q 416 840 476 867 q 313 764 356 814 q 247 642 271 714 q 224 482 224 571 q 244 325 224 396 q 305 203 264 254 q 406 125 346 153 q 549 97 467 97 q 648 103 607 97 q 707 115 689 110 l 707 474 m 464 -69 l 588 -69 q 589 -85 589 -76 q 589 -99 589 -94 q 576 -174 589 -143 q 540 -224 563 -204 q 488 -252 518 -243 q 425 -261 458 -261 q 392 -260 407 -261 q 374 -256 378 -258 l 374 -178 q 412 -175 394 -178 q 440 -163 429 -172 q 458 -136 451 -154 q 464 -87 464 -118 l 464 -69 z "},"ģ":{"ha":803,"x_min":71,"x_max":692,"o":"m 564 72 q 499 44 547 61 q 388 26 451 26 q 265 47 322 26 q 164 112 207 68 q 96 221 121 156 q 71 376 71 286 q 94 522 71 456 q 163 635 118 588 q 274 710 208 683 q 421 738 339 738 q 578 724 511 738 q 692 700 646 711 l 692 56 q 606 -186 692 -111 q 344 -261 519 -261 q 216 -250 276 -261 q 111 -224 156 -239 l 135 -111 q 230 -138 174 -126 q 347 -150 286 -150 q 513 -104 463 -150 q 564 42 564 -58 l 564 72 m 563 608 q 510 619 543 614 q 422 624 478 624 q 262 556 318 624 q 206 375 206 488 q 222 268 206 313 q 265 194 238 224 q 327 151 292 165 q 400 138 363 138 q 494 152 451 138 q 563 186 538 167 l 563 608 m 482 846 l 358 846 q 357 862 357 853 q 357 875 357 871 q 371 962 357 925 q 408 1024 385 999 q 458 1063 431 1049 q 514 1085 486 1078 l 560 1022 q 528 997 543 1010 q 503 967 514 985 q 488 926 493 950 q 482 864 482 901 l 482 846 z "},"Ĥ":{"ha":979,"x_min":119,"x_max":860,"o":"m 725 963 l 860 963 l 860 0 l 725 0 l 725 444 l 254 444 l 254 0 l 119 0 l 119 963 l 254 963 l 254 561 l 725 561 l 725 963 m 489 1285 l 678 1086 l 624 1025 l 489 1147 l 354 1025 l 300 1086 l 489 1285 z "},"ĥ":{"ha":793,"x_min":74,"x_max":694,"o":"m 111 0 l 111 1056 l 240 1078 l 240 708 q 317 730 276 722 q 399 738 358 738 q 542 713 485 738 q 633 645 599 689 q 681 540 667 601 q 694 406 694 479 l 694 0 l 565 0 l 565 378 q 556 492 565 444 q 526 568 547 539 q 471 610 506 597 q 385 624 436 624 q 342 621 364 624 q 299 615 319 618 q 263 607 279 611 q 240 600 247 603 l 240 0 l 111 0 m 244 1336 l 415 1204 l 375 1142 l 244 1226 l 114 1142 l 74 1204 l 244 1336 z "},"Ħ":{"ha":1015,"x_min":26,"x_max":989,"o":"m 26 825 l 138 825 l 138 963 l 272 963 l 272 825 l 743 825 l 743 963 l 878 963 l 878 825 l 989 825 l 989 726 l 878 726 l 878 0 l 743 0 l 743 444 l 272 444 l 272 0 l 138 0 l 138 726 l 26 726 l 26 825 m 743 726 l 272 726 l 272 561 l 743 561 l 743 726 z "},"ħ":{"ha":793,"x_min":8,"x_max":694,"o":"m 111 0 l 111 853 l 8 853 l 8 949 l 111 949 l 111 1056 l 240 1078 l 240 949 l 486 949 l 486 853 l 240 853 l 240 703 q 317 724 276 717 q 399 732 358 732 q 542 708 485 732 q 633 640 599 683 q 681 535 667 596 q 694 400 694 474 l 694 0 l 565 0 l 565 372 q 556 486 565 439 q 526 563 547 533 q 471 605 506 592 q 385 618 436 618 q 342 615 364 618 q 299 609 319 613 q 263 601 279 606 q 240 594 247 597 l 240 0 l 111 0 z "},"Ĩ":{"ha":374,"x_min":-40,"x_max":417,"o":"m 119 963 l 254 963 l 254 0 l 119 0 l 119 963 m 417 1204 q 398 1165 410 1188 q 368 1124 386 1143 q 326 1092 350 1106 q 272 1079 301 1079 q 220 1089 244 1079 q 174 1110 196 1099 q 133 1126 150 1121 q 101 1132 117 1132 q 58 1113 78 1132 q 26 1071 38 1093 l -40 1104 q -22 1143 -35 1121 q 8 1184 -10 1165 q 51 1216 26 1203 q 104 1229 75 1229 q 156 1219 132 1229 q 203 1199 181 1210 q 243 1182 226 1188 q 275 1176 260 1176 q 319 1196 299 1176 q 350 1238 339 1215 l 417 1204 z "},"ĩ":{"ha":351,"x_min":-51,"x_max":406,"o":"m 240 0 l 111 0 l 111 722 l 240 722 l 240 0 m 406 988 q 387 949 399 971 q 357 908 375 926 q 315 876 339 889 q 261 863 290 863 q 209 872 233 863 q 163 893 185 882 q 122 910 139 904 q 90 915 106 915 q 47 896 67 915 q 15 854 26 876 l -51 888 q -33 926 -46 904 q -3 967 -21 949 q 40 999 15 986 q 93 1013 64 1013 q 145 1003 121 1013 q 192 982 169 993 q 232 965 215 971 q 264 960 249 960 q 308 979 288 960 q 339 1021 328 999 l 406 988 z "},"Ī":{"ha":374,"x_min":-10,"x_max":385,"o":"m 119 963 l 254 963 l 254 0 l 119 0 l 119 963 m -10 1204 l 385 1204 l 385 1104 l -10 1104 l -10 1204 z "},"ī":{"ha":351,"x_min":-21,"x_max":374,"o":"m 240 0 l 111 0 l 111 722 l 240 722 l 240 0 m -21 988 l 374 988 l 374 888 l -21 888 l -21 988 z "},"Ĭ":{"ha":374,"x_min":1,"x_max":374,"o":"m 119 963 l 254 963 l 254 0 l 119 0 l 119 963 m 188 1064 q 115 1077 149 1064 q 55 1115 81 1090 q 15 1175 29 1139 q 3 1257 1 1211 l 86 1257 q 92 1224 88 1242 q 108 1191 97 1206 q 139 1167 119 1176 q 188 1157 158 1157 q 236 1167 217 1157 q 267 1191 256 1176 q 283 1224 278 1206 q 289 1257 288 1242 l 372 1257 q 360 1175 374 1211 q 320 1115 346 1139 q 260 1077 294 1090 q 188 1064 226 1064 z "},"ĭ":{"ha":351,"x_min":-10,"x_max":363,"o":"m 240 0 l 111 0 l 111 722 l 240 722 l 240 0 m 176 847 q 103 860 138 847 q 44 898 69 874 q 4 958 18 922 q -8 1040 -10 994 l 75 1040 q 81 1007 76 1025 q 97 974 86 989 q 128 950 108 960 q 176 940 147 940 q 225 950 206 940 q 256 974 244 960 q 272 1007 267 989 q 278 1040 276 1025 l 361 1040 q 349 958 363 994 q 309 898 335 922 q 249 860 283 874 q 176 847 215 847 z "},"Į":{"ha":374,"x_min":24,"x_max":268,"o":"m 119 963 l 254 963 l 254 0 q 223 -24 239 -11 q 190 -54 207 -36 q 158 -93 171 -76 q 146 -129 146 -110 q 201 -169 146 -169 q 227 -167 211 -169 q 258 -160 243 -165 l 268 -244 q 176 -260 235 -260 q 60 -231 97 -260 q 24 -154 24 -203 q 42 -92 24 -122 q 83 -37 60 -62 q 103 -17 94 -26 q 119 -3 113 -8 l 119 963 z "},"į":{"ha":351,"x_min":13,"x_max":258,"o":"m 240 0 q 179 -54 207 -25 q 147 -93 160 -76 q 135 -129 135 -110 q 190 -169 135 -169 q 216 -167 200 -169 q 247 -160 232 -165 l 257 -244 q 165 -260 224 -260 q 49 -231 86 -260 q 13 -154 13 -203 q 31 -93 13 -122 q 72 -37 49 -64 q 93 -16 83 -25 q 111 0 103 -7 l 111 722 l 240 722 l 240 0 m 175 853 q 116 876 140 853 q 92 938 92 899 q 116 999 92 976 q 175 1022 140 1022 q 234 999 210 1022 q 258 938 258 976 q 234 876 258 899 q 175 853 210 853 z "},"İ":{"ha":374,"x_min":104,"x_max":271,"o":"m 119 963 l 254 963 l 254 0 l 119 0 l 119 963 m 188 1069 q 128 1092 153 1069 q 104 1154 104 1115 q 128 1216 104 1193 q 188 1239 153 1239 q 247 1216 222 1239 q 271 1154 271 1193 q 247 1092 271 1115 q 188 1069 222 1069 z "},"ı":{"ha":351,"x_min":111,"x_max":240,"o":"m 240 0 l 111 0 l 111 722 l 240 722 l 240 0 z "},"Ĳ":{"ha":1067,"x_min":119,"x_max":961,"o":"m 119 963 l 254 963 l 254 0 l 119 0 l 119 963 m 961 310 q 947 181 961 240 q 895 76 932 121 q 797 5 858 31 q 642 -21 735 -21 q 555 -13 594 -21 q 483 6 515 -6 q 428 31 451 18 q 390 57 404 44 l 443 164 q 519 120 472 143 q 635 97 565 97 q 781 148 735 97 q 826 322 826 199 l 826 963 l 961 963 l 961 310 z "},"ĳ":{"ha":708,"x_min":92,"x_max":615,"o":"m 240 0 l 111 0 l 111 722 l 240 722 l 240 0 m 175 853 q 116 876 140 853 q 92 938 92 899 q 116 999 92 976 q 175 1022 140 1022 q 234 999 210 1022 q 258 938 258 976 q 234 876 258 899 q 175 853 210 853 m 350 -260 q 307 -256 333 -260 q 263 -244 281 -251 l 279 -139 q 311 -146 293 -143 q 344 -149 329 -149 q 440 -108 411 -149 q 468 13 468 -67 l 468 722 l 597 722 l 597 14 q 534 -192 597 -125 q 350 -260 471 -260 m 532 853 q 473 876 497 853 q 449 938 449 899 q 473 999 449 976 q 532 1022 497 1022 q 591 999 567 1022 q 615 938 615 976 q 591 876 615 899 q 532 853 567 853 z "},"Ĵ":{"ha":694,"x_min":11,"x_max":703,"o":"m 582 310 q 567 181 582 240 q 516 76 553 121 q 417 5 479 31 q 263 -21 356 -21 q 176 -13 215 -21 q 104 6 136 -6 q 49 31 72 18 q 11 57 25 44 l 64 164 q 140 120 93 143 q 256 97 186 97 q 401 148 356 97 q 447 322 447 199 l 447 963 l 582 963 l 582 310 m 514 1285 l 703 1086 l 649 1025 l 514 1147 l 379 1025 l 325 1086 l 514 1285 z "},"ĵ":{"ha":351,"x_min":-94,"x_max":365,"o":"m -7 -257 q -50 -253 -24 -257 q -94 -242 -76 -249 l -78 -136 q -46 -143 -64 -140 q -12 -146 -28 -146 q 83 -105 54 -146 q 111 15 111 -64 l 111 722 l 240 722 l 240 17 q 177 -190 240 -122 q -7 -257 114 -257 m 176 1068 l 365 869 l 311 808 l 176 931 l 42 808 l -12 869 l 176 1068 z "},"Ķ":{"ha":874,"x_min":119,"x_max":865,"o":"m 832 963 q 735 858 789 915 q 622 740 681 800 q 504 621 563 679 q 394 513 446 563 q 521 410 454 471 q 651 279 588 349 q 772 138 715 210 q 865 0 828 65 l 707 0 q 611 131 665 65 q 497 258 557 197 q 374 369 436 318 q 254 457 313 421 l 254 0 l 119 0 l 119 963 l 254 963 l 254 538 q 361 641 303 583 q 476 757 419 699 q 584 869 533 815 q 669 963 635 922 l 832 963 m 401 -69 l 525 -69 q 526 -85 526 -76 q 526 -99 526 -94 q 513 -174 526 -143 q 478 -224 500 -204 q 426 -252 456 -243 q 363 -261 396 -261 q 330 -260 344 -261 q 311 -256 315 -258 l 311 -178 q 349 -175 332 -178 q 378 -163 367 -172 q 395 -136 389 -154 q 401 -87 401 -118 l 401 -69 z "},"ķ":{"ha":725,"x_min":111,"x_max":706,"o":"m 372 397 q 460 318 414 365 q 552 216 507 271 q 638 105 597 161 q 706 0 678 49 l 554 0 q 487 99 525 49 q 407 197 449 150 q 322 282 365 243 q 240 347 279 321 l 240 0 l 111 0 l 111 1056 l 240 1078 l 240 419 q 314 493 274 453 q 393 575 354 533 q 467 655 432 617 q 526 722 501 693 l 678 722 q 608 646 646 688 q 531 562 571 604 q 449 477 490 519 q 372 397 408 435 m 324 -69 l 447 -69 q 449 -85 449 -76 q 449 -99 449 -94 q 435 -174 449 -143 q 400 -224 422 -204 q 348 -252 378 -243 q 285 -261 318 -261 q 252 -260 267 -261 q 233 -256 238 -258 l 233 -178 q 272 -175 254 -178 q 300 -163 289 -172 q 317 -136 311 -154 q 324 -87 324 -118 l 324 -69 z "},"ĸ":{"ha":746,"x_min":111,"x_max":726,"o":"m 375 393 q 468 316 418 363 q 566 215 518 269 q 656 105 614 161 q 726 0 697 49 l 574 0 q 502 97 543 47 q 417 192 461 146 q 326 276 372 238 q 240 342 281 315 l 240 0 l 111 0 l 111 722 l 240 722 l 240 413 q 317 487 274 444 q 403 573 360 529 q 485 656 447 617 q 546 722 522 696 l 696 722 q 624 647 665 689 q 540 560 583 604 q 453 472 496 515 q 375 393 410 428 z "},"Ĺ":{"ha":721,"x_min":119,"x_max":699,"o":"m 699 117 l 699 0 l 119 0 l 119 963 l 254 963 l 254 117 l 699 117 m 389 1213 l 193 1022 l 128 1081 l 306 1294 l 389 1213 z "},"ĺ":{"ha":379,"x_min":82,"x_max":346,"o":"m 328 -14 q 158 38 208 -11 q 108 189 108 86 l 108 1056 l 238 1078 l 238 210 q 243 157 238 178 q 261 124 249 136 q 294 105 274 111 q 346 94 315 99 l 328 -14 m 344 1221 l 111 1138 l 82 1214 l 306 1322 l 344 1221 z "},"Ļ":{"ha":721,"x_min":119,"x_max":699,"o":"m 699 117 l 699 0 l 119 0 l 119 963 l 254 963 l 254 117 l 699 117 m 351 -69 l 475 -69 q 476 -85 476 -76 q 476 -99 476 -94 q 463 -174 476 -143 q 428 -224 450 -204 q 376 -252 406 -243 q 313 -261 346 -261 q 280 -260 294 -261 q 261 -256 265 -258 l 261 -178 q 299 -175 282 -178 q 328 -163 317 -172 q 345 -136 339 -154 q 351 -87 351 -118 l 351 -69 z "},"ļ":{"ha":379,"x_min":54,"x_max":346,"o":"m 328 -14 q 158 38 208 -11 q 108 189 108 86 l 108 1056 l 238 1078 l 238 210 q 243 157 238 178 q 261 124 249 136 q 294 105 274 111 q 346 94 315 99 l 328 -14 m 144 -69 l 268 -69 q 269 -85 269 -76 q 269 -99 269 -94 q 256 -174 269 -143 q 221 -224 243 -204 q 169 -252 199 -243 q 106 -261 139 -261 q 73 -260 88 -261 q 54 -256 58 -258 l 54 -178 q 92 -175 75 -178 q 121 -163 110 -172 q 138 -136 132 -154 q 144 -87 144 -118 l 144 -69 z "},"Ľ":{"ha":721,"x_min":119,"x_max":699,"o":"m 699 117 l 699 0 l 119 0 l 119 963 l 254 963 l 254 117 l 699 117 m 503 964 l 465 654 l 379 654 l 379 964 l 503 964 z "},"ľ":{"ha":394,"x_min":108,"x_max":458,"o":"m 328 -14 q 158 38 208 -11 q 108 189 108 86 l 108 1056 l 238 1078 l 238 210 q 243 157 238 178 q 261 124 249 136 q 294 105 274 111 q 346 94 315 99 l 328 -14 m 458 1078 l 421 768 l 335 768 l 335 1078 l 458 1078 z "},"Ŀ":{"ha":721,"x_min":119,"x_max":699,"o":"m 699 117 l 699 0 l 119 0 l 119 963 l 254 963 l 254 117 l 699 117 m 549 419 q 490 442 514 419 q 465 504 465 465 q 490 566 465 543 q 549 589 514 589 q 608 566 583 589 q 632 504 632 543 q 608 442 632 465 q 549 419 583 419 z "},"ŀ":{"ha":513,"x_min":108,"x_max":515,"o":"m 328 -14 q 158 38 208 -11 q 108 189 108 86 l 108 1056 l 238 1078 l 238 210 q 243 157 238 178 q 261 124 249 136 q 294 105 274 111 q 346 94 315 99 l 328 -14 m 432 419 q 373 442 397 419 q 349 504 349 465 q 373 566 349 543 q 432 589 397 589 q 491 566 467 589 q 515 504 515 543 q 491 442 515 465 q 432 419 467 419 z "},"Ł":{"ha":746,"x_min":-3,"x_max":724,"o":"m 724 117 l 724 0 l 144 0 l 144 397 l 43 346 l -3 438 l 144 513 l 144 963 l 279 963 l 279 582 l 440 665 l 485 574 l 279 467 l 279 117 l 724 117 z "},"ł":{"ha":399,"x_min":4,"x_max":401,"o":"m 347 -14 q 178 38 228 -11 q 128 189 128 86 l 128 472 l 49 432 l 4 518 l 128 581 l 128 1056 l 257 1078 l 257 647 l 358 700 l 401 614 l 257 539 l 257 210 q 263 157 257 178 q 281 124 268 136 q 314 105 293 111 q 365 94 335 99 l 347 -14 z "},"Ń":{"ha":1011,"x_min":119,"x_max":892,"o":"m 779 0 q 709 115 749 51 q 624 248 669 179 q 528 388 578 317 q 431 524 479 458 q 336 649 382 590 q 251 751 290 707 l 251 0 l 119 0 l 119 963 l 226 963 q 366 801 292 893 q 513 610 440 708 q 651 418 586 513 q 760 250 715 324 l 760 963 l 892 963 l 892 0 l 779 0 m 674 1213 l 478 1022 l 413 1081 l 590 1294 l 674 1213 z "},"ń":{"ha":797,"x_min":111,"x_max":694,"o":"m 111 701 q 229 725 156 713 q 399 738 303 738 q 542 713 485 738 q 633 645 599 689 q 681 540 667 601 q 694 406 694 479 l 694 0 l 565 0 l 565 378 q 556 492 565 444 q 526 568 547 539 q 471 610 506 597 q 385 624 436 624 q 342 622 364 624 q 299 619 319 621 q 263 614 279 617 q 240 610 247 611 l 240 0 l 111 0 l 111 701 m 571 996 l 375 806 l 310 864 l 488 1078 l 571 996 z "},"Ņ":{"ha":1011,"x_min":119,"x_max":892,"o":"m 779 0 q 709 115 749 51 q 624 248 669 179 q 528 388 578 317 q 431 524 479 458 q 336 649 382 590 q 251 751 290 707 l 251 0 l 119 0 l 119 963 l 226 963 q 366 801 292 893 q 513 610 440 708 q 651 418 586 513 q 760 250 715 324 l 760 963 l 892 963 l 892 0 l 779 0 m 449 -69 l 572 -69 q 574 -85 574 -76 q 574 -99 574 -94 q 560 -174 574 -143 q 525 -224 547 -204 q 473 -252 503 -243 q 410 -261 443 -261 q 377 -260 392 -261 q 358 -256 363 -258 l 358 -178 q 397 -175 379 -178 q 425 -163 414 -172 q 442 -136 436 -154 q 449 -87 449 -118 l 449 -69 z "},"ņ":{"ha":797,"x_min":111,"x_max":694,"o":"m 111 701 q 229 725 156 713 q 399 738 303 738 q 542 713 485 738 q 633 645 599 689 q 681 540 667 601 q 694 406 694 479 l 694 0 l 565 0 l 565 378 q 556 492 565 444 q 526 568 547 539 q 471 610 506 597 q 385 624 436 624 q 342 622 364 624 q 299 619 319 621 q 263 614 279 617 q 240 610 247 611 l 240 0 l 111 0 l 111 701 m 346 -69 l 469 -69 q 471 -85 471 -76 q 471 -99 471 -94 q 458 -174 471 -143 q 422 -224 444 -204 q 370 -252 400 -243 q 307 -261 340 -261 q 274 -260 289 -261 q 256 -256 260 -258 l 256 -178 q 294 -175 276 -178 q 322 -163 311 -172 q 340 -136 333 -154 q 346 -87 346 -118 l 346 -69 z "},"Ň":{"ha":1011,"x_min":119,"x_max":892,"o":"m 779 0 q 709 115 749 51 q 624 248 669 179 q 528 388 578 317 q 431 524 479 458 q 336 649 382 590 q 251 751 290 707 l 251 0 l 119 0 l 119 963 l 226 963 q 366 801 292 893 q 513 610 440 708 q 651 418 586 513 q 760 250 715 324 l 760 963 l 892 963 l 892 0 l 779 0 m 317 1229 l 371 1290 l 506 1168 l 640 1290 l 694 1229 l 506 1031 l 317 1229 z "},"ň":{"ha":797,"x_min":111,"x_max":694,"o":"m 111 701 q 229 725 156 713 q 399 738 303 738 q 542 713 485 738 q 633 645 599 689 q 681 540 667 601 q 694 406 694 479 l 694 0 l 565 0 l 565 378 q 556 492 565 444 q 526 568 547 539 q 471 610 506 597 q 385 624 436 624 q 342 622 364 624 q 299 619 319 621 q 263 614 279 617 q 240 610 247 611 l 240 0 l 111 0 l 111 701 m 214 1013 l 268 1074 l 403 951 l 538 1074 l 592 1013 l 403 814 l 214 1013 z "},"ŉ":{"ha":797,"x_min":10,"x_max":694,"o":"m 111 701 q 229 725 156 713 q 399 738 303 738 q 542 713 485 738 q 633 645 599 689 q 681 540 667 601 q 694 406 694 479 l 694 0 l 565 0 l 565 378 q 556 492 565 444 q 526 568 547 539 q 471 610 506 597 q 385 624 436 624 q 342 622 364 624 q 299 619 319 621 q 263 614 279 617 q 240 610 247 611 l 240 0 l 111 0 l 111 701 m 190 1078 q 190 1052 190 1063 q 189 1028 190 1042 q 160 898 183 957 q 103 786 136 839 l 10 818 q 48 922 36 871 q 60 1025 60 972 q 59 1054 60 1039 q 57 1078 58 1069 l 190 1078 z "},"Ŋ":{"ha":1011,"x_min":119,"x_max":892,"o":"m 760 33 q 647 211 711 113 q 513 408 582 310 q 375 598 443 507 q 251 751 307 689 l 251 0 l 119 0 l 119 963 l 226 963 q 366 801 292 893 q 513 610 440 708 q 651 418 586 513 q 760 250 715 324 l 760 963 l 892 963 l 892 0 q 883 -112 892 -64 q 853 -194 875 -161 q 790 -243 831 -226 q 688 -260 750 -260 q 642 -256 668 -260 q 601 -249 617 -253 l 614 -147 q 644 -153 625 -151 q 674 -154 663 -154 q 742 -120 725 -154 q 760 -24 760 -86 l 760 33 z "},"ŋ":{"ha":797,"x_min":111,"x_max":694,"o":"m 111 701 q 229 725 156 713 q 399 738 303 738 q 542 713 485 738 q 633 645 599 689 q 681 540 667 601 q 694 406 694 479 l 694 0 q 685 -112 694 -64 q 653 -194 676 -161 q 590 -243 631 -226 q 488 -260 550 -260 q 442 -256 468 -260 q 401 -249 417 -253 l 414 -147 q 444 -153 425 -151 q 474 -154 463 -154 q 545 -120 525 -154 q 565 -24 565 -86 l 565 378 q 556 492 565 444 q 526 568 547 539 q 471 610 506 597 q 385 624 436 624 q 342 622 364 624 q 299 619 319 621 q 263 614 279 617 q 240 610 247 611 l 240 0 l 111 0 l 111 701 z "},"Ō":{"ha":1081,"x_min":81,"x_max":1000,"o":"m 81 482 q 117 700 81 606 q 217 858 154 794 q 365 953 281 921 q 543 985 449 985 q 719 953 636 985 q 864 858 801 921 q 963 700 926 794 q 1000 482 1000 606 q 963 264 1000 358 q 864 106 926 169 q 719 11 801 43 q 543 -21 636 -21 q 365 11 449 -21 q 217 106 281 43 q 117 264 154 169 q 81 482 81 358 m 222 482 q 244 323 222 394 q 308 201 267 251 q 408 124 349 151 q 540 97 467 97 q 672 124 614 97 q 772 201 731 151 q 835 323 813 251 q 857 482 857 394 q 835 641 857 569 q 772 763 813 713 q 672 840 731 813 q 540 867 614 867 q 408 840 467 867 q 308 763 349 813 q 244 641 267 713 q 222 482 222 569 m 343 1204 l 738 1204 l 738 1104 l 343 1104 l 343 1204 z "},"ō":{"ha":819,"x_min":71,"x_max":749,"o":"m 749 361 q 724 206 749 275 q 653 86 699 136 q 546 9 608 36 q 410 -18 483 -18 q 274 9 336 -18 q 166 86 211 36 q 96 206 121 136 q 71 361 71 275 q 96 516 71 446 q 166 636 121 586 q 274 713 211 686 q 410 740 336 740 q 546 713 483 740 q 653 636 608 686 q 724 516 699 586 q 749 361 749 446 m 614 361 q 559 555 614 483 q 410 626 504 626 q 260 555 315 626 q 206 361 206 483 q 260 167 206 239 q 410 96 315 96 q 559 167 504 96 q 614 361 614 239 m 213 988 l 607 988 l 607 888 l 213 888 l 213 988 z "},"Ŏ":{"ha":1081,"x_min":81,"x_max":1000,"o":"m 81 482 q 117 700 81 606 q 217 858 154 794 q 365 953 281 921 q 543 985 449 985 q 719 953 636 985 q 864 858 801 921 q 963 700 926 794 q 1000 482 1000 606 q 963 264 1000 358 q 864 106 926 169 q 719 11 801 43 q 543 -21 636 -21 q 365 11 449 -21 q 217 106 281 43 q 117 264 154 169 q 81 482 81 358 m 222 482 q 244 323 222 394 q 308 201 267 251 q 408 124 349 151 q 540 97 467 97 q 672 124 614 97 q 772 201 731 151 q 835 323 813 251 q 857 482 857 394 q 835 641 857 569 q 772 763 813 713 q 672 840 731 813 q 540 867 614 867 q 408 840 467 867 q 308 763 349 813 q 244 641 267 713 q 222 482 222 569 m 540 1064 q 467 1077 501 1064 q 408 1115 433 1090 q 368 1175 382 1139 q 356 1257 354 1211 l 439 1257 q 445 1224 440 1242 q 461 1191 450 1206 q 492 1167 472 1176 q 540 1157 511 1157 q 589 1167 569 1157 q 619 1191 608 1176 q 635 1224 631 1206 q 642 1257 640 1242 l 725 1257 q 713 1175 726 1211 q 673 1115 699 1139 q 613 1077 647 1090 q 540 1064 579 1064 z "},"ŏ":{"ha":819,"x_min":71,"x_max":749,"o":"m 749 361 q 724 206 749 275 q 653 86 699 136 q 546 9 608 36 q 410 -18 483 -18 q 274 9 336 -18 q 166 86 211 36 q 96 206 121 136 q 71 361 71 275 q 96 516 71 446 q 166 636 121 586 q 274 713 211 686 q 410 740 336 740 q 546 713 483 740 q 653 636 608 686 q 724 516 699 586 q 749 361 749 446 m 614 361 q 559 555 614 483 q 410 626 504 626 q 260 555 315 626 q 206 361 206 483 q 260 167 206 239 q 410 96 315 96 q 559 167 504 96 q 614 361 614 239 m 410 847 q 337 860 371 847 q 277 898 303 874 q 238 958 251 922 q 225 1040 224 994 l 308 1040 q 315 1007 310 1025 q 331 974 319 989 q 361 950 342 960 q 410 940 381 940 q 458 950 439 940 q 489 974 478 960 q 505 1007 500 989 q 511 1040 510 1025 l 594 1040 q 582 958 596 994 q 542 898 568 922 q 483 860 517 874 q 410 847 449 847 z "},"Ő":{"ha":1081,"x_min":81,"x_max":1000,"o":"m 81 482 q 117 700 81 606 q 217 858 154 794 q 365 953 281 921 q 543 985 449 985 q 719 953 636 985 q 864 858 801 921 q 963 700 926 794 q 1000 482 1000 606 q 963 264 1000 358 q 864 106 926 169 q 719 11 801 43 q 543 -21 636 -21 q 365 11 449 -21 q 217 106 281 43 q 117 264 154 169 q 81 482 81 358 m 222 482 q 244 323 222 394 q 308 201 267 251 q 408 124 349 151 q 540 97 467 97 q 672 124 614 97 q 772 201 731 151 q 835 323 813 251 q 857 482 857 394 q 835 641 857 569 q 772 763 813 713 q 672 840 731 813 q 540 867 614 867 q 408 840 467 867 q 308 763 349 813 q 244 641 267 713 q 222 482 222 569 m 603 1217 l 432 1022 l 365 1072 l 525 1294 l 603 1217 m 832 1217 l 661 1022 l 594 1072 l 754 1294 l 832 1217 z "},"ő":{"ha":819,"x_min":71,"x_max":749,"o":"m 749 361 q 724 206 749 275 q 653 86 699 136 q 546 9 608 36 q 410 -18 483 -18 q 274 9 336 -18 q 166 86 211 36 q 96 206 121 136 q 71 361 71 275 q 96 516 71 446 q 166 636 121 586 q 274 713 211 686 q 410 740 336 740 q 546 713 483 740 q 653 636 608 686 q 724 516 699 586 q 749 361 749 446 m 614 361 q 559 555 614 483 q 410 626 504 626 q 260 555 315 626 q 206 361 206 483 q 260 167 206 239 q 410 96 315 96 q 559 167 504 96 q 614 361 614 239 m 472 1000 l 301 806 l 235 856 l 394 1078 l 472 1000 m 701 1000 l 531 806 l 464 856 l 624 1078 l 701 1000 z "},"Ŕ":{"ha":874,"x_min":119,"x_max":849,"o":"m 590 403 q 647 330 613 375 q 717 230 681 285 q 788 115 753 175 q 849 0 824 56 l 701 0 q 641 107 674 53 q 575 210 608 161 q 509 303 542 260 q 450 378 476 346 q 413 376 432 376 q 375 376 394 376 l 254 376 l 254 0 l 119 0 l 119 949 q 247 967 176 963 q 375 972 317 972 q 684 896 578 972 q 790 668 790 819 q 740 504 790 572 q 590 403 689 436 m 386 854 q 254 850 300 854 l 254 488 l 350 488 q 475 494 419 488 q 569 521 531 501 q 628 576 607 540 q 649 669 649 611 q 628 760 649 724 q 572 817 607 796 q 488 846 536 838 q 386 854 440 854 m 576 1213 l 381 1022 l 315 1081 l 493 1294 l 576 1213 z "},"ŕ":{"ha":536,"x_min":111,"x_max":522,"o":"m 378 738 q 416 735 394 738 q 458 730 438 733 q 497 723 479 726 q 522 717 514 719 l 500 604 q 449 617 485 610 q 358 625 414 625 q 287 617 322 625 q 240 607 251 610 l 240 0 l 111 0 l 111 692 q 225 723 157 708 q 378 738 293 738 m 488 996 l 292 806 l 226 864 l 404 1078 l 488 996 z "},"Ŗ":{"ha":874,"x_min":119,"x_max":849,"o":"m 590 403 q 647 330 613 375 q 717 230 681 285 q 788 115 753 175 q 849 0 824 56 l 701 0 q 641 107 674 53 q 575 210 608 161 q 509 303 542 260 q 450 378 476 346 q 413 376 432 376 q 375 376 394 376 l 254 376 l 254 0 l 119 0 l 119 949 q 247 967 176 963 q 375 972 317 972 q 684 896 578 972 q 790 668 790 819 q 740 504 790 572 q 590 403 689 436 m 386 854 q 254 850 300 854 l 254 488 l 350 488 q 475 494 419 488 q 569 521 531 501 q 628 576 607 540 q 649 669 649 611 q 628 760 649 724 q 572 817 607 796 q 488 846 536 838 q 386 854 440 854 m 397 -69 l 521 -69 q 522 -85 522 -76 q 522 -99 522 -94 q 509 -174 522 -143 q 474 -224 496 -204 q 422 -252 451 -243 q 358 -261 392 -261 q 326 -260 340 -261 q 307 -256 311 -258 l 307 -178 q 345 -175 328 -178 q 374 -163 363 -172 q 391 -136 385 -154 q 397 -87 397 -118 l 397 -69 z "},"ŗ":{"ha":536,"x_min":25,"x_max":522,"o":"m 378 738 q 416 735 394 738 q 458 730 438 733 q 497 723 479 726 q 522 717 514 719 l 500 604 q 449 617 485 610 q 358 625 414 625 q 287 617 322 625 q 240 607 251 610 l 240 0 l 111 0 l 111 692 q 225 723 157 708 q 378 738 293 738 m 115 -69 l 239 -69 q 240 -85 240 -76 q 240 -99 240 -94 q 227 -174 240 -143 q 192 -224 214 -204 q 140 -252 169 -243 q 76 -261 110 -261 q 44 -260 58 -261 q 25 -256 29 -258 l 25 -178 q 63 -175 46 -178 q 92 -163 81 -172 q 109 -136 103 -154 q 115 -87 115 -118 l 115 -69 z "},"Ř":{"ha":874,"x_min":119,"x_max":849,"o":"m 590 403 q 647 330 613 375 q 717 230 681 285 q 788 115 753 175 q 849 0 824 56 l 701 0 q 641 107 674 53 q 575 210 608 161 q 509 303 542 260 q 450 378 476 346 q 413 376 432 376 q 375 376 394 376 l 254 376 l 254 0 l 119 0 l 119 949 q 247 967 176 963 q 375 972 317 972 q 684 896 578 972 q 790 668 790 819 q 740 504 790 572 q 590 403 689 436 m 386 854 q 254 850 300 854 l 254 488 l 350 488 q 475 494 419 488 q 569 521 531 501 q 628 576 607 540 q 649 669 649 611 q 628 760 649 724 q 572 817 607 796 q 488 846 536 838 q 386 854 440 854 m 219 1229 l 274 1290 l 408 1168 l 543 1290 l 597 1229 l 408 1031 l 219 1229 z "},"ř":{"ha":536,"x_min":111,"x_max":522,"o":"m 378 738 q 416 735 394 738 q 458 730 438 733 q 497 723 479 726 q 522 717 514 719 l 500 604 q 449 617 485 610 q 358 625 414 625 q 287 617 322 625 q 240 607 251 610 l 240 0 l 111 0 l 111 692 q 225 723 157 708 q 378 738 293 738 m 129 1013 l 183 1074 l 318 951 l 453 1074 l 507 1013 l 318 814 l 129 1013 z "},"Ś":{"ha":739,"x_min":46,"x_max":696,"o":"m 343 96 q 554 240 554 96 q 535 316 554 285 q 485 370 517 347 q 412 410 453 393 q 325 443 371 426 q 225 484 272 461 q 143 538 178 507 q 88 613 108 569 q 68 717 68 656 q 154 914 68 843 q 392 985 240 985 q 551 966 479 985 q 656 925 622 947 l 613 815 q 526 851 583 833 q 392 868 468 868 q 319 860 353 868 q 261 835 286 851 q 222 792 236 818 q 207 732 207 767 q 222 667 207 693 q 265 620 238 640 q 330 583 293 600 q 411 550 367 567 q 526 500 474 525 q 616 440 578 475 q 675 358 654 406 q 696 242 696 310 q 603 47 696 115 q 343 -21 511 -21 q 238 -13 286 -21 q 153 5 190 -6 q 88 27 115 15 q 46 47 61 39 l 86 158 q 183 118 118 140 q 343 96 249 96 m 551 1213 l 356 1022 l 290 1081 l 468 1294 l 551 1213 z "},"ś":{"ha":619,"x_min":56,"x_max":565,"o":"m 279 93 q 397 114 358 93 q 435 181 435 135 q 397 256 435 228 q 274 318 360 283 q 194 352 232 335 q 128 393 156 369 q 83 450 100 417 q 67 532 67 483 q 138 684 67 628 q 331 740 208 740 q 392 737 361 740 q 449 728 422 733 q 495 718 475 724 q 526 708 515 713 l 503 597 q 438 620 482 608 q 331 632 393 632 q 236 610 276 632 q 196 543 196 589 q 205 501 196 519 q 233 469 214 483 q 279 442 251 454 q 346 415 307 429 q 438 377 397 396 q 506 333 478 358 q 550 273 535 308 q 565 186 565 238 q 491 35 565 86 q 279 -17 417 -17 q 129 -1 183 -17 q 56 24 75 15 l 79 135 q 150 110 101 126 q 279 93 199 93 m 483 996 l 288 806 l 222 864 l 400 1078 l 483 996 z "},"Ŝ":{"ha":739,"x_min":46,"x_max":696,"o":"m 343 96 q 554 240 554 96 q 535 316 554 285 q 485 370 517 347 q 412 410 453 393 q 325 443 371 426 q 225 484 272 461 q 143 538 178 507 q 88 613 108 569 q 68 717 68 656 q 154 914 68 843 q 392 985 240 985 q 551 966 479 985 q 656 925 622 947 l 613 815 q 526 851 583 833 q 392 868 468 868 q 319 860 353 868 q 261 835 286 851 q 222 792 236 818 q 207 732 207 767 q 222 667 207 693 q 265 620 238 640 q 330 583 293 600 q 411 550 367 567 q 526 500 474 525 q 616 440 578 475 q 675 358 654 406 q 696 242 696 310 q 603 47 696 115 q 343 -21 511 -21 q 238 -13 286 -21 q 153 5 190 -6 q 88 27 115 15 q 46 47 61 39 l 86 158 q 183 118 118 140 q 343 96 249 96 m 383 1285 l 572 1086 l 518 1025 l 383 1147 l 249 1025 l 194 1086 l 383 1285 z "},"ŝ":{"ha":619,"x_min":56,"x_max":565,"o":"m 279 93 q 397 114 358 93 q 435 181 435 135 q 397 256 435 228 q 274 318 360 283 q 194 352 232 335 q 128 393 156 369 q 83 450 100 417 q 67 532 67 483 q 138 684 67 628 q 331 740 208 740 q 392 737 361 740 q 449 728 422 733 q 495 718 475 724 q 526 708 515 713 l 503 597 q 438 620 482 608 q 331 632 393 632 q 236 610 276 632 q 196 543 196 589 q 205 501 196 519 q 233 469 214 483 q 279 442 251 454 q 346 415 307 429 q 438 377 397 396 q 506 333 478 358 q 550 273 535 308 q 565 186 565 238 q 491 35 565 86 q 279 -17 417 -17 q 129 -1 183 -17 q 56 24 75 15 l 79 135 q 150 110 101 126 q 279 93 199 93 m 315 1068 l 504 869 l 450 808 l 315 931 l 181 808 l 126 869 l 315 1068 z "},"Ş":{"ha":739,"x_min":46,"x_max":696,"o":"m 343 96 q 554 240 554 96 q 535 316 554 285 q 485 370 517 347 q 412 410 453 393 q 325 443 371 426 q 225 484 272 461 q 143 538 178 507 q 88 613 108 569 q 68 717 68 656 q 154 914 68 843 q 392 985 240 985 q 551 966 479 985 q 656 925 622 947 l 613 815 q 526 851 583 833 q 392 868 468 868 q 319 860 353 868 q 261 835 286 851 q 222 792 236 818 q 207 732 207 767 q 222 667 207 693 q 265 620 238 640 q 330 583 293 600 q 411 550 367 567 q 526 500 474 525 q 616 440 578 475 q 675 358 654 406 q 696 242 696 310 q 622 63 696 129 q 408 -18 547 -4 l 393 -51 q 451 -94 433 -71 q 469 -161 469 -117 q 463 -194 469 -176 q 439 -228 456 -212 q 394 -253 422 -243 q 326 -262 367 -262 q 260 -257 290 -262 q 213 -244 231 -251 l 228 -165 q 263 -175 244 -171 q 306 -179 282 -179 q 356 -147 356 -179 q 340 -122 356 -132 q 297 -100 325 -111 l 288 -96 q 301 -60 293 -81 q 319 -21 310 -40 q 223 -12 267 -19 q 144 6 179 -4 q 85 28 110 17 q 46 47 60 39 l 86 158 q 183 118 118 140 q 343 96 249 96 z "},"ş":{"ha":619,"x_min":56,"x_max":565,"o":"m 279 93 q 397 114 358 93 q 435 181 435 135 q 397 256 435 228 q 274 318 360 283 q 194 352 232 335 q 128 393 156 369 q 83 450 100 417 q 67 532 67 483 q 138 684 67 628 q 331 740 208 740 q 392 737 361 740 q 449 728 422 733 q 495 718 475 724 q 526 708 515 713 l 503 597 q 438 620 482 608 q 331 632 393 632 q 236 610 276 632 q 196 543 196 589 q 205 501 196 518 q 233 469 214 483 q 279 442 251 456 q 346 415 307 429 q 436 377 396 396 q 506 333 476 358 q 550 273 535 308 q 565 186 565 238 q 510 50 565 100 q 350 -12 454 0 q 340 -33 344 -24 q 332 -51 335 -43 q 390 -94 372 -71 q 408 -161 408 -117 q 401 -194 408 -176 q 378 -228 394 -212 q 333 -253 361 -243 q 265 -262 306 -262 q 199 -257 229 -262 q 151 -244 169 -251 l 167 -165 q 202 -175 183 -171 q 244 -179 221 -179 q 294 -147 294 -179 q 279 -122 294 -132 q 236 -100 264 -111 l 226 -96 q 241 -58 232 -79 q 260 -17 250 -36 q 123 1 172 -14 q 56 24 74 15 l 79 135 q 150 110 101 126 q 279 93 199 93 z "},"Ţ":{"ha":785,"x_min":22,"x_max":763,"o":"m 408 -51 q 467 -94 449 -71 q 485 -161 485 -117 q 478 -194 485 -176 q 454 -228 471 -212 q 410 -253 438 -243 q 342 -262 382 -262 q 276 -257 306 -262 q 228 -244 246 -251 l 243 -165 q 278 -175 260 -171 q 321 -179 297 -179 q 371 -147 371 -179 q 356 -122 371 -132 q 313 -100 340 -111 l 303 -96 q 321 -49 308 -76 q 344 0 333 -21 l 325 0 l 325 846 l 22 846 l 22 963 l 763 963 l 763 846 l 460 846 l 460 0 l 433 0 q 419 -27 426 -14 q 408 -51 413 -40 z "},"ţ":{"ha":558,"x_min":103,"x_max":533,"o":"m 365 -51 q 424 -94 406 -71 q 442 -161 442 -117 q 435 -194 442 -176 q 411 -228 428 -212 q 367 -253 394 -243 q 299 -262 339 -262 q 233 -257 263 -262 q 185 -244 203 -251 l 200 -165 q 235 -175 217 -171 q 278 -179 254 -179 q 328 -147 328 -179 q 313 -122 328 -132 q 269 -100 297 -111 l 260 -96 q 274 -55 265 -78 q 294 -11 283 -32 q 202 18 239 -4 q 143 76 165 40 q 112 163 121 113 q 103 279 103 214 l 103 924 l 232 946 l 232 722 l 506 722 l 506 614 l 232 614 l 232 281 q 240 191 232 226 q 265 135 249 156 q 307 107 282 115 q 365 99 332 99 q 459 112 424 99 q 508 131 494 125 l 533 24 q 476 2 515 15 q 383 -14 436 -11 q 373 -34 378 -25 q 365 -51 368 -43 z "},"Ť":{"ha":785,"x_min":22,"x_max":763,"o":"m 763 963 l 763 846 l 460 846 l 460 0 l 325 0 l 325 846 l 22 846 l 22 963 l 763 963 m 203 1229 l 257 1290 l 392 1168 l 526 1290 l 581 1229 l 392 1031 l 203 1229 z "},"ť":{"ha":558,"x_min":103,"x_max":533,"o":"m 232 722 l 506 722 l 506 614 l 232 614 l 232 281 q 240 191 232 226 q 265 135 249 156 q 307 107 282 115 q 365 99 332 99 q 459 112 424 99 q 508 131 494 125 l 533 24 q 465 -1 514 14 q 354 -15 417 -15 q 233 3 281 -15 q 156 60 185 22 q 115 152 126 97 q 103 279 103 207 l 103 924 l 232 946 l 232 722 m 453 1078 l 415 808 l 329 808 l 329 1078 l 453 1078 z "},"Ŧ":{"ha":785,"x_min":22,"x_max":763,"o":"m 763 963 l 763 846 l 460 846 l 460 546 l 640 546 l 640 442 l 460 442 l 460 0 l 325 0 l 325 442 l 144 442 l 144 546 l 325 546 l 325 846 l 22 846 l 22 963 l 763 963 z "},"ŧ":{"ha":558,"x_min":103,"x_max":533,"o":"m 232 722 l 506 722 l 506 614 l 232 614 l 232 425 l 506 425 l 506 328 l 232 328 l 232 281 q 240 191 232 226 q 265 135 249 156 q 307 107 282 115 q 365 99 332 99 q 459 112 424 99 q 508 131 494 125 l 533 24 q 465 -1 514 14 q 354 -15 417 -15 q 233 3 281 -15 q 156 60 185 22 q 115 152 126 97 q 103 279 103 207 l 103 924 l 232 946 l 232 722 z "},"Ũ":{"ha":956,"x_min":113,"x_max":843,"o":"m 478 -21 q 314 8 383 -21 q 200 88 244 38 q 134 208 156 139 q 113 358 113 278 l 113 963 l 247 963 l 247 374 q 311 164 247 229 q 478 99 375 99 q 572 115 529 99 q 644 164 614 131 q 692 249 675 197 q 708 374 708 301 l 708 963 l 843 963 l 843 358 q 822 208 843 278 q 755 88 800 139 q 641 8 710 38 q 478 -21 572 -21 m 707 1204 q 688 1165 700 1188 q 658 1124 676 1143 q 616 1092 640 1106 q 563 1079 592 1079 q 510 1089 535 1079 q 464 1110 486 1099 q 424 1126 440 1121 q 392 1132 407 1132 q 348 1113 368 1132 q 317 1071 328 1093 l 250 1104 q 268 1143 256 1121 q 299 1184 281 1165 q 341 1216 317 1203 q 394 1229 365 1229 q 447 1219 422 1229 q 493 1199 471 1210 q 533 1182 517 1188 q 565 1176 550 1176 q 609 1196 589 1176 q 640 1238 629 1215 l 707 1204 z "},"ũ":{"ha":797,"x_min":103,"x_max":686,"o":"m 686 21 q 569 -3 642 10 q 400 -15 496 -15 q 260 9 317 -15 q 168 78 203 33 q 118 183 133 122 q 103 317 103 243 l 103 722 l 232 722 l 232 344 q 274 156 232 213 q 414 99 315 99 q 457 100 435 99 q 499 103 479 101 q 534 108 518 106 q 557 113 550 110 l 557 722 l 686 722 l 686 21 m 626 988 q 608 949 619 971 q 578 908 596 926 q 535 876 560 889 q 482 863 511 863 q 430 872 454 863 q 383 893 406 882 q 343 910 360 904 q 311 915 326 915 q 267 896 288 915 q 236 854 247 876 l 169 888 q 188 926 175 904 q 218 967 200 949 q 260 999 236 986 q 314 1013 285 1013 q 366 1003 342 1013 q 413 982 390 993 q 453 965 436 971 q 485 960 469 960 q 528 979 508 960 q 560 1021 549 999 l 626 988 z "},"Ū":{"ha":956,"x_min":113,"x_max":843,"o":"m 478 -21 q 314 8 383 -21 q 200 88 244 38 q 134 208 156 139 q 113 358 113 278 l 113 963 l 247 963 l 247 374 q 311 164 247 229 q 478 99 375 99 q 572 115 529 99 q 644 164 614 131 q 692 249 675 197 q 708 374 708 301 l 708 963 l 843 963 l 843 358 q 822 208 843 278 q 755 88 800 139 q 641 8 710 38 q 478 -21 572 -21 m 281 1204 l 675 1204 l 675 1104 l 281 1104 l 281 1204 z "},"ū":{"ha":797,"x_min":103,"x_max":686,"o":"m 686 21 q 569 -3 642 10 q 400 -15 496 -15 q 260 9 317 -15 q 168 78 203 33 q 118 183 133 122 q 103 317 103 243 l 103 722 l 232 722 l 232 344 q 274 156 232 213 q 414 99 315 99 q 457 100 435 99 q 499 103 479 101 q 534 108 518 106 q 557 113 550 110 l 557 722 l 686 722 l 686 21 m 197 988 l 592 988 l 592 888 l 197 888 l 197 988 z "},"Ŭ":{"ha":956,"x_min":113,"x_max":843,"o":"m 478 -21 q 314 8 383 -21 q 200 88 244 38 q 134 208 156 139 q 113 358 113 278 l 113 963 l 247 963 l 247 374 q 311 164 247 229 q 478 99 375 99 q 572 115 529 99 q 644 164 614 131 q 692 249 675 197 q 708 374 708 301 l 708 963 l 843 963 l 843 358 q 822 208 843 278 q 755 88 800 139 q 641 8 710 38 q 478 -21 572 -21 m 478 1064 q 405 1077 439 1064 q 345 1115 371 1090 q 306 1175 319 1139 q 293 1257 292 1211 l 376 1257 q 383 1224 378 1242 q 399 1191 388 1206 q 429 1167 410 1176 q 478 1157 449 1157 q 526 1167 507 1157 q 557 1191 546 1176 q 573 1224 568 1206 q 579 1257 578 1242 l 663 1257 q 650 1175 664 1211 q 610 1115 636 1139 q 551 1077 585 1090 q 478 1064 517 1064 z "},"ŭ":{"ha":797,"x_min":103,"x_max":686,"o":"m 686 21 q 569 -3 642 10 q 400 -15 496 -15 q 260 9 317 -15 q 168 78 203 33 q 118 183 133 122 q 103 317 103 243 l 103 722 l 232 722 l 232 344 q 274 156 232 213 q 414 99 315 99 q 457 100 435 99 q 499 103 479 101 q 534 108 518 106 q 557 113 550 110 l 557 722 l 686 722 l 686 21 m 394 847 q 322 860 356 847 q 262 898 288 874 q 222 958 236 922 q 210 1040 208 994 l 293 1040 q 299 1007 294 1025 q 315 974 304 989 q 346 950 326 960 q 394 940 365 940 q 443 950 424 940 q 474 974 463 960 q 490 1007 485 989 q 496 1040 494 1025 l 579 1040 q 567 958 581 994 q 527 898 553 922 q 467 860 501 874 q 394 847 433 847 z "},"Ů":{"ha":956,"x_min":113,"x_max":843,"o":"m 478 -21 q 314 8 383 -21 q 200 88 244 38 q 134 208 156 139 q 113 358 113 278 l 113 963 l 247 963 l 247 374 q 311 164 247 229 q 478 99 375 99 q 572 115 529 99 q 644 164 614 131 q 692 249 675 197 q 708 374 708 301 l 708 963 l 843 963 l 843 358 q 822 208 843 278 q 755 88 800 139 q 641 8 710 38 q 478 -21 572 -21 m 621 1157 q 609 1098 621 1124 q 578 1053 597 1072 q 533 1025 558 1035 q 478 1015 507 1015 q 423 1025 449 1015 q 378 1053 397 1035 q 347 1098 358 1072 q 335 1157 335 1124 q 347 1216 335 1190 q 378 1260 358 1242 q 423 1289 397 1279 q 478 1299 449 1299 q 533 1289 507 1299 q 578 1260 558 1279 q 609 1216 597 1242 q 621 1157 621 1190 m 551 1157 q 530 1213 551 1193 q 478 1233 508 1233 q 426 1213 447 1233 q 404 1157 404 1193 q 426 1101 404 1121 q 478 1081 447 1081 q 530 1101 508 1081 q 551 1157 551 1121 z "},"ů":{"ha":797,"x_min":103,"x_max":686,"o":"m 686 21 q 569 -3 642 10 q 400 -15 496 -15 q 260 9 317 -15 q 168 78 203 33 q 118 183 133 122 q 103 317 103 243 l 103 722 l 232 722 l 232 344 q 274 156 232 213 q 414 99 315 99 q 457 100 435 99 q 499 103 479 101 q 534 108 518 106 q 557 113 550 110 l 557 722 l 686 722 l 686 21 m 538 940 q 526 881 538 907 q 494 837 514 856 q 449 808 475 818 q 394 799 424 799 q 340 808 365 799 q 294 837 314 818 q 263 881 275 856 q 251 940 251 907 q 263 999 251 974 q 294 1044 275 1025 q 340 1072 314 1063 q 394 1082 365 1082 q 449 1072 424 1082 q 494 1044 475 1063 q 526 999 514 1025 q 538 940 538 974 m 468 940 q 447 997 468 976 q 394 1017 425 1017 q 342 997 364 1017 q 321 940 321 976 q 342 884 321 904 q 394 864 364 864 q 447 884 425 864 q 468 940 468 904 z "},"Ű":{"ha":956,"x_min":113,"x_max":843,"o":"m 478 -21 q 314 8 383 -21 q 200 88 244 38 q 134 208 156 139 q 113 358 113 278 l 113 963 l 247 963 l 247 374 q 311 164 247 229 q 478 99 375 99 q 572 115 529 99 q 644 164 614 131 q 692 249 675 197 q 708 374 708 301 l 708 963 l 843 963 l 843 358 q 822 208 843 278 q 755 88 800 139 q 641 8 710 38 q 478 -21 572 -21 m 540 1217 l 369 1022 l 303 1072 l 463 1294 l 540 1217 m 769 1217 l 599 1022 l 532 1072 l 692 1294 l 769 1217 z "},"ű":{"ha":797,"x_min":103,"x_max":686,"o":"m 686 21 q 569 -3 642 10 q 400 -15 496 -15 q 260 9 317 -15 q 168 78 203 33 q 118 183 133 122 q 103 317 103 243 l 103 722 l 232 722 l 232 344 q 274 156 232 213 q 414 99 315 99 q 457 100 435 99 q 499 103 479 101 q 534 108 518 106 q 557 113 550 110 l 557 722 l 686 722 l 686 21 m 457 1000 l 286 806 l 219 856 l 379 1078 l 457 1000 m 686 1000 l 515 806 l 449 856 l 608 1078 l 686 1000 z "},"Ų":{"ha":956,"x_min":113,"x_max":843,"o":"m 478 -21 q 314 8 383 -21 q 200 88 244 38 q 134 208 156 139 q 113 358 113 278 l 113 963 l 247 963 l 247 374 q 311 164 247 229 q 478 99 375 99 q 572 115 529 99 q 644 164 614 131 q 692 249 675 197 q 708 374 708 301 l 708 963 l 843 963 l 843 358 q 802 158 843 246 q 674 21 761 71 q 616 -15 642 1 q 569 -54 590 -32 q 540 -93 550 -76 q 529 -129 529 -110 q 585 -169 529 -169 q 610 -167 594 -169 q 642 -160 626 -165 l 651 -244 q 612 -256 636 -251 q 560 -260 588 -260 q 444 -231 482 -260 q 407 -154 407 -203 q 433 -80 407 -115 q 485 -21 458 -44 l 478 -21 z "},"ų":{"ha":797,"x_min":103,"x_max":686,"o":"m 686 17 q 649 -14 669 4 q 608 -54 629 -32 q 576 -93 589 -76 q 564 -129 564 -110 q 619 -169 564 -169 q 645 -167 629 -169 q 676 -160 661 -165 l 686 -244 q 647 -256 671 -251 q 594 -260 622 -260 q 479 -231 517 -260 q 442 -154 442 -203 q 461 -92 442 -122 q 504 -37 481 -62 q 522 -21 511 -29 q 539 -6 532 -12 q 473 -12 507 -10 q 400 -15 439 -15 q 260 9 317 -15 q 168 78 203 33 q 118 183 133 122 q 103 317 103 243 l 103 722 l 232 722 l 232 344 q 274 156 232 213 q 414 99 315 99 q 457 100 435 99 q 499 103 479 101 q 534 108 518 106 q 557 113 550 110 l 557 722 l 686 722 l 686 17 z "},"Ŵ":{"ha":1290,"x_min":39,"x_max":1251,"o":"m 646 653 q 528 308 588 467 q 408 0 468 150 l 274 0 q 144 449 200 213 q 39 963 88 685 l 181 963 q 221 746 200 854 q 264 535 242 638 q 308 340 286 433 q 354 168 331 247 q 472 488 410 314 q 589 849 535 663 l 706 849 q 824 488 760 663 q 943 168 888 314 q 988 339 965 246 q 1031 534 1010 432 q 1074 745 1053 636 q 1114 963 1094 854 l 1251 963 q 1145 449 1201 685 q 1017 0 1089 213 l 882 0 q 763 308 821 150 q 646 653 704 467 m 644 1285 l 833 1086 l 779 1025 l 644 1147 l 510 1025 l 456 1086 l 644 1285 z "},"ŵ":{"ha":1079,"x_min":25,"x_max":1054,"o":"m 701 0 q 619 228 663 100 q 539 496 575 357 q 460 228 503 357 q 378 0 417 100 l 265 0 q 140 326 201 143 q 25 722 79 510 l 164 722 q 197 581 178 657 q 238 428 217 504 q 283 281 260 351 q 328 157 307 210 q 374 295 351 222 q 418 442 397 368 q 458 588 439 517 q 490 722 476 660 l 597 722 q 628 588 610 660 q 667 442 646 517 q 710 295 688 368 q 757 157 733 222 q 801 281 778 210 q 846 428 824 351 q 888 581 868 504 q 921 722 907 657 l 1054 722 q 939 326 1000 510 q 814 0 878 143 l 701 0 m 539 1068 l 728 869 l 674 808 l 539 931 l 404 808 l 350 869 l 539 1068 z "},"Ŷ":{"ha":831,"x_min":8,"x_max":822,"o":"m 349 0 l 349 386 q 168 679 253 535 q 8 963 83 824 l 167 963 q 285 731 219 849 q 419 506 350 614 q 553 731 488 614 q 672 963 618 849 l 822 963 q 663 680 747 824 q 483 389 578 536 l 483 0 l 349 0 m 415 1285 l 604 1086 l 550 1025 l 415 1147 l 281 1025 l 226 1086 l 415 1285 z "},"ŷ":{"ha":690,"x_min":3,"x_max":665,"o":"m 26 -135 q 66 -148 42 -142 q 114 -154 90 -154 q 233 -120 190 -154 q 311 -10 276 -86 q 148 344 224 157 q 22 722 72 531 l 161 722 q 198 588 176 660 q 246 439 219 515 q 303 286 272 363 q 367 139 333 210 q 458 428 419 285 q 532 722 497 571 l 665 722 q 554 330 615 518 q 422 -22 493 142 q 365 -130 394 -85 q 299 -204 335 -175 q 217 -247 263 -233 q 115 -261 172 -261 q 83 -259 100 -261 q 51 -253 67 -257 q 22 -246 35 -250 q 3 -239 8 -242 l 26 -135 m 363 1068 l 551 869 l 497 808 l 363 931 l 228 808 l 174 869 l 363 1068 z "},"Ź":{"ha":796,"x_min":46,"x_max":744,"o":"m 731 856 q 656 769 699 819 q 567 656 614 718 q 469 526 519 594 q 372 387 419 457 q 281 247 324 317 q 203 115 238 178 l 744 115 l 744 0 l 46 0 l 46 90 q 115 213 75 146 q 199 349 154 279 q 293 489 244 418 q 390 625 342 560 q 483 747 438 690 q 565 847 528 804 l 71 847 l 71 963 l 731 963 l 731 856 m 574 1213 l 378 1022 l 313 1081 l 490 1294 l 574 1213 z "},"ź":{"ha":654,"x_min":50,"x_max":601,"o":"m 590 625 q 513 535 561 593 q 410 406 465 476 q 301 257 356 335 q 204 108 246 179 l 601 108 l 601 0 l 50 0 l 50 86 q 132 221 83 147 q 234 367 181 294 q 338 505 288 440 q 426 614 389 569 l 69 614 l 69 722 l 590 722 l 590 625 m 489 996 l 293 806 l 228 864 l 406 1078 l 489 996 z "},"Ż":{"ha":796,"x_min":46,"x_max":744,"o":"m 731 856 q 656 769 699 819 q 567 656 614 718 q 469 526 519 594 q 372 387 419 457 q 281 247 324 317 q 203 115 238 178 l 744 115 l 744 0 l 46 0 l 46 90 q 115 213 75 146 q 199 349 154 279 q 293 489 244 418 q 390 625 342 560 q 483 747 438 690 q 565 847 528 804 l 71 847 l 71 963 l 731 963 l 731 856 m 406 1069 q 347 1092 371 1069 q 322 1154 322 1115 q 347 1216 322 1193 q 406 1239 371 1239 q 465 1216 440 1239 q 489 1154 489 1193 q 465 1092 489 1115 q 406 1069 440 1069 z "},"ż":{"ha":654,"x_min":50,"x_max":601,"o":"m 590 625 q 513 535 561 593 q 410 406 465 476 q 301 257 356 335 q 204 108 246 179 l 601 108 l 601 0 l 50 0 l 50 86 q 132 221 83 147 q 234 367 181 294 q 338 505 288 440 q 426 614 389 569 l 69 614 l 69 722 l 590 722 l 590 625 m 321 853 q 262 876 286 853 q 238 938 238 899 q 262 999 238 976 q 321 1022 286 1022 q 380 999 356 1022 q 404 938 404 976 q 380 876 404 899 q 321 853 356 853 z "},"Ž":{"ha":796,"x_min":46,"x_max":744,"o":"m 731 856 q 656 769 699 819 q 567 656 614 718 q 469 526 519 594 q 372 387 419 457 q 281 247 324 317 q 203 115 238 178 l 744 115 l 744 0 l 46 0 l 46 90 q 115 213 75 146 q 199 349 154 279 q 293 489 244 418 q 390 625 342 560 q 483 747 438 690 q 565 847 528 804 l 71 847 l 71 963 l 731 963 l 731 856 m 217 1229 l 271 1290 l 406 1168 l 540 1290 l 594 1229 l 406 1031 l 217 1229 z "},"ž":{"ha":654,"x_min":50,"x_max":601,"o":"m 590 625 q 513 535 561 593 q 410 406 465 476 q 301 257 356 335 q 204 108 246 179 l 601 108 l 601 0 l 50 0 l 50 86 q 132 221 83 147 q 234 367 181 294 q 338 505 288 440 q 426 614 389 569 l 69 614 l 69 722 l 590 722 l 590 625 m 132 1013 l 186 1074 l 321 951 l 456 1074 l 510 1013 l 321 814 l 132 1013 z "},"ſ":{"ha":379,"x_min":111,"x_max":549,"o":"m 393 1078 q 491 1069 450 1078 q 549 1054 532 1061 l 525 943 q 478 959 508 951 q 403 967 447 967 q 276 917 313 967 q 240 785 240 868 l 240 0 l 111 0 l 111 788 q 179 1002 111 926 q 393 1078 247 1078 z "},"Ș":{"ha":739,"x_min":46,"x_max":696,"o":"m 343 96 q 554 240 554 96 q 535 316 554 285 q 485 370 517 347 q 412 410 453 393 q 325 443 371 426 q 225 484 272 461 q 143 538 178 507 q 88 613 108 569 q 68 717 68 656 q 154 914 68 843 q 392 985 240 985 q 551 966 479 985 q 656 925 622 947 l 613 815 q 526 851 583 833 q 392 868 468 868 q 319 860 353 868 q 261 835 286 851 q 222 792 236 818 q 207 732 207 767 q 222 667 207 693 q 265 620 238 640 q 330 583 293 600 q 411 550 367 567 q 526 500 474 525 q 616 440 578 475 q 675 358 654 406 q 696 242 696 310 q 603 47 696 115 q 343 -21 511 -21 q 238 -13 286 -21 q 153 5 190 -6 q 88 27 115 15 q 46 47 61 39 l 86 158 q 183 118 118 140 q 343 96 249 96 m 308 -69 l 432 -69 q 433 -85 433 -76 q 433 -99 433 -94 q 420 -174 433 -143 q 385 -224 407 -204 q 333 -252 363 -243 q 269 -261 303 -261 q 237 -260 251 -261 q 218 -256 222 -258 l 218 -178 q 256 -175 239 -178 q 285 -163 274 -172 q 302 -136 296 -154 q 308 -87 308 -118 l 308 -69 z "},"ș":{"ha":619,"x_min":56,"x_max":565,"o":"m 279 93 q 397 114 358 93 q 435 181 435 135 q 397 256 435 228 q 274 318 360 283 q 194 352 232 335 q 128 393 156 369 q 83 450 100 417 q 67 532 67 483 q 138 684 67 628 q 331 740 208 740 q 392 737 361 740 q 449 728 422 733 q 495 718 475 724 q 526 708 515 713 l 503 597 q 438 620 482 608 q 331 632 393 632 q 236 610 276 632 q 196 543 196 589 q 205 501 196 519 q 233 469 214 483 q 279 442 251 454 q 346 415 307 429 q 438 377 397 396 q 506 333 478 358 q 550 273 535 308 q 565 186 565 238 q 491 35 565 86 q 279 -17 417 -17 q 129 -1 183 -17 q 56 24 75 15 l 79 135 q 150 110 101 126 q 279 93 199 93 m 238 -69 l 361 -69 q 363 -85 363 -76 q 363 -99 363 -94 q 349 -174 363 -143 q 314 -224 336 -204 q 262 -252 292 -243 q 199 -261 232 -261 q 166 -260 181 -261 q 147 -256 151 -258 l 147 -178 q 185 -175 168 -178 q 214 -163 203 -172 q 231 -136 225 -154 q 238 -87 238 -118 l 238 -69 z "},"Ț":{"ha":785,"x_min":22,"x_max":763,"o":"m 763 963 l 763 846 l 460 846 l 460 0 l 325 0 l 325 846 l 22 846 l 22 963 l 763 963 m 335 -69 l 458 -69 q 460 -85 460 -76 q 460 -99 460 -94 q 447 -174 460 -143 q 411 -224 433 -204 q 359 -252 389 -243 q 296 -261 329 -261 q 263 -260 278 -261 q 244 -256 249 -258 l 244 -178 q 283 -175 265 -178 q 311 -163 300 -172 q 328 -136 322 -154 q 335 -87 335 -118 l 335 -69 z "},"ț":{"ha":558,"x_min":103,"x_max":533,"o":"m 232 722 l 506 722 l 506 614 l 232 614 l 232 281 q 240 191 232 226 q 265 135 249 156 q 307 107 282 115 q 365 99 332 99 q 459 112 424 99 q 508 131 494 125 l 533 24 q 465 -1 514 14 q 354 -15 417 -15 q 233 3 281 -15 q 156 60 185 22 q 115 152 126 97 q 103 279 103 207 l 103 924 l 232 946 l 232 722 m 263 -69 l 386 -69 q 388 -85 388 -76 q 388 -99 388 -94 q 374 -174 388 -143 q 339 -224 361 -204 q 287 -252 317 -243 q 224 -261 257 -261 q 191 -260 206 -261 q 172 -256 176 -258 l 172 -178 q 210 -175 193 -178 q 239 -163 228 -172 q 256 -136 250 -154 q 263 -87 263 -118 l 263 -69 z "},"ȷ":{"ha":351,"x_min":-94,"x_max":240,"o":"m -7 -257 q -50 -253 -24 -257 q -94 -242 -76 -249 l -78 -136 q -46 -143 -64 -140 q -12 -146 -28 -146 q 83 -105 54 -146 q 111 15 111 -64 l 111 722 l 240 722 l 240 17 q 177 -190 240 -122 q -7 -257 114 -257 z "},"ʼ":{"ha":522,"x_min":161,"x_max":342,"o":"m 342 1078 q 342 1052 342 1063 q 340 1028 342 1042 q 311 898 335 957 q 254 786 288 839 l 161 818 q 199 922 188 871 q 211 1025 211 972 q 210 1054 211 1039 q 208 1078 210 1069 l 342 1078 z "},"ˇ":{"ha":522,"x_min":72,"x_max":450,"o":"m 72 1013 l 126 1074 l 261 951 l 396 1074 l 450 1013 l 261 814 l 72 1013 z "},"ˉ":{"ha":522,"x_min":64,"x_max":458,"o":"m 64 988 l 458 988 l 458 888 l 64 888 l 64 988 z "},"˘":{"ha":522,"x_min":79,"x_max":451,"o":"m 265 847 q 192 860 226 847 q 133 898 158 874 q 93 958 107 922 q 81 1040 79 994 l 164 1040 q 170 1007 165 1025 q 186 974 175 989 q 217 950 197 960 q 265 940 236 940 q 314 950 294 940 q 344 974 333 960 q 360 1007 356 989 q 367 1040 365 1025 l 450 1040 q 438 958 451 994 q 398 898 424 922 q 338 860 372 874 q 265 847 304 847 z "},"˙":{"ha":522,"x_min":178,"x_max":344,"o":"m 261 853 q 202 876 226 853 q 178 938 178 899 q 202 999 178 976 q 261 1022 226 1022 q 320 999 296 1022 q 344 938 344 976 q 320 876 344 899 q 261 853 296 853 z "},"˚":{"ha":522,"x_min":118,"x_max":404,"o":"m 404 940 q 392 881 404 907 q 361 837 381 856 q 316 808 342 818 q 261 799 290 799 q 206 808 232 799 q 161 837 181 818 q 130 881 142 856 q 118 940 118 907 q 130 999 118 974 q 161 1044 142 1025 q 206 1072 181 1063 q 261 1082 232 1082 q 316 1072 290 1082 q 361 1044 342 1063 q 392 999 381 1025 q 404 940 404 974 m 335 940 q 313 997 335 976 q 261 1017 292 1017 q 209 997 231 1017 q 188 940 188 976 q 209 884 188 904 q 261 864 231 864 q 313 884 292 864 q 335 940 335 904 z "},"˛":{"ha":522,"x_min":99,"x_max":343,"o":"m 251 -260 q 136 -231 174 -260 q 99 -154 99 -203 q 117 -92 99 -122 q 158 -37 135 -62 q 188 -8 175 -19 q 213 11 201 4 l 342 11 q 306 -16 326 0 q 265 -54 286 -32 q 233 -93 246 -76 q 221 -129 221 -110 q 276 -169 221 -169 q 302 -167 286 -169 q 333 -160 318 -165 l 343 -244 q 303 -256 328 -251 q 251 -260 279 -260 z "},"˝":{"ha":522,"x_min":50,"x_max":517,"o":"m 288 1000 l 117 806 l 50 856 l 210 1078 l 288 1000 m 517 1000 l 346 806 l 279 856 l 439 1078 l 517 1000 z "},"Ẁ":{"ha":1290,"x_min":39,"x_max":1251,"o":"m 646 653 q 528 308 588 467 q 408 0 468 150 l 274 0 q 144 449 200 213 q 39 963 88 685 l 181 963 q 221 746 200 854 q 264 535 242 638 q 308 340 286 433 q 354 168 331 247 q 472 488 410 314 q 589 849 535 663 l 706 849 q 824 488 760 663 q 943 168 888 314 q 988 339 965 246 q 1031 534 1010 432 q 1074 745 1053 636 q 1114 963 1094 854 l 1251 963 q 1145 449 1201 685 q 1017 0 1089 213 l 882 0 q 763 308 821 150 q 646 653 704 467 m 561 1294 l 739 1081 l 674 1022 l 478 1213 l 561 1294 z "},"ẁ":{"ha":1079,"x_min":25,"x_max":1054,"o":"m 701 0 q 619 228 663 100 q 539 496 575 357 q 460 228 503 357 q 378 0 417 100 l 265 0 q 140 326 201 143 q 25 722 79 510 l 164 722 q 197 581 178 657 q 238 428 217 504 q 283 281 260 351 q 328 157 307 210 q 374 295 351 222 q 418 442 397 368 q 458 588 439 517 q 490 722 476 660 l 597 722 q 628 588 610 660 q 667 442 646 517 q 710 295 688 368 q 757 157 733 222 q 801 281 778 210 q 846 428 824 351 q 888 581 868 504 q 921 722 907 657 l 1054 722 q 939 326 1000 510 q 814 0 878 143 l 701 0 m 456 1078 l 633 864 l 568 806 l 372 996 l 456 1078 z "},"Ẃ":{"ha":1290,"x_min":39,"x_max":1251,"o":"m 646 653 q 528 308 588 467 q 408 0 468 150 l 274 0 q 144 449 200 213 q 39 963 88 685 l 181 963 q 221 746 200 854 q 264 535 242 638 q 308 340 286 433 q 354 168 331 247 q 472 488 410 314 q 589 849 535 663 l 706 849 q 824 488 760 663 q 943 168 888 314 q 988 339 965 246 q 1031 534 1010 432 q 1074 745 1053 636 q 1114 963 1094 854 l 1251 963 q 1145 449 1201 685 q 1017 0 1089 213 l 882 0 q 763 308 821 150 q 646 653 704 467 m 813 1213 l 617 1022 l 551 1081 l 729 1294 l 813 1213 z "},"ẃ":{"ha":1079,"x_min":25,"x_max":1054,"o":"m 701 0 q 619 228 663 100 q 539 496 575 357 q 460 228 503 357 q 378 0 417 100 l 265 0 q 140 326 201 143 q 25 722 79 510 l 164 722 q 197 581 178 657 q 238 428 217 504 q 283 281 260 351 q 328 157 307 210 q 374 295 351 222 q 418 442 397 368 q 458 588 439 517 q 490 722 476 660 l 597 722 q 628 588 610 660 q 667 442 646 517 q 710 295 688 368 q 757 157 733 222 q 801 281 778 210 q 846 428 824 351 q 888 581 868 504 q 921 722 907 657 l 1054 722 q 939 326 1000 510 q 814 0 878 143 l 701 0 m 707 996 l 511 806 l 446 864 l 624 1078 l 707 996 z "},"Ẅ":{"ha":1290,"x_min":39,"x_max":1251,"o":"m 646 653 q 528 308 588 467 q 408 0 468 150 l 274 0 q 144 449 200 213 q 39 963 88 685 l 181 963 q 221 746 200 854 q 264 535 242 638 q 308 340 286 433 q 354 168 331 247 q 472 488 410 314 q 589 849 535 663 l 706 849 q 824 488 760 663 q 943 168 888 314 q 988 339 965 246 q 1031 534 1010 432 q 1074 745 1053 636 q 1114 963 1094 854 l 1251 963 q 1145 449 1201 685 q 1017 0 1089 213 l 882 0 q 763 308 821 150 q 646 653 704 467 m 513 1072 q 456 1095 481 1072 q 432 1154 432 1118 q 456 1213 432 1190 q 513 1236 481 1236 q 569 1213 544 1236 q 593 1154 593 1190 q 569 1095 593 1118 q 513 1072 544 1072 m 776 1072 q 720 1095 744 1072 q 696 1154 696 1118 q 720 1213 696 1190 q 776 1236 744 1236 q 833 1213 808 1236 q 857 1154 857 1190 q 833 1095 857 1118 q 776 1072 808 1072 z "},"ẅ":{"ha":1079,"x_min":25,"x_max":1054,"o":"m 701 0 q 619 228 663 100 q 539 496 575 357 q 460 228 503 357 q 378 0 417 100 l 265 0 q 140 326 201 143 q 25 722 79 510 l 164 722 q 197 581 178 657 q 238 428 217 504 q 283 281 260 351 q 328 157 307 210 q 374 295 351 222 q 418 442 397 368 q 458 588 439 517 q 490 722 476 660 l 597 722 q 628 588 610 660 q 667 442 646 517 q 710 295 688 368 q 757 157 733 222 q 801 281 778 210 q 846 428 824 351 q 888 581 868 504 q 921 722 907 657 l 1054 722 q 939 326 1000 510 q 814 0 878 143 l 701 0 m 407 856 q 351 878 375 856 q 326 938 326 901 q 351 997 326 974 q 407 1019 375 1019 q 463 997 439 1019 q 488 938 488 974 q 463 878 488 901 q 407 856 439 856 m 671 856 q 615 878 639 856 q 590 938 590 901 q 615 997 590 974 q 671 1019 639 1019 q 727 997 703 1019 q 751 938 751 974 q 727 878 751 901 q 671 856 703 856 z "},"Ỳ":{"ha":831,"x_min":8,"x_max":822,"o":"m 349 0 l 349 386 q 168 679 253 535 q 8 963 83 824 l 167 963 q 285 731 219 849 q 419 506 350 614 q 553 731 488 614 q 672 963 618 849 l 822 963 q 663 680 747 824 q 483 389 578 536 l 483 0 l 349 0 m 332 1294 l 510 1081 l 444 1022 l 249 1213 l 332 1294 z "},"ỳ":{"ha":690,"x_min":3,"x_max":665,"o":"m 26 -135 q 66 -148 42 -142 q 114 -154 90 -154 q 233 -120 190 -154 q 311 -10 276 -86 q 148 344 224 157 q 22 722 72 531 l 161 722 q 198 588 176 660 q 246 439 219 515 q 303 286 272 363 q 367 139 333 210 q 458 428 419 285 q 532 722 497 571 l 665 722 q 554 330 615 518 q 422 -22 493 142 q 365 -130 394 -85 q 299 -204 335 -175 q 217 -247 263 -233 q 115 -261 172 -261 q 83 -259 100 -261 q 51 -253 67 -257 q 22 -246 35 -250 q 3 -239 8 -242 l 26 -135 m 279 1078 l 457 864 l 392 806 l 196 996 l 279 1078 z "},"⁄":{"ha":206,"x_min":-232,"x_max":432,"o":"m 432 963 l -111 0 l -232 0 l 311 963 l 432 963 z "},"⁰":{"ha":499,"x_min":40,"x_max":457,"o":"m 40 706 q 96 913 40 840 q 249 985 151 985 q 401 913 346 985 q 457 706 457 840 q 401 499 457 571 q 249 426 346 426 q 96 499 151 426 q 40 706 40 571 m 354 706 q 349 780 354 744 q 332 842 344 815 q 299 883 319 868 q 249 899 279 899 q 198 883 218 899 q 165 842 178 868 q 147 780 153 815 q 142 706 142 744 q 147 631 142 665 q 165 569 153 596 q 198 528 178 543 q 249 513 218 513 q 299 528 279 513 q 332 569 319 543 q 349 631 344 596 q 354 706 354 665 z "},"⁴":{"ha":499,"x_min":33,"x_max":465,"o":"m 396 974 l 396 649 l 465 649 l 465 567 l 396 567 l 396 438 l 301 438 l 301 567 l 33 567 l 33 631 q 83 710 53 665 q 150 801 114 754 q 226 894 186 849 q 307 974 267 939 l 396 974 m 301 858 q 214 758 258 814 q 138 649 169 701 l 301 649 l 301 858 z "},"⁵":{"ha":499,"x_min":56,"x_max":442,"o":"m 442 596 q 386 474 442 522 q 214 426 331 426 q 124 436 169 426 q 56 458 79 446 l 76 542 q 133 523 97 533 q 211 513 168 513 q 313 537 285 513 q 342 593 342 561 q 330 636 342 617 q 290 669 318 656 q 214 690 261 682 q 94 697 167 697 q 110 838 104 767 q 119 974 117 908 l 419 974 l 419 886 l 203 886 q 199 831 200 858 q 192 774 197 803 q 382 722 322 767 q 442 596 442 676 z "},"⁶":{"ha":499,"x_min":51,"x_max":457,"o":"m 51 654 q 76 790 51 731 q 149 891 101 850 q 262 953 196 932 q 411 976 328 975 l 419 892 q 331 881 374 890 q 254 856 289 872 q 195 814 219 839 q 161 757 171 789 q 215 772 189 768 q 263 776 240 776 q 353 763 315 776 q 413 724 390 749 q 447 669 436 700 q 457 606 457 639 q 446 543 457 575 q 410 485 435 511 q 349 443 386 460 q 263 426 313 426 q 105 487 158 426 q 51 654 51 547 m 254 696 q 199 691 226 696 q 147 678 172 686 q 169 555 144 601 q 261 508 194 508 q 306 517 288 508 q 335 541 324 526 q 351 572 346 556 q 357 604 357 589 q 332 672 357 649 q 254 696 307 696 z "},"⁷":{"ha":499,"x_min":51,"x_max":449,"o":"m 132 438 q 156 559 138 496 q 201 682 174 622 q 260 794 228 742 q 326 883 293 846 l 51 883 l 51 974 l 449 974 l 449 897 q 385 819 419 868 q 319 708 350 769 q 264 576 288 646 q 235 438 240 507 l 132 438 z "},"⁸":{"ha":499,"x_min":44,"x_max":453,"o":"m 453 583 q 400 470 453 514 q 247 426 347 426 q 150 441 189 426 q 88 478 111 456 q 54 527 64 500 q 44 579 44 554 q 69 652 44 618 q 128 707 94 686 q 77 763 96 731 q 58 832 58 796 q 72 890 58 863 q 110 939 85 918 q 169 972 135 960 q 247 985 204 985 q 333 971 297 985 q 392 936 369 957 q 426 890 415 915 q 436 839 436 864 q 416 769 436 800 q 364 715 396 738 q 432 660 414 692 q 453 583 450 628 m 142 579 q 147 556 142 568 q 165 533 153 543 q 198 515 178 522 q 247 508 218 508 q 328 530 304 508 q 353 579 353 551 q 313 640 353 618 q 203 678 274 661 q 158 633 175 657 q 142 579 142 610 m 340 840 q 319 881 340 858 q 247 903 299 903 q 175 881 196 903 q 154 838 154 858 q 183 783 154 810 q 278 744 213 757 q 323 786 306 764 q 340 840 340 808 z "},"⁹":{"ha":499,"x_min":43,"x_max":449,"o":"m 449 757 q 353 518 449 601 q 76 435 257 435 l 74 519 q 247 556 175 522 q 339 654 319 589 q 285 639 311 643 q 238 635 260 635 q 147 649 185 635 q 87 687 110 663 q 53 742 64 711 q 43 806 43 772 q 54 867 43 836 q 90 925 65 899 q 151 968 114 951 q 238 985 188 985 q 395 924 342 985 q 449 757 449 864 m 246 717 q 301 720 274 717 q 353 732 328 724 q 331 856 356 808 q 239 903 306 903 q 194 894 213 903 q 165 870 176 885 q 148 839 153 856 q 143 807 143 822 q 246 717 143 717 z "},"₀":{"ha":499,"x_min":40,"x_max":457,"o":"m 40 269 q 96 476 40 404 q 249 549 151 549 q 401 476 346 549 q 457 269 457 404 q 401 63 457 135 q 249 -10 346 -10 q 96 63 151 -10 q 40 269 40 135 m 354 269 q 349 344 354 308 q 332 406 344 379 q 299 447 319 432 q 249 463 279 463 q 198 447 218 463 q 165 406 178 432 q 147 344 153 379 q 142 269 142 308 q 147 194 142 229 q 165 133 153 160 q 198 92 178 107 q 249 76 218 76 q 299 92 279 76 q 332 133 319 107 q 349 194 344 160 q 354 269 354 229 z "},"₁":{"ha":499,"x_min":69,"x_max":331,"o":"m 69 426 q 174 473 122 444 q 263 538 225 501 l 331 538 l 331 1 l 233 1 l 233 410 q 163 375 203 390 q 96 351 124 360 l 69 426 z "},"₂":{"ha":499,"x_min":42,"x_max":433,"o":"m 411 394 q 398 338 411 365 q 363 283 385 310 q 311 228 340 256 q 249 172 282 201 q 202 130 225 153 q 175 89 179 107 l 433 89 l 433 1 l 64 1 q 70 83 60 47 q 101 147 81 118 q 147 201 121 176 q 203 250 174 225 q 280 324 250 290 q 310 392 310 358 q 287 444 310 428 q 224 461 264 461 q 179 455 200 461 q 142 440 158 449 q 112 422 125 431 q 92 407 99 413 l 42 475 q 113 524 65 500 q 224 549 161 549 q 365 508 319 549 q 411 394 411 468 z "},"₃":{"ha":499,"x_min":44,"x_max":431,"o":"m 200 76 q 301 99 274 76 q 329 158 329 122 q 317 199 329 182 q 283 226 304 215 q 233 241 261 236 q 176 246 206 246 l 150 246 l 150 325 l 185 325 q 226 328 204 325 q 265 340 247 332 q 293 363 282 349 q 304 399 304 378 q 278 448 304 433 q 213 463 253 463 q 143 449 175 463 q 88 425 111 436 l 53 501 q 122 533 75 517 q 215 549 168 549 q 359 508 317 549 q 401 403 401 467 q 325 292 401 335 q 402 241 374 276 q 431 157 431 206 q 418 91 431 121 q 378 38 406 61 q 306 3 350 15 q 201 -10 263 -10 q 114 0 158 -10 q 44 22 69 10 l 65 106 q 130 85 96 94 q 200 76 164 76 z "},"₄":{"ha":499,"x_min":33,"x_max":465,"o":"m 396 538 l 396 213 l 465 213 l 465 131 l 396 131 l 396 1 l 301 1 l 301 131 l 33 131 l 33 194 q 83 274 53 229 q 150 365 114 318 q 226 458 186 413 q 307 538 267 503 l 396 538 m 301 422 q 214 322 258 378 q 138 213 169 265 l 301 213 l 301 422 z "},"₅":{"ha":499,"x_min":56,"x_max":442,"o":"m 442 160 q 386 38 442 86 q 214 -10 331 -10 q 124 0 169 -10 q 56 22 79 10 l 76 106 q 133 87 97 97 q 211 76 168 76 q 313 101 285 76 q 342 157 342 125 q 330 200 342 181 q 290 233 318 219 q 214 253 261 246 q 94 261 167 261 q 110 401 104 331 q 119 538 117 472 l 419 538 l 419 450 l 203 450 q 199 394 200 422 q 192 338 197 367 q 382 285 322 331 q 442 160 442 240 z "},"₆":{"ha":499,"x_min":51,"x_max":457,"o":"m 51 218 q 76 354 51 294 q 149 455 101 414 q 262 517 196 496 q 411 540 328 539 l 419 456 q 331 445 374 454 q 254 419 289 436 q 195 378 219 403 q 161 321 171 353 q 215 336 189 332 q 263 340 240 340 q 353 326 315 340 q 413 288 390 313 q 447 233 436 264 q 457 169 457 203 q 446 107 457 139 q 410 49 435 75 q 349 7 386 24 q 263 -10 313 -10 q 105 51 158 -10 q 51 218 51 111 m 254 260 q 199 255 226 260 q 147 242 172 250 q 169 119 144 165 q 261 72 194 72 q 306 81 288 72 q 335 105 324 90 q 351 136 346 119 q 357 168 357 153 q 332 236 357 213 q 254 260 307 260 z "},"₇":{"ha":499,"x_min":51,"x_max":449,"o":"m 132 1 q 156 123 138 60 q 201 246 174 186 q 260 358 228 306 q 326 447 293 410 l 51 447 l 51 538 l 449 538 l 449 461 q 385 383 419 432 q 319 272 350 333 q 264 140 288 210 q 235 1 240 71 l 132 1 z "},"₈":{"ha":499,"x_min":44,"x_max":453,"o":"m 453 147 q 400 34 453 78 q 247 -10 347 -10 q 150 5 189 -10 q 88 42 111 19 q 54 91 64 64 q 44 143 44 118 q 69 216 44 182 q 128 271 94 250 q 77 327 96 294 q 58 396 58 360 q 72 454 58 426 q 110 503 85 482 q 169 536 135 524 q 247 549 204 549 q 333 535 297 549 q 392 500 369 521 q 426 453 415 479 q 436 403 436 428 q 416 333 436 364 q 364 279 396 301 q 432 224 414 256 q 453 147 450 192 m 142 143 q 147 119 142 132 q 165 97 153 107 q 198 79 178 86 q 247 72 218 72 q 328 94 304 72 q 353 143 353 115 q 313 203 353 182 q 203 242 274 225 q 158 197 175 221 q 142 143 142 174 m 340 404 q 319 444 340 422 q 247 467 299 467 q 175 444 196 467 q 154 401 154 422 q 183 347 154 374 q 278 308 213 321 q 323 350 306 328 q 340 404 340 372 z "},"₉":{"ha":499,"x_min":43,"x_max":449,"o":"m 449 321 q 353 82 449 165 q 76 -1 257 -1 l 74 83 q 247 119 175 86 q 339 218 319 153 q 285 203 311 207 q 238 199 260 199 q 147 213 185 199 q 87 251 110 226 q 53 306 64 275 q 43 369 43 336 q 54 431 43 400 q 90 489 65 463 q 151 532 114 515 q 238 549 188 549 q 395 488 342 549 q 449 321 449 428 m 246 281 q 301 284 274 281 q 353 296 328 288 q 331 419 356 372 q 239 467 306 467 q 194 458 213 467 q 165 434 176 449 q 148 403 153 419 q 143 371 143 386 q 246 281 143 281 z "},"ℓ":{"ha":625,"x_min":8,"x_max":593,"o":"m 150 354 l 150 756 q 169 914 150 851 q 219 1013 188 976 q 292 1063 251 1049 q 379 1078 333 1078 q 474 1056 438 1078 q 532 999 511 1033 q 560 923 553 965 q 567 840 567 881 q 546 699 567 767 q 488 570 525 632 q 397 451 450 508 q 278 339 343 393 l 278 278 q 310 137 278 182 q 414 92 343 92 q 488 108 458 92 q 542 143 518 125 l 593 47 q 508 -2 558 17 q 392 -21 458 -21 q 276 0 322 -21 q 202 56 231 21 q 162 136 174 90 q 150 232 150 182 l 150 243 l 58 178 l 8 251 l 150 354 m 278 454 q 416 629 365 535 q 467 842 467 724 q 464 888 467 865 q 451 930 461 911 q 425 960 442 949 q 382 972 408 972 q 342 964 361 972 q 309 933 324 956 q 286 869 294 910 q 278 761 278 828 l 278 454 z "},"℮":{"ha":1294,"x_min":90,"x_max":1204,"o":"m 301 468 q 294 463 294 468 l 294 189 q 307 158 294 171 q 460 49 374 88 q 647 10 546 10 q 849 55 757 10 q 1007 175 940 100 l 1086 175 q 1002 95 1050 131 q 897 35 954 60 q 776 -4 840 10 q 646 -18 713 -18 q 429 22 531 -18 q 253 128 328 61 q 134 287 178 196 q 90 482 90 378 q 134 677 90 586 q 253 836 178 768 q 429 944 328 904 q 646 983 531 983 q 863 944 761 983 q 1041 836 965 904 q 1160 677 1117 768 q 1204 482 1204 586 l 1204 468 l 301 468 m 999 778 q 986 811 999 796 q 833 915 919 878 q 647 953 747 953 q 461 913 549 953 q 308 806 374 872 q 298 791 301 800 q 294 772 294 782 l 294 504 q 301 494 294 494 l 993 494 q 999 504 999 494 l 999 778 z "},"⅓":{"ha":1214,"x_min":69,"x_max":1146,"o":"m 69 863 q 174 909 122 881 q 263 974 225 938 l 331 974 l 331 438 l 233 438 l 233 846 q 163 811 203 826 q 96 788 124 796 l 69 863 m 907 963 l 364 0 l 243 0 l 786 963 l 907 963 m 915 78 q 1017 101 989 78 q 1044 160 1044 124 q 1032 200 1044 183 q 998 227 1019 217 q 949 242 976 238 q 892 247 921 247 l 865 247 l 865 326 l 900 326 q 941 330 919 326 q 980 342 963 333 q 1008 365 997 350 q 1019 400 1019 379 q 994 449 1019 435 q 928 464 968 464 q 858 451 890 464 q 803 426 826 438 l 768 503 q 837 534 790 518 q 931 550 883 550 q 1074 509 1032 550 q 1117 404 1117 468 q 1040 293 1117 336 q 1117 242 1089 278 q 1146 158 1146 207 q 1133 92 1146 122 q 1093 40 1121 63 q 1022 4 1065 17 q 917 -8 978 -8 q 829 1 874 -8 q 760 24 785 11 l 781 107 q 845 87 811 96 q 915 78 879 78 z "},"⅔":{"ha":1214,"x_min":42,"x_max":1146,"o":"m 411 831 q 398 774 411 801 q 363 719 385 746 q 311 665 340 692 q 249 608 282 638 q 202 566 225 589 q 175 525 179 543 l 433 525 l 433 438 l 64 438 q 70 519 60 483 q 101 583 81 554 q 147 637 121 613 q 203 686 174 661 q 280 760 250 726 q 310 828 310 794 q 287 881 310 864 q 224 897 264 897 q 179 891 200 897 q 142 876 158 885 q 112 858 125 867 q 92 843 99 849 l 42 911 q 113 960 65 936 q 224 985 161 985 q 365 944 319 985 q 411 831 411 904 m 936 963 l 393 0 l 272 0 l 815 963 l 936 963 m 915 78 q 1017 101 989 78 q 1044 160 1044 124 q 1032 200 1044 183 q 998 227 1019 217 q 949 242 976 238 q 892 247 921 247 l 865 247 l 865 326 l 900 326 q 941 330 919 326 q 980 342 963 333 q 1008 365 997 350 q 1019 400 1019 379 q 994 449 1019 435 q 928 464 968 464 q 858 451 890 464 q 803 426 826 438 l 768 503 q 837 534 790 518 q 931 550 883 550 q 1074 509 1032 550 q 1117 404 1117 468 q 1040 293 1117 336 q 1117 242 1089 278 q 1146 158 1146 207 q 1133 92 1146 122 q 1093 40 1121 63 q 1022 4 1065 17 q 917 -8 978 -8 q 829 1 874 -8 q 760 24 785 11 l 781 107 q 845 87 811 96 q 915 78 879 78 z "},"⅛":{"ha":1214,"x_min":69,"x_max":1168,"o":"m 69 863 q 174 909 122 881 q 263 974 225 938 l 331 974 l 331 438 l 233 438 l 233 846 q 163 811 203 826 q 96 788 124 796 l 69 863 m 907 963 l 364 0 l 243 0 l 786 963 l 907 963 m 1168 149 q 1115 35 1168 79 q 963 -8 1063 -8 q 865 6 904 -8 q 803 43 826 21 q 769 92 779 65 q 760 144 760 119 q 785 217 760 183 q 843 272 810 251 q 792 328 811 296 q 774 397 774 361 q 787 456 774 428 q 825 504 800 483 q 885 538 850 525 q 963 550 919 550 q 1049 536 1013 550 q 1108 501 1085 522 q 1141 455 1131 481 q 1151 404 1151 429 q 1131 334 1151 365 q 1079 281 1111 303 q 1147 225 1129 257 q 1168 149 1165 193 m 857 144 q 863 121 857 133 q 881 98 868 108 q 913 81 893 88 q 963 74 933 74 q 1044 95 1019 74 q 1068 144 1068 117 q 1028 205 1068 183 q 918 243 989 226 q 874 199 890 222 q 857 144 857 175 m 1056 406 q 1035 446 1056 424 q 963 468 1014 468 q 890 446 911 468 q 869 403 869 424 q 899 349 869 375 q 993 310 928 322 q 1038 351 1021 329 q 1056 406 1056 374 z "},"⅜":{"ha":1214,"x_min":44,"x_max":1168,"o":"m 200 513 q 301 535 274 513 q 329 594 329 558 q 317 635 329 618 q 283 662 304 651 q 233 677 261 672 q 176 682 206 682 l 150 682 l 150 761 l 185 761 q 226 765 204 761 q 265 776 247 768 q 293 799 282 785 q 304 835 304 814 q 278 884 304 869 q 213 899 253 899 q 143 885 175 899 q 88 861 111 872 l 53 938 q 122 969 75 953 q 215 985 168 985 q 359 944 317 985 q 401 839 401 903 q 325 728 401 771 q 402 677 374 713 q 431 593 431 642 q 418 527 431 557 q 378 474 406 497 q 306 439 350 451 q 201 426 263 426 q 114 436 158 426 q 44 458 69 446 l 65 542 q 130 522 96 531 q 200 513 164 513 m 936 963 l 393 0 l 272 0 l 815 963 l 936 963 m 1168 149 q 1115 35 1168 79 q 963 -8 1063 -8 q 865 6 904 -8 q 803 43 826 21 q 769 92 779 65 q 760 144 760 119 q 785 217 760 183 q 843 272 810 251 q 792 328 811 296 q 774 397 774 361 q 787 456 774 428 q 825 504 800 483 q 885 538 850 525 q 963 550 919 550 q 1049 536 1013 550 q 1108 501 1085 522 q 1141 455 1131 481 q 1151 404 1151 429 q 1131 334 1151 365 q 1079 281 1111 303 q 1147 225 1129 257 q 1168 149 1165 193 m 857 144 q 863 121 857 133 q 881 98 868 108 q 913 81 893 88 q 963 74 933 74 q 1044 95 1019 74 q 1068 144 1068 117 q 1028 205 1068 183 q 918 243 989 226 q 874 199 890 222 q 857 144 857 175 m 1056 406 q 1035 446 1056 424 q 963 468 1014 468 q 890 446 911 468 q 869 403 869 424 q 899 349 869 375 q 993 310 928 322 q 1038 351 1021 329 q 1056 406 1056 374 z "},"⅝":{"ha":1214,"x_min":56,"x_max":1168,"o":"m 442 596 q 386 474 442 522 q 214 426 331 426 q 124 436 169 426 q 56 458 79 446 l 76 542 q 133 523 97 533 q 211 513 168 513 q 313 537 285 513 q 342 593 342 561 q 330 636 342 617 q 290 669 318 656 q 214 690 261 682 q 94 697 167 697 q 110 838 104 767 q 119 974 117 908 l 419 974 l 419 886 l 203 886 q 199 831 200 858 q 192 774 197 803 q 382 722 322 767 q 442 596 442 676 m 936 963 l 393 0 l 272 0 l 815 963 l 936 963 m 1168 149 q 1115 35 1168 79 q 963 -8 1063 -8 q 865 6 904 -8 q 803 43 826 21 q 769 92 779 65 q 760 144 760 119 q 785 217 760 183 q 843 272 810 251 q 792 328 811 296 q 774 397 774 361 q 787 456 774 428 q 825 504 800 483 q 885 538 850 525 q 963 550 919 550 q 1049 536 1013 550 q 1108 501 1085 522 q 1141 455 1131 481 q 1151 404 1151 429 q 1131 334 1151 365 q 1079 281 1111 303 q 1147 225 1129 257 q 1168 149 1165 193 m 857 144 q 863 121 857 133 q 881 98 868 108 q 913 81 893 88 q 963 74 933 74 q 1044 95 1019 74 q 1068 144 1068 117 q 1028 205 1068 183 q 918 243 989 226 q 874 199 890 222 q 857 144 857 175 m 1056 406 q 1035 446 1056 424 q 963 468 1014 468 q 890 446 911 468 q 869 403 869 424 q 899 349 869 375 q 993 310 928 322 q 1038 351 1021 329 q 1056 406 1056 374 z "},"⅞":{"ha":1214,"x_min":51,"x_max":1168,"o":"m 132 438 q 156 559 138 496 q 201 682 174 622 q 260 794 228 742 q 326 883 293 846 l 51 883 l 51 974 l 449 974 l 449 897 q 385 819 419 868 q 319 708 350 769 q 264 576 288 646 q 235 438 240 507 l 132 438 m 879 963 l 336 0 l 215 0 l 758 963 l 879 963 m 1168 149 q 1115 35 1168 79 q 963 -8 1063 -8 q 865 6 904 -8 q 803 43 826 21 q 769 92 779 65 q 760 144 760 119 q 785 217 760 183 q 843 272 810 251 q 792 328 811 296 q 774 397 774 361 q 787 456 774 428 q 825 504 800 483 q 885 538 850 525 q 963 550 919 550 q 1049 536 1013 550 q 1108 501 1085 522 q 1141 455 1131 481 q 1151 404 1151 429 q 1131 334 1151 365 q 1079 281 1111 303 q 1147 225 1129 257 q 1168 149 1165 193 m 857 144 q 863 121 857 133 q 881 98 868 108 q 913 81 893 88 q 963 74 933 74 q 1044 95 1019 74 q 1068 144 1068 117 q 1028 205 1068 183 q 918 243 989 226 q 874 199 890 222 q 857 144 857 175 m 1056 406 q 1035 446 1056 424 q 963 468 1014 468 q 890 446 911 468 q 869 403 869 424 q 899 349 869 375 q 993 310 928 322 q 1038 351 1021 329 q 1056 406 1056 374 z "},"⅕":{"ha":1214,"x_min":69,"x_max":1157,"o":"m 69 863 q 174 909 122 881 q 263 974 225 938 l 331 974 l 331 438 l 233 438 l 233 846 q 163 811 203 826 q 96 788 124 796 l 69 863 m 907 963 l 364 0 l 243 0 l 786 963 l 907 963 m 1157 161 q 1101 40 1157 88 q 929 -8 1046 -8 q 840 1 885 -8 q 771 24 794 11 l 792 107 q 848 88 813 99 q 926 78 883 78 q 1028 102 1000 78 q 1057 158 1057 126 q 1045 201 1057 182 q 1005 234 1033 221 q 929 255 976 247 q 810 263 882 263 q 826 403 819 332 q 835 539 832 474 l 1135 539 l 1135 451 l 918 451 q 914 396 915 424 q 907 339 913 368 q 1097 287 1038 332 q 1157 161 1157 242 z "},"⅖":{"ha":1214,"x_min":42,"x_max":1157,"o":"m 411 831 q 398 774 411 801 q 363 719 385 746 q 311 665 340 692 q 249 608 282 638 q 202 566 225 589 q 175 525 179 543 l 433 525 l 433 438 l 64 438 q 70 519 60 483 q 101 583 81 554 q 147 637 121 613 q 203 686 174 661 q 280 760 250 726 q 310 828 310 794 q 287 881 310 864 q 224 897 264 897 q 179 891 200 897 q 142 876 158 885 q 112 858 125 867 q 92 843 99 849 l 42 911 q 113 960 65 936 q 224 985 161 985 q 365 944 319 985 q 411 831 411 904 m 957 963 l 414 0 l 293 0 l 836 963 l 957 963 m 1157 161 q 1101 40 1157 88 q 929 -8 1046 -8 q 840 1 885 -8 q 771 24 794 11 l 792 107 q 848 88 813 99 q 926 78 883 78 q 1028 102 1000 78 q 1057 158 1057 126 q 1045 201 1057 182 q 1005 234 1033 221 q 929 255 976 247 q 810 263 882 263 q 826 403 819 332 q 835 539 832 474 l 1135 539 l 1135 451 l 918 451 q 914 396 915 424 q 907 339 913 368 q 1097 287 1038 332 q 1157 161 1157 242 z "},"⅗":{"ha":1214,"x_min":44,"x_max":1157,"o":"m 200 513 q 301 535 274 513 q 329 594 329 558 q 317 635 329 618 q 283 662 304 651 q 233 677 261 672 q 176 682 206 682 l 150 682 l 150 761 l 185 761 q 226 765 204 761 q 265 776 247 768 q 293 799 282 785 q 304 835 304 814 q 278 884 304 869 q 213 899 253 899 q 143 885 175 899 q 88 861 111 872 l 53 938 q 122 969 75 953 q 215 985 168 985 q 359 944 317 985 q 401 839 401 903 q 325 728 401 771 q 402 677 374 713 q 431 593 431 642 q 418 527 431 557 q 378 474 406 497 q 306 439 350 451 q 201 426 263 426 q 114 436 158 426 q 44 458 69 446 l 65 542 q 130 522 96 531 q 200 513 164 513 m 936 963 l 393 0 l 272 0 l 815 963 l 936 963 m 1157 161 q 1101 40 1157 88 q 929 -8 1046 -8 q 840 1 885 -8 q 771 24 794 11 l 792 107 q 848 88 813 99 q 926 78 883 78 q 1028 102 1000 78 q 1057 158 1057 126 q 1045 201 1057 182 q 1005 234 1033 221 q 929 255 976 247 q 810 263 882 263 q 826 403 819 332 q 835 539 832 474 l 1135 539 l 1135 451 l 918 451 q 914 396 915 424 q 907 339 913 368 q 1097 287 1038 332 q 1157 161 1157 242 z "},"⅘":{"ha":1214,"x_min":33,"x_max":1157,"o":"m 396 974 l 396 649 l 465 649 l 465 567 l 396 567 l 396 438 l 301 438 l 301 567 l 33 567 l 33 631 q 83 710 53 665 q 150 801 114 754 q 226 894 186 849 q 307 974 267 939 l 396 974 m 301 858 q 214 758 258 814 q 138 649 169 701 l 301 649 l 301 858 m 950 963 l 407 0 l 286 0 l 829 963 l 950 963 m 1157 161 q 1101 40 1157 88 q 929 -8 1046 -8 q 840 1 885 -8 q 771 24 794 11 l 792 107 q 848 88 813 99 q 926 78 883 78 q 1028 102 1000 78 q 1057 158 1057 126 q 1045 201 1057 182 q 1005 234 1033 221 q 929 255 976 247 q 810 263 882 263 q 826 403 819 332 q 835 539 832 474 l 1135 539 l 1135 451 l 918 451 q 914 396 915 424 q 907 339 913 368 q 1097 287 1038 332 q 1157 161 1157 242 z "},"⅙":{"ha":1214,"x_min":69,"x_max":1172,"o":"m 69 863 q 174 909 122 881 q 263 974 225 938 l 331 974 l 331 438 l 233 438 l 233 846 q 163 811 203 826 q 96 788 124 796 l 69 863 m 936 963 l 393 0 l 272 0 l 815 963 l 936 963 m 767 219 q 792 356 767 296 q 864 456 817 415 q 977 519 911 497 q 1126 542 1043 540 l 1135 457 q 1047 447 1089 456 q 969 421 1004 438 q 910 379 935 404 q 876 322 886 354 q 930 338 904 333 q 978 342 956 342 q 1068 328 1031 342 q 1128 290 1106 314 q 1162 235 1151 265 q 1172 171 1172 204 q 1161 108 1172 140 q 1126 51 1150 76 q 1065 8 1101 25 q 978 -8 1028 -8 q 820 52 874 -8 q 767 219 767 113 m 969 261 q 915 256 942 261 q 863 243 888 251 q 885 120 860 167 q 976 74 910 74 q 1021 83 1003 74 q 1050 106 1039 92 q 1067 138 1061 121 q 1072 169 1072 154 q 1047 238 1072 214 q 969 261 1022 261 z "},"⅚":{"ha":1214,"x_min":56,"x_max":1172,"o":"m 442 596 q 386 474 442 522 q 214 426 331 426 q 124 436 169 426 q 56 458 79 446 l 76 542 q 133 523 97 533 q 211 513 168 513 q 313 537 285 513 q 342 593 342 561 q 330 636 342 617 q 290 669 318 656 q 214 690 261 682 q 94 697 167 697 q 110 838 104 767 q 119 974 117 908 l 419 974 l 419 886 l 203 886 q 199 831 200 858 q 192 774 197 803 q 382 722 322 767 q 442 596 442 676 m 951 963 l 408 0 l 288 0 l 831 963 l 951 963 m 767 219 q 792 356 767 296 q 864 456 817 415 q 977 519 911 497 q 1126 542 1043 540 l 1135 457 q 1047 447 1089 456 q 969 421 1004 438 q 910 379 935 404 q 876 322 886 354 q 930 338 904 333 q 978 342 956 342 q 1068 328 1031 342 q 1128 290 1106 314 q 1162 235 1151 265 q 1172 171 1172 204 q 1161 108 1172 140 q 1126 51 1150 76 q 1065 8 1101 25 q 978 -8 1028 -8 q 820 52 874 -8 q 767 219 767 113 m 969 261 q 915 256 942 261 q 863 243 888 251 q 885 120 860 167 q 976 74 910 74 q 1021 83 1003 74 q 1050 106 1039 92 q 1067 138 1061 121 q 1072 169 1072 154 q 1047 238 1072 214 q 969 261 1022 261 z "},"":{"ha":1214,"x_min":69,"x_max":1164,"o":"m 69 863 q 174 909 122 881 q 263 974 225 938 l 331 974 l 331 438 l 233 438 l 233 846 q 163 811 203 826 q 96 788 124 796 l 69 863 m 896 963 l 353 0 l 232 0 l 775 963 l 896 963 m 847 3 q 871 124 853 61 q 916 247 889 188 q 976 359 943 307 q 1042 449 1008 411 l 767 449 l 767 539 l 1164 539 l 1164 463 q 1100 384 1135 433 q 1034 273 1065 335 q 979 142 1003 211 q 950 3 956 72 l 847 3 z "}}}
